<svg width="60" height="60" xmlns="http://www.w3.org/2000/svg">
 <g>
  <title>background</title>
  <rect x="-1" y="-1" width="62" height="62" id="canvas_background" fill="none"/>
 </g>

 <g>
  <title>Layer 1</title>
  <g id="svg_1" stroke="null">
   <path d="m36.593207,21.833806c0,-3.635731 -2.957282,-6.593625 -6.593013,-6.593625c-3.635731,0 -6.593013,2.957894 -6.593013,6.593625c0,3.635119 2.957282,6.593013 6.593013,6.593013c3.635731,0 6.593013,-2.957894 6.593013,-6.593013zm-10.738958,0c0,-2.286785 1.860384,-4.146557 4.145945,-4.146557c2.286785,0 4.145945,1.859772 4.145945,4.146557c0,2.285561 -1.85916,4.145945 -4.145945,4.145945c-2.286173,0 -4.145945,-1.860384 -4.145945,-4.145945z" id="svg_2" fill="#ff6b91" stroke="null"/>
   <path d="m47.334,21.833806c0,-9.557636 -7.77617,-17.333806 -17.333806,-17.333806s-17.333194,7.77617 -17.333194,17.333806l0,32.219321c0,0.494919 0.297931,0.940898 0.755532,1.130545c0.151106,0.063012 0.310166,0.092989 0.468002,0.092989c0.318731,0 0.631344,-0.124189 0.86565,-0.358495l7.696641,-7.696641l0,0l3.043541,-3.044153c0.47779,-0.477178 0.47779,-1.252287 0,-1.730077s-1.252899,-0.47779 -1.730077,0l-4.764441,4.765053l0,0l-3.887167,3.887167l0,-29.265709c-0.000612,-8.20869 6.677437,-14.886738 14.885514,-14.886738c8.20869,0 14.886738,6.678049 14.886738,14.886738c0,7.937065 -6.244306,14.441372 -14.079206,14.862879c-3.215447,0.177412 -6.388071,-0.69252 -9.065163,-2.477656c-0.561602,-0.374401 -1.322028,-0.222683 -1.69643,0.339531s-0.222683,1.322028 0.339531,1.69643c2.072667,1.381982 4.393099,2.283726 6.821202,2.679539l-0.006729,0.006118l0.064236,0.004894c0.899909,0.142542 1.813277,0.220848 2.735822,0.220848c0.120518,0 0.240424,-0.007341 0.360943,-0.009788l0.145601,0.009788l0.007953,-0.007341c0.085036,-0.002447 0.168848,-0.0104 0.253883,-0.013459c0.064236,-0.003059 0.129083,-0.001835 0.193318,-0.005506c0.017741,-0.001224 0.033647,-0.006118 0.050165,-0.007953c9.08841,-0.52612 16.321943,-8.081442 16.321943,-17.298324l-0.000002,0z" id="svg_3" fill="#ff6b91" stroke="null"/>
  </g>
 </g>
</svg>