<?xml version="1.0" standalone="no"?>
<!DOCTYPE svg PUBLIC "-//W3C//DTD SVG 1.1//EN" "http://www.w3.org/Graphics/SVG/1.1/DTD/svg11.dtd" >
<svg xmlns="http://www.w3.org/2000/svg" xmlns:xlink="http://www.w3.org/1999/xlink" version="1.1">
<metadata>
Created by FontForge 20170731 at Wed Dec 13 11:43:00 2017
 By nod
Copyright \(c\) 2013, Natanael Gama \(www.ndiscovered.com . info\(at\)ndiscovered.com\), with Reserved Font Name Exo. This Font Software is licensed under the SIL Open Font License, Version 1.1.
</metadata>
<defs>
<font id="Exo2-ExtraLight" horiz-adv-x="664" >
  <font-face 
    font-family="Exo 2 Extra Light"
    font-weight="250"
    font-stretch="normal"
    units-per-em="1000"
    panose-1="0 0 3 0 0 0 0 0 0 0"
    ascent="800"
    descent="-200"
    x-height="482"
    cap-height="690"
    bbox="-517.053 -263 1189 1012"
    underline-thickness="50"
    underline-position="-100"
    stemh="40"
    stemv="32"
    unicode-range="U+0020-FB02"
  />
<missing-glyph horiz-adv-x="648" 
d="M539 690v-690h-430v690h430zM498 41v608h-348v-608h348z" />
    <glyph glyph-name="f_f" unicode="ff" horiz-adv-x="672" 
d="M574 680c-76 0 -103 -27 -103 -103v-95h172v-34h-172v-448h-40v448h-271v-448h-40v448h-87v29l87 5v79c0 89 37 136 130 136c28 0 85 -2 119 -5l-2 -30h-104c-75 0 -103 -26 -103 -103v-77h271v97c0 89 34 136 130 136c29 0 87 -1 122 -5l-1 -30h-108z" />
    <glyph glyph-name="f_f_i" unicode="ffi" horiz-adv-x="872" 
d="M778 482v-482h-40v447h-269v-447h-40v447l-271 1v-448h-39v448h-86v29l86 5v79c0 89 36 136 129 136c28 0 85 -2 119 -5l-2 -30h-103c-76 0 -104 -26 -104 -103v-77h271v95c0 90 35 138 130 138c28 0 84 -1 118 -5v-30h-105c-75 0 -103 -27 -103 -106v-92h309zM767 683
c10 0 16 -6 16 -16v-60c0 -11 -6 -16 -16 -16h-18c-10 0 -15 5 -15 16v60c0 10 5 16 15 16h18z" />
    <glyph glyph-name="f_f_l" unicode="ffl" horiz-adv-x="940" 
d="M925 27l5 -26c-15 -5 -51 -8 -71 -8c-64 0 -105 38 -105 105v583h-180c-76 1 -103 -28 -103 -107v-92h170v-34h-170v-448h-40v448h-271v-448h-40v448h-87v29l87 5v79c0 89 37 136 130 136c28 0 85 -2 119 -5l-2 -30h-104c-75 0 -103 -26 -103 -103v-77h271v95
c0 90 34 138 130 138c34 0 190 -3 233 -8v-604c0 -50 27 -76 76 -76h55z" />
    <glyph glyph-name="fi" unicode="fi" horiz-adv-x="563" 
d="M469 482v-482h-39v447h-270v-447h-40v447h-87v30l87 5v95c0 90 35 138 130 138c25 0 72 -1 102 -5v-30h-89c-75 0 -103 -27 -103 -106v-92h309zM458 683c11 0 16 -6 16 -16v-60c0 -11 -5 -16 -16 -16h-18c-10 0 -15 5 -15 16v60c0 10 5 16 15 16h18z" />
    <glyph glyph-name="fl" unicode="fl" horiz-adv-x="629" 
d="M614 27l5 -26c-15 -5 -51 -8 -70 -8c-65 0 -106 38 -106 105v583h-180c-76 1 -103 -28 -103 -107v-92h163v-35h-163v-447h-40v447h-87v30l87 5v95c0 90 34 138 130 138c34 0 190 -3 233 -8v-604c0 -50 27 -76 76 -76h55z" />
    <glyph glyph-name=".notdef" horiz-adv-x="648" 
d="M539 690v-690h-430v690h430zM498 41v608h-348v-608h348z" />
    <glyph glyph-name="A" unicode="A" horiz-adv-x="608" 
d="M548 0l-85 243h-318l-85 -243h-43l241 677c3 8 10 13 18 13h56c8 0 15 -5 18 -13l241 -677h-43zM158 279h292l-112 321l-20 56h-28l-20 -56z" />
    <glyph glyph-name="Aacute" unicode="&#xc1;" horiz-adv-x="608" 
d="M431 870l-163 -135l-18 19l155 146zM548 0l-85 243h-318l-85 -243h-43l241 677c3 8 10 13 18 13h56c8 0 15 -5 18 -13l241 -677h-43zM158 279h292l-112 321l-20 56h-28l-20 -56z" />
    <glyph glyph-name="Abreve" unicode="&#x102;" horiz-adv-x="608" 
d="M304 751c-87 0 -142 46 -140 119l24 4c0 -56 44 -89 116 -89c70 0 114 33 114 89l25 -4c1 -73 -52 -119 -139 -119zM548 0l-85 243h-318l-85 -243h-43l241 677c3 8 10 13 18 13h56c8 0 15 -5 18 -13l241 -677h-43zM158 279h292l-112 321l-20 56h-28l-20 -56z" />
    <glyph glyph-name="uni1EAE" unicode="&#x1eae;" horiz-adv-x="608" 
d="M397 962l-114 -94l-16 18l106 104zM304 751c-87 0 -142 46 -140 119l24 4c0 -56 44 -89 116 -89c70 0 114 33 114 89l25 -4c1 -73 -52 -119 -139 -119zM548 0l-85 243h-318l-85 -243h-43l241 677c3 8 10 13 18 13h56c8 0 15 -5 18 -13l241 -677h-43zM158 279h292
l-112 321l-20 56h-28l-20 -56z" />
    <glyph glyph-name="uni1EB6" unicode="&#x1eb6;" horiz-adv-x="608" 
d="M305 750c-88 0 -142 46 -141 119l25 4c0 -56 44 -89 116 -89c70 0 114 33 114 89l24 -4c2 -73 -52 -119 -138 -119zM591 0h-43l-85 243h-318l-85 -243h-43l241 677c3 8 10 13 18 13h56c8 0 15 -5 18 -13zM158 279h292l-112 321l-20 56h-28l-20 -56zM311 -73
c11 0 16 -5 16 -15v-61c0 -10 -5 -16 -16 -16h-14c-11 0 -16 6 -16 16v61c0 10 5 15 16 15h14z" />
    <glyph glyph-name="uni1EB0" unicode="&#x1eb0;" horiz-adv-x="608" 
d="M340 886l-16 -18l-115 94l24 28zM302 751c-86 0 -140 46 -139 119l25 4c0 -56 44 -89 114 -89c72 0 116 33 116 89l25 -4c1 -73 -54 -119 -141 -119zM548 0l-85 243h-318l-85 -243h-43l241 677c3 8 10 13 18 13h56c8 0 15 -5 18 -13l241 -677h-43zM158 279h292l-112 321
l-20 56h-28l-20 -56z" />
    <glyph glyph-name="uni1EB2" unicode="&#x1eb2;" horiz-adv-x="608" 
d="M342 933c0 35 -31 46 -84 32l-4 21c69 22 116 4 116 -51c0 -38 -26 -73 -83 -86l-5 19c41 14 60 38 60 65zM304 751c-87 0 -142 46 -140 119l24 4c0 -56 44 -89 116 -89c70 0 114 33 114 89l25 -4c1 -73 -52 -119 -139 -119zM548 0l-85 243h-318l-85 -243h-43l241 677
c3 8 10 13 18 13h56c8 0 15 -5 18 -13l241 -677h-43zM158 279h292l-112 321l-20 56h-28l-20 -56z" />
    <glyph glyph-name="uni1EB4" unicode="&#x1eb4;" horiz-adv-x="608" 
d="M189 904h-22c-3 63 27 95 72 91c58 -5 70 -57 127 -62c38 -3 52 14 52 57h22c3 -59 -27 -91 -72 -87c-64 5 -79 57 -126 62c-39 4 -53 -16 -53 -61zM303 751c-87 0 -141 46 -139 119l24 4c0 -56 44 -89 115 -89s115 33 115 89l25 -4c1 -73 -53 -119 -140 -119zM548 0
l-85 243h-318l-85 -243h-43l241 677c3 8 10 13 18 13h56c8 0 15 -5 18 -13l241 -677h-43zM158 279h292l-112 321l-20 56h-28l-20 -56z" />
    <glyph glyph-name="Acircumflex" unicode="&#xc2;" horiz-adv-x="608" 
d="M299 845l-129 -101l-17 19l135 119h29l135 -119l-15 -19l-130 101h-8zM548 0l-85 243h-318l-85 -243h-43l241 677c3 8 10 13 18 13h56c8 0 15 -5 18 -13l241 -677h-43zM158 279h292l-112 321l-20 56h-28l-20 -56z" />
    <glyph glyph-name="uni1EA4" unicode="&#x1ea4;" horiz-adv-x="608" 
d="M519 942l-112 -98l-17 17l103 107zM299 843l-122 -89l-16 18l127 106h29l127 -106l-15 -18l-122 89h-8zM548 0l-85 243h-318l-85 -243h-43l241 677c3 8 10 13 18 13h56c8 0 15 -5 18 -13l241 -677h-43zM158 279h292l-112 321l-20 56h-28l-20 -56z" />
    <glyph glyph-name="uni1EAC" unicode="&#x1eac;" horiz-adv-x="608" 
d="M299 845l-129 -101l-17 19l135 119h30l135 -119l-16 -19l-130 101h-8zM591 0h-43l-85 243h-318l-85 -243h-43l241 677c3 8 10 13 18 13h56c8 0 15 -5 18 -13zM158 279h292l-112 321l-20 56h-28l-20 -56zM311 -73c11 0 16 -5 16 -15v-61c0 -10 -5 -16 -16 -16h-14
c-10 0 -16 6 -16 16v61c0 10 6 15 16 15h14z" />
    <glyph glyph-name="uni1EA6" unicode="&#x1ea6;" horiz-adv-x="608" 
d="M215 861l-17 -17l-111 98l26 26zM170 762l15 31l118 85l38 -22l96 -93l-32 6l-100 74l-30 -16zM548 0l-85 243h-318l-85 -243h-43l241 677c3 8 10 13 18 13h56c8 0 15 -5 18 -13l241 -677h-43zM158 279h292l-112 321l-20 56h-28l-20 -56z" />
    <glyph glyph-name="uni1EA8" unicode="&#x1ea8;" horiz-adv-x="608" 
d="M461 922c0 35 -31 45 -84 31l-5 22c70 21 117 3 117 -52c0 -37 -27 -73 -83 -85l-5 18c41 14 60 38 60 66zM299 843l-123 -89l-15 18l127 106h29l127 -106l-15 -18l-122 89h-8zM548 0l-85 243h-318l-85 -243h-43l241 677c3 8 10 13 18 13h56c8 0 15 -5 18 -13l241 -677
h-43zM158 279h292l-112 321l-20 56h-28l-20 -56z" />
    <glyph glyph-name="uni1EAA" unicode="&#x1eaa;" horiz-adv-x="608" 
d="M191 897h-22c-4 63 27 95 72 91c58 -5 70 -57 126 -62c38 -3 53 15 53 57h21c4 -59 -26 -91 -71 -87c-65 6 -79 57 -127 62c-38 4 -52 -16 -52 -61zM299 843l-123 -89l-15 18l127 106h29l127 -106l-15 -18l-122 89h-8zM548 0l-85 243h-318l-85 -243h-43l241 677
c3 8 10 13 18 13h56c8 0 15 -5 18 -13l241 -677h-43zM158 279h292l-112 321l-20 56h-28l-20 -56z" />
    <glyph glyph-name="uni0200" unicode="&#x200;" horiz-adv-x="608" 
d="M261 746l-21 -14l-122 154l33 22zM408 746l-22 -14l-121 154l32 22zM548 0l-85 243h-318l-85 -243h-43l241 677c3 8 10 13 18 13h56c8 0 15 -5 18 -13l241 -677h-43zM158 279h292l-112 321l-20 56h-28l-20 -56z" />
    <glyph glyph-name="Adieresis" unicode="&#xc4;" horiz-adv-x="608" 
d="M207 774c-9 0 -13 5 -13 14v56c0 9 4 14 13 14h15c9 0 14 -5 14 -14v-56c0 -9 -5 -14 -14 -14h-15zM384 774c-9 0 -13 5 -13 14v56c0 9 4 14 13 14h15c9 0 14 -5 14 -14v-56c0 -9 -5 -14 -14 -14h-15zM548 0l-85 243h-318l-85 -243h-43l241 677c3 8 10 13 18 13h56
c8 0 15 -5 18 -13l241 -677h-43zM158 279h292l-112 321l-20 56h-28l-20 -56z" />
    <glyph glyph-name="uni1EA0" unicode="&#x1ea0;" horiz-adv-x="608" 
d="M591 0h-43l-85 243h-318l-85 -243h-43l241 677c3 8 10 13 18 13h56c8 0 15 -5 18 -13zM158 279h292l-112 321l-20 56h-28l-20 -56zM311 -73c11 0 16 -5 16 -15v-61c0 -10 -5 -16 -16 -16h-14c-11 0 -16 6 -16 16v61c0 10 5 15 16 15h14z" />
    <glyph glyph-name="Agrave" unicode="&#xc0;" horiz-adv-x="608" 
d="M347 753l-18 -20l-163 136l26 29zM548 0l-85 243h-318l-85 -243h-43l241 677c3 8 10 13 18 13h56c8 0 15 -5 18 -13l241 -677h-43zM158 279h292l-112 321l-20 56h-28l-20 -56z" />
    <glyph glyph-name="uni1EA2" unicode="&#x1ea2;" horiz-adv-x="608" 
d="M360 850c0 43 -35 57 -92 46l-6 24c77 19 129 -4 129 -69c0 -45 -28 -88 -91 -103l-7 21c47 16 67 46 67 81zM548 0l-85 243h-318l-85 -243h-43l241 677c3 8 10 13 18 13h56c8 0 15 -5 18 -13l241 -677h-43zM158 279h292l-112 321l-20 56h-28l-20 -56z" />
    <glyph glyph-name="uni0202" unicode="&#x202;" horiz-adv-x="608" 
d="M187 753l-24 5c-1 73 52 118 138 118c88 0 142 -45 141 -118l-25 -5c0 57 -43 89 -116 89c-69 0 -114 -32 -114 -89zM548 0l-85 243h-318l-85 -243h-43l241 677c3 8 10 13 18 13h56c8 0 15 -5 18 -13l241 -677h-43zM158 279h292l-112 321l-20 56h-28l-20 -56z" />
    <glyph glyph-name="Amacron" unicode="&#x100;" horiz-adv-x="608" 
d="M436 831v-33h-264v33h264zM548 0l-85 243h-318l-85 -243h-43l241 677c3 8 10 13 18 13h56c8 0 15 -5 18 -13l241 -677h-43zM158 279h292l-112 321l-20 56h-28l-20 -56z" />
    <glyph glyph-name="Aogonek" unicode="&#x104;" horiz-adv-x="608" 
d="M596 -176l5 -18c-109 -49 -150 4 -126 72c12 34 37 75 90 122h-17l-85 243h-318l-85 -243h-43l241 677c3 8 10 13 18 13h56c8 0 15 -5 18 -13l241 -677c-35 -35 -66 -74 -84 -123c-22 -59 17 -78 89 -53zM158 279h292l-112 321l-20 56h-28l-20 -56z" />
    <glyph glyph-name="Aring" unicode="&#xc5;" horiz-adv-x="608" 
d="M304 718c-55 0 -99 43 -99 98c0 53 45 97 99 97s99 -44 99 -97c0 -52 -44 -98 -99 -98zM304 888c-41 0 -71 -31 -71 -72c0 -43 31 -73 71 -73s71 30 71 73c0 41 -31 72 -71 72zM548 0l-85 243h-318l-85 -243h-43l241 677c3 8 10 13 18 13h56c8 0 15 -5 18 -13l241 -677
h-43zM158 279h292l-112 321l-20 56h-28l-20 -56z" />
    <glyph glyph-name="Aringacute" unicode="&#x1fa;" horiz-adv-x="608" 
d="M404 944l-141 -86l-15 22l135 96zM308 652c-55 0 -99 43 -99 98c0 53 45 97 99 97s99 -44 99 -97c0 -52 -44 -98 -99 -98zM308 822c-41 0 -71 -31 -71 -72c0 -43 31 -73 71 -73s71 30 71 73c0 41 -31 72 -71 72zM548 0l-73 188h-342l-73 -188h-43l241 617
c3 8 10 13 18 13h56c8 0 15 -5 18 -13l241 -617h-43zM147 224h314l-123 316c-8 19 -13 37 -20 56h-28c-7 -19 -12 -37 -20 -56z" />
    <glyph glyph-name="Atilde" unicode="&#xc3;" horiz-adv-x="608" 
d="M178 773h-23c-3 66 28 99 76 95c60 -5 84 -60 142 -65c41 -3 56 15 56 60h23c4 -62 -28 -96 -76 -92c-67 6 -93 60 -143 65c-40 4 -55 -17 -55 -63zM548 0l-85 243h-318l-85 -243h-43l241 677c3 8 10 13 18 13h56c8 0 15 -5 18 -13l241 -677h-43zM158 279h292l-112 321
l-20 56h-28l-20 -56z" />
    <glyph glyph-name="AE" unicode="&#xc6;" horiz-adv-x="907" 
d="M585 35h265l1 -31c-93 -4 -185 -4 -279 -4c-62 0 -106 45 -106 106v154h-247l-165 -260h-46l384 599c49 77 101 91 181 91c124 0 201 -1 278 -4l-1 -32h-265c-48 0 -79 -30 -79 -78v-190l302 -1v-33l-302 -1v-237c0 -48 31 -79 79 -79zM242 295h224v284c0 31 18 66 39 76
h-7c-20 -9 -47 -32 -71 -69z" />
    <glyph glyph-name="AEacute" unicode="&#x1fc;" horiz-adv-x="907" 
d="M694 889l-163 -136l-18 20l155 145zM585 35h265l1 -31c-93 -4 -185 -4 -279 -4c-62 0 -106 45 -106 106v154h-247l-165 -260h-46l384 599c49 77 101 91 181 91c124 0 201 -1 278 -4l-1 -32h-265c-48 0 -79 -30 -79 -78v-190l302 -1v-33l-302 -1v-237c0 -48 31 -79 79 -79
zM242 295h224v284c0 31 18 66 39 76h-7c-20 -9 -47 -32 -71 -69z" />
    <glyph glyph-name="B" unicode="B" horiz-adv-x="614" 
d="M408 356c103 -9 137 -74 137 -184c0 -142 -58 -180 -214 -180c-108 0 -159 1 -232 8v690c64 7 109 8 202 8c164 0 224 -38 224 -180c0 -99 -35 -150 -117 -158v-4zM483 515c0 120 -48 147 -183 147c-69 0 -125 -1 -160 -2v-286h178c122 1 165 28 165 141zM327 28
c130 0 176 28 176 148c0 129 -49 163 -185 165h-178v-311c39 -1 107 -2 187 -2z" />
    <glyph glyph-name="C" unicode="C" horiz-adv-x="563" 
d="M331 702c81 0 125 -5 178 -18l-7 -30c-57 8 -94 11 -171 11c-161 0 -216 -82 -216 -320s55 -320 216 -320c82 0 132 4 185 13l7 -31c-54 -13 -106 -19 -192 -19c-191 0 -259 94 -259 357s68 357 259 357z" />
    <glyph glyph-name="Cacute" unicode="&#x106;" horiz-adv-x="563" 
d="M423 901l26 -30l-163 -135l-18 19zM331 702c81 0 125 -5 178 -18l-7 -30c-57 8 -94 11 -171 11c-161 0 -216 -82 -216 -320s55 -320 216 -320c82 0 132 4 185 13l7 -31c-54 -13 -106 -19 -192 -19c-191 0 -259 94 -259 357s68 357 259 357z" />
    <glyph glyph-name="Ccaron" unicode="&#x10c;" horiz-adv-x="563" 
d="M457 887l16 -18l-138 -120h-24l-139 120l18 18l129 -98h8zM331 702c81 0 125 -5 178 -18l-7 -30c-57 8 -94 11 -171 11c-161 0 -216 -82 -216 -320s55 -320 216 -320c82 0 132 4 185 13l7 -31c-54 -13 -106 -19 -192 -19c-191 0 -259 94 -259 357s68 357 259 357z" />
    <glyph glyph-name="Ccedilla" unicode="&#xc7;" horiz-adv-x="563" 
d="M331 702c81 0 125 -5 178 -18l-7 -30c-57 8 -94 11 -171 11c-161 0 -216 -82 -216 -320s55 -320 216 -320c82 0 132 4 185 13l7 -31c-54 -13 -106 -19 -192 -19c-191 0 -259 94 -259 357s68 357 259 357zM297 -59c57 4 87 -14 86 -65c-1 -72 -58 -121 -146 -110l6 23
c67 -3 108 37 108 85c0 33 -14 45 -59 46z" />
    <glyph glyph-name="uni1E08" unicode="&#x1e08;" horiz-adv-x="563" 
d="M425 899l26 -29l-163 -136l-18 20zM331 702c81 0 125 -5 178 -18l-7 -30c-57 8 -94 11 -171 11c-161 0 -216 -82 -216 -320s55 -320 216 -320c82 0 132 4 185 13l7 -31c-54 -13 -106 -19 -192 -19c-191 0 -259 94 -259 357s68 357 259 357zM296 -59c58 4 88 -14 87 -65
c-2 -72 -59 -121 -147 -110l7 23c66 -3 107 37 108 85c0 33 -15 45 -59 46z" />
    <glyph glyph-name="Ccircumflex" unicode="&#x108;" horiz-adv-x="563" 
d="M335 883l135 -119l-15 -19l-130 101h-8l-129 -101l-17 19l135 119h29zM331 702c81 0 125 -5 178 -18l-7 -30c-57 8 -94 11 -171 11c-161 0 -216 -82 -216 -320s55 -320 216 -320c82 0 132 4 185 13l7 -31c-54 -13 -106 -19 -192 -19c-191 0 -259 94 -259 357
s68 357 259 357z" />
    <glyph glyph-name="Cdotaccent" unicode="&#x10a;" horiz-adv-x="563" 
d="M329 861c10 0 16 -5 16 -15v-61c0 -10 -6 -15 -16 -15h-14c-11 0 -16 5 -16 15v61c0 10 5 15 16 15h14zM331 702c81 0 125 -5 178 -18l-7 -30c-57 8 -94 11 -171 11c-161 0 -216 -82 -216 -320s55 -320 216 -320c82 0 132 4 185 13l7 -31c-54 -13 -106 -19 -192 -19
c-191 0 -259 94 -259 357s68 357 259 357z" />
    <glyph glyph-name="D" unicode="D" horiz-adv-x="660" 
d="M332 699c189 0 256 -92 256 -354s-67 -354 -256 -354c-90 0 -165 4 -233 9v690c67 5 144 9 233 9zM332 28c158 0 213 81 213 317s-55 317 -213 317c-74 0 -135 -2 -192 -3v-628c56 -1 118 -3 192 -3z" />
    <glyph glyph-name="uni01C4" unicode="&#x1c4;" horiz-adv-x="1212" 
d="M945 749h-24l-139 120l18 18l129 -98h8l130 98l16 -18zM332 699c189 0 256 -92 256 -354s-67 -354 -256 -354c-90 0 -165 4 -233 9v690c67 5 144 9 233 9zM750 36h412v-36h-459v36l407 618h-403v36h450v-36zM332 28c158 0 213 81 213 317s-55 317 -213 317
c-74 0 -135 -2 -192 -3v-628c56 -1 118 -3 192 -3z" />
    <glyph glyph-name="Eth" unicode="&#xd0;" 
d="M335 699c189 0 256 -92 256 -354s-67 -354 -256 -354c-90 0 -165 4 -233 9v356h-77v28h77v306c67 5 144 9 233 9zM335 28c158 0 213 81 213 317s-55 317 -213 317c-74 0 -135 -2 -192 -3v-275h175v-28h-175v-325c56 -1 118 -3 192 -3z" />
    <glyph glyph-name="Dcaron" unicode="&#x10e;" horiz-adv-x="660" 
d="M335 749h-24l-139 120l18 18l129 -98h8l130 98l16 -18zM332 699c189 0 256 -92 256 -354s-67 -354 -256 -354c-90 0 -165 4 -233 9v690c67 5 144 9 233 9zM332 28c158 0 213 81 213 317s-55 317 -213 317c-74 0 -135 -2 -192 -3v-628c56 -1 118 -3 192 -3z" />
    <glyph glyph-name="Dcroat" unicode="&#x110;" 
d="M335 699c189 0 256 -92 256 -354s-67 -354 -256 -354c-90 0 -165 4 -233 9v356h-77v28h77v306c67 5 144 9 233 9zM335 28c158 0 213 81 213 317s-55 317 -213 317c-74 0 -135 -2 -192 -3v-275h175v-28h-175v-325c56 -1 118 -3 192 -3z" />
    <glyph glyph-name="uni1E0C" unicode="&#x1e0c;" horiz-adv-x="660" 
d="M332 699c189 0 256 -92 256 -354s-67 -354 -256 -354c-90 0 -165 4 -233 9v690c67 5 144 9 233 9zM332 28c158 0 213 81 213 317s-55 317 -213 317c-74 0 -135 -2 -192 -3v-628c56 -1 118 -3 192 -3zM330 -73c11 0 16 -5 16 -15v-61c0 -10 -5 -16 -16 -16h-14
c-10 0 -16 6 -16 16v61c0 10 6 15 16 15h14z" />
    <glyph glyph-name="uni1E0E" unicode="&#x1e0e;" horiz-adv-x="660" 
d="M332 699c189 0 256 -92 256 -354s-67 -354 -256 -354c-90 0 -165 4 -233 9v690c67 5 144 9 233 9zM332 28c158 0 213 81 213 317s-55 317 -213 317c-74 0 -135 -2 -192 -3v-628c56 -1 118 -3 192 -3zM190 -129v33h264v-33h-264z" />
    <glyph glyph-name="uni01C5" unicode="&#x1c5;" horiz-adv-x="1162" 
d="M920 568h-24l-139 120l18 18l129 -98h8l130 98l16 -18zM332 699c189 0 256 -92 256 -354s-67 -354 -256 -354c-90 0 -165 4 -233 9v690c67 5 144 9 233 9zM332 28c158 0 213 81 213 317s-55 317 -213 317c-74 0 -135 -2 -192 -3v-628c56 -1 118 -3 192 -3zM760 34h350
v-34h-398v34l347 413h-344v35h392v-35z" />
    <glyph glyph-name="E" unicode="E" horiz-adv-x="553" 
d="M210 35h285l2 -31c-96 -4 -196 -4 -294 -4c-65 0 -110 44 -110 106v478c0 62 45 106 110 106c98 0 198 0 294 -4l-2 -31h-285c-46 0 -76 -31 -76 -78v-191l320 -1v-33l-320 -1v-238c0 -47 30 -78 76 -78z" />
    <glyph glyph-name="Eacute" unicode="&#xc9;" horiz-adv-x="553" 
d="M437 893l-163 -135l-18 19l155 146zM210 35h285l2 -31c-96 -4 -196 -4 -294 -4c-65 0 -110 44 -110 106v478c0 62 45 106 110 106c98 0 198 0 294 -4l-2 -31h-285c-46 0 -76 -31 -76 -78v-191l320 -1v-33l-320 -1v-238c0 -47 30 -78 76 -78z" />
    <glyph glyph-name="Ebreve" unicode="&#x114;" horiz-adv-x="553" 
d="M310 774c-87 0 -142 46 -140 119l24 4c0 -56 44 -89 116 -89c70 0 114 33 114 89l25 -4c1 -73 -52 -119 -139 -119zM210 35h285l2 -31c-96 -4 -196 -4 -294 -4c-65 0 -110 44 -110 106v478c0 62 45 106 110 106c98 0 198 0 294 -4l-2 -31h-285c-46 0 -76 -31 -76 -78
v-191l320 -1v-33l-320 -1v-238c0 -47 30 -78 76 -78z" />
    <glyph glyph-name="Ecaron" unicode="&#x11a;" horiz-adv-x="553" 
d="M323 771h-24l-139 120l18 18l129 -98h8l130 98l16 -18zM210 35h285l2 -31c-96 -4 -196 -4 -294 -4c-65 0 -110 44 -110 106v478c0 62 45 106 110 106c98 0 198 0 294 -4l-2 -31h-285c-46 0 -76 -31 -76 -78v-191l320 -1v-33l-320 -1v-238c0 -47 30 -78 76 -78z" />
    <glyph glyph-name="uni1E1C" unicode="&#x1e1c;" horiz-adv-x="553" 
d="M310 774c-88 0 -142 46 -141 119l25 4c0 -56 44 -89 116 -89c70 0 114 33 114 89l24 -4c2 -73 -52 -119 -138 -119zM210 35h285l2 -31c-96 -4 -196 -4 -294 -4c-65 0 -110 44 -110 106v478c0 62 45 106 110 106c98 0 198 0 294 -4l-2 -31h-285c-46 0 -76 -31 -76 -78
v-191l320 -1v-33l-320 -1v-238c0 -47 30 -78 76 -78zM265 -47c58 4 88 -14 87 -65c-2 -72 -59 -121 -147 -110l7 23c66 -3 107 37 108 85c0 33 -15 45 -59 46z" />
    <glyph glyph-name="Ecircumflex" unicode="&#xca;" horiz-adv-x="553" 
d="M305 868l-129 -101l-17 19l135 119h29l135 -119l-15 -19l-130 101h-8zM210 35h285l2 -31c-96 -4 -196 -4 -294 -4c-65 0 -110 44 -110 106v478c0 62 45 106 110 106c98 0 198 0 294 -4l-2 -31h-285c-46 0 -76 -31 -76 -78v-191l320 -1v-33l-320 -1v-238
c0 -47 30 -78 76 -78z" />
    <glyph glyph-name="uni1EBE" unicode="&#x1ebe;" horiz-adv-x="553" 
d="M525 965l-112 -98l-17 17l103 107zM305 866l-122 -89l-16 18l127 106h29l127 -106l-15 -18l-122 89h-8zM210 655c-46 0 -76 -31 -76 -78v-191l320 -1v-33l-320 -1v-238c0 -47 30 -78 76 -78h285l2 -31c-96 -4 -196 -4 -294 -4c-65 0 -110 44 -110 106v478
c0 62 45 106 110 106c98 0 198 0 294 -4l-2 -31h-285z" />
    <glyph glyph-name="uni1EC6" unicode="&#x1ec6;" horiz-adv-x="553" 
d="M305 869l-129 -101l-17 19l135 119h30l135 -119l-16 -19l-130 101h-8zM210 35h285l2 -31c-96 -4 -196 -4 -294 -4c-65 0 -110 44 -110 106v478c0 62 45 106 110 106c98 0 198 0 294 -4l-2 -31h-285c-46 0 -76 -31 -76 -78v-191l320 -1v-33l-320 -1v-238
c0 -47 30 -78 76 -78zM306 -61c11 0 16 -5 16 -15v-61c0 -10 -5 -16 -16 -16h-14c-10 0 -16 6 -16 16v61c0 10 6 15 16 15h14z" />
    <glyph glyph-name="uni1EC0" unicode="&#x1ec0;" horiz-adv-x="553" 
d="M221 884l-17 -17l-111 98l26 26zM176 785l15 31l118 85l38 -22l96 -93l-32 6l-100 74l-30 -16zM210 35h285l2 -31c-96 -4 -196 -4 -294 -4c-65 0 -110 44 -110 106v478c0 62 45 106 110 106c98 0 198 0 294 -4l-2 -31h-285c-46 0 -76 -31 -76 -78v-191l320 -1v-33
l-320 -1v-238c0 -47 30 -78 76 -78z" />
    <glyph glyph-name="uni1EC2" unicode="&#x1ec2;" horiz-adv-x="553" 
d="M467 945c0 35 -31 45 -84 31l-5 22c70 21 117 3 117 -52c0 -37 -27 -73 -83 -85l-5 18c41 14 60 38 60 66zM305 866l-123 -89l-15 18l127 106h29l127 -106l-15 -18l-122 89h-8zM210 35h285l2 -31c-96 -4 -196 -4 -294 -4c-65 0 -110 44 -110 106v478c0 62 45 106 110 106
c98 0 198 0 294 -4l-2 -31h-285c-46 0 -76 -31 -76 -78v-191l320 -1v-33l-320 -1v-238c0 -47 30 -78 76 -78z" />
    <glyph glyph-name="uni1EC4" unicode="&#x1ec4;" horiz-adv-x="553" 
d="M197 920h-22c-4 63 27 95 72 91c58 -5 70 -57 126 -62c38 -3 53 15 53 57h21c4 -59 -26 -91 -71 -87c-65 6 -79 57 -127 62c-38 4 -52 -16 -52 -61zM305 866l-123 -89l-15 18l127 106h29l127 -106l-15 -18l-122 89h-8zM210 35h285l2 -31c-96 -4 -196 -4 -294 -4
c-65 0 -110 44 -110 106v478c0 62 45 106 110 106c98 0 198 0 294 -4l-2 -31h-285c-46 0 -76 -31 -76 -78v-191l320 -1v-33l-320 -1v-238c0 -47 30 -78 76 -78z" />
    <glyph glyph-name="uni0204" unicode="&#x204;" horiz-adv-x="553" 
d="M267 769l-21 -14l-122 154l33 22zM414 769l-22 -14l-121 154l32 22zM210 35h285l2 -31c-96 -4 -196 -4 -294 -4c-65 0 -110 44 -110 106v478c0 62 45 106 110 106c98 0 198 0 294 -4l-2 -31h-285c-46 0 -76 -31 -76 -78v-191l320 -1v-33l-320 -1v-238
c0 -47 30 -78 76 -78z" />
    <glyph glyph-name="Edieresis" unicode="&#xcb;" horiz-adv-x="553" 
d="M213 797c-9 0 -13 5 -13 14v56c0 9 4 14 13 14h15c9 0 14 -5 14 -14v-56c0 -9 -5 -14 -14 -14h-15zM390 797c-9 0 -13 5 -13 14v56c0 9 4 14 13 14h15c9 0 14 -5 14 -14v-56c0 -9 -5 -14 -14 -14h-15zM210 35h285l2 -31c-96 -4 -196 -4 -294 -4c-65 0 -110 44 -110 106
v478c0 62 45 106 110 106c98 0 198 0 294 -4l-2 -31h-285c-46 0 -76 -31 -76 -78v-191l320 -1v-33l-320 -1v-238c0 -47 30 -78 76 -78z" />
    <glyph glyph-name="Edotaccent" unicode="&#x116;" horiz-adv-x="553" 
d="M303 792c-11 0 -16 5 -16 15v61c0 10 5 15 16 15h14c10 0 16 -5 16 -15v-61c0 -10 -6 -15 -16 -15h-14zM210 35h285l2 -31c-96 -4 -196 -4 -294 -4c-65 0 -110 44 -110 106v478c0 62 45 106 110 106c98 0 198 0 294 -4l-2 -31h-285c-46 0 -76 -31 -76 -78v-191l320 -1
v-33l-320 -1v-238c0 -47 30 -78 76 -78z" />
    <glyph glyph-name="uni1EB8" unicode="&#x1eb8;" horiz-adv-x="553" 
d="M210 35h285l2 -31c-96 -4 -196 -4 -294 -4c-65 0 -110 44 -110 106v478c0 62 45 106 110 106c98 0 198 0 294 -4l-2 -31h-285c-46 0 -76 -31 -76 -78v-191l320 -1v-33l-320 -1v-238c0 -47 30 -78 76 -78zM306 -61c11 0 16 -5 16 -15v-61c0 -10 -5 -16 -16 -16h-14
c-11 0 -16 6 -16 16v61c0 10 5 15 16 15h14z" />
    <glyph glyph-name="Egrave" unicode="&#xc8;" horiz-adv-x="553" 
d="M353 776l-18 -20l-163 136l26 29zM210 35h285l2 -31c-96 -4 -196 -4 -294 -4c-65 0 -110 44 -110 106v478c0 62 45 106 110 106c98 0 198 0 294 -4l-2 -31h-285c-46 0 -76 -31 -76 -78v-191l320 -1v-33l-320 -1v-238c0 -47 30 -78 76 -78z" />
    <glyph glyph-name="uni1EBA" unicode="&#x1eba;" horiz-adv-x="553" 
d="M363 865c0 44 -35 58 -92 47l-6 23c77 20 129 -3 129 -68c0 -46 -29 -88 -91 -103l-7 21c48 16 67 46 67 80zM210 35h285l2 -31c-96 -4 -196 -4 -294 -4c-65 0 -110 44 -110 106v478c0 62 45 106 110 106c98 0 198 0 294 -4l-2 -31h-285c-46 0 -76 -31 -76 -78v-191
l320 -1v-33l-320 -1v-238c0 -47 30 -78 76 -78z" />
    <glyph glyph-name="uni0206" unicode="&#x206;" horiz-adv-x="553" 
d="M193 776l-24 5c-1 73 52 118 138 118c88 0 142 -45 141 -118l-25 -5c0 57 -43 89 -116 89c-69 0 -114 -32 -114 -89zM210 35h285l2 -31c-96 -4 -196 -4 -294 -4c-65 0 -110 44 -110 106v478c0 62 45 106 110 106c98 0 198 0 294 -4l-2 -31h-285c-46 0 -76 -31 -76 -78
v-191l320 -1v-33l-320 -1v-238c0 -47 30 -78 76 -78z" />
    <glyph glyph-name="Emacron" unicode="&#x112;" horiz-adv-x="553" 
d="M442 854v-33h-264v33h264zM210 35h285l2 -31c-96 -4 -196 -4 -294 -4c-65 0 -110 44 -110 106v478c0 62 45 106 110 106c98 0 198 0 294 -4l-2 -31h-285c-46 0 -76 -31 -76 -78v-191l320 -1v-33l-320 -1v-238c0 -47 30 -78 76 -78z" />
    <glyph glyph-name="uni1E16" unicode="&#x1e16;" horiz-adv-x="553" 
d="M390 968l-113 -96l-17 18l105 105zM442 840v-33h-264v33h264zM210 35h285l2 -31c-96 -4 -196 -4 -294 -4c-65 0 -110 44 -110 106v478c0 62 45 106 110 106c98 0 198 0 294 -4l-2 -31h-285c-46 0 -76 -31 -76 -78v-191l320 -1v-33l-320 -1v-238c0 -47 30 -78 76 -78z" />
    <glyph glyph-name="uni1E14" unicode="&#x1e14;" horiz-adv-x="553" 
d="M360 890l-17 -18l-113 96l25 27zM442 840v-33h-264v33h264zM210 35h285l2 -31c-96 -4 -196 -4 -294 -4c-65 0 -110 44 -110 106v478c0 62 45 106 110 106c98 0 198 0 294 -4l-2 -31h-285c-46 0 -76 -31 -76 -78v-191l320 -1v-33l-320 -1v-238c0 -47 30 -78 76 -78z" />
    <glyph glyph-name="Eogonek" unicode="&#x118;" horiz-adv-x="553" 
d="M502 -172l5 -18c-109 -49 -150 4 -126 72c12 33 37 74 89 121c-88 -3 -178 -3 -267 -3c-65 0 -110 44 -110 106v478c0 62 45 106 110 106c98 0 198 0 294 -4l-2 -31h-285c-46 0 -76 -31 -76 -78v-191l320 -1v-33l-320 -1v-238c0 -47 30 -78 76 -78h285l2 -31
c-35 -35 -66 -74 -84 -123c-22 -59 17 -78 89 -53z" />
    <glyph glyph-name="uni1EBC" unicode="&#x1ebc;" horiz-adv-x="553" 
d="M184 796h-23c-3 66 28 99 76 95c60 -5 84 -60 142 -65c41 -3 56 15 56 60h23c4 -62 -28 -96 -76 -92c-67 6 -93 60 -143 65c-40 4 -55 -17 -55 -63zM210 35h285l2 -31c-96 -4 -196 -4 -294 -4c-65 0 -110 44 -110 106v478c0 62 45 106 110 106c98 0 198 0 294 -4l-2 -31
h-285c-46 0 -76 -31 -76 -78v-191l320 -1v-33l-320 -1v-238c0 -47 30 -78 76 -78z" />
    <glyph glyph-name="F" unicode="F" horiz-adv-x="532" 
d="M215 655c-47 0 -78 -31 -78 -78v-197h313v-34h-313v-346h-41v583c0 64 45 107 110 107c96 0 193 0 287 -5l-3 -30h-275z" />
    <glyph glyph-name="G" unicode="G" horiz-adv-x="624" 
d="M505 400h41v-400h-29l-8 84c-49 -53 -122 -96 -211 -96c-162 0 -226 108 -226 358c0 265 69 356 266 356c85 0 136 -5 195 -18l-7 -30c-63 8 -111 11 -187 11c-166 0 -223 -75 -223 -321c0 -226 51 -319 189 -319c91 0 148 47 200 92v283z" />
    <glyph glyph-name="Gbreve" unicode="&#x11e;" horiz-adv-x="624" 
d="M325 754c-87 0 -142 46 -140 119l24 4c0 -56 44 -89 116 -89c70 0 114 33 114 89l25 -4c1 -73 -52 -119 -139 -119zM505 400h41v-400h-29l-8 84c-49 -53 -122 -96 -211 -96c-162 0 -226 108 -226 358c0 265 69 356 266 356c85 0 136 -5 195 -18l-7 -30
c-63 8 -111 11 -187 11c-166 0 -223 -75 -223 -321c0 -226 51 -319 189 -319c91 0 148 47 200 92v283z" />
    <glyph glyph-name="Gcaron" unicode="&#x1e6;" horiz-adv-x="624" 
d="M338 751h-24l-139 120l18 18l129 -98h8l130 98l16 -18zM505 400h41v-400h-29l-8 84c-49 -53 -122 -96 -211 -96c-162 0 -226 108 -226 358c0 265 69 356 266 356c85 0 136 -5 195 -18l-7 -30c-63 8 -111 11 -187 11c-166 0 -223 -75 -223 -321c0 -226 51 -319 189 -319
c91 0 148 47 200 92v283z" />
    <glyph glyph-name="Gcircumflex" unicode="&#x11c;" horiz-adv-x="624" 
d="M320 848l-129 -101l-17 19l135 119h29l135 -119l-15 -19l-130 101h-8zM505 400h41v-400h-29l-8 84c-49 -53 -122 -96 -211 -96c-162 0 -226 108 -226 358c0 265 69 356 266 356c85 0 136 -5 195 -18l-7 -30c-63 8 -111 11 -187 11c-166 0 -223 -75 -223 -321
c0 -226 51 -319 189 -319c91 0 148 47 200 92v283z" />
    <glyph glyph-name="Gcommaaccent" unicode="&#x122;" horiz-adv-x="624" 
d="M505 400h41v-400h-29l-8 84c-49 -53 -122 -96 -211 -96c-162 0 -226 108 -226 358c0 265 69 356 266 356c85 0 136 -5 195 -18l-7 -30c-63 8 -111 11 -187 11c-166 0 -223 -75 -223 -321c0 -226 51 -319 189 -319c91 0 148 47 200 92v283zM329 -63c11 0 15 -4 15 -15v-57
c-1 -37 -8 -84 -21 -120l-17 6c4 36 4 57 4 102c-5 0 -10 5 -10 13l1 56c-1 11 5 15 16 15h12z" />
    <glyph glyph-name="Gdotaccent" unicode="&#x120;" horiz-adv-x="624" 
d="M318 772c-11 0 -16 5 -16 15v61c0 10 5 15 16 15h14c10 0 16 -5 16 -15v-61c0 -10 -6 -15 -16 -15h-14zM505 400h41v-400h-29l-8 84c-49 -53 -122 -96 -211 -96c-162 0 -226 108 -226 358c0 265 69 356 266 356c85 0 136 -5 195 -18l-7 -30c-63 8 -111 11 -187 11
c-166 0 -223 -75 -223 -321c0 -226 51 -319 189 -319c91 0 148 47 200 92v283z" />
    <glyph glyph-name="uni1E20" unicode="&#x1e20;" horiz-adv-x="624" 
d="M457 834v-33h-265v33h265zM505 400h41v-400h-29l-8 84c-49 -53 -122 -96 -211 -96c-162 0 -226 108 -226 358c0 265 69 356 266 356c85 0 136 -5 195 -18l-7 -30c-63 8 -111 11 -187 11c-166 0 -223 -75 -223 -321c0 -226 51 -319 189 -319c91 0 148 47 200 92v283z" />
    <glyph glyph-name="H" unicode="H" horiz-adv-x="660" 
d="M520 690h41v-690h-41v352h-380v-352h-41v690h41v-302h380v302z" />
    <glyph glyph-name="Hbar" unicode="&#x126;" horiz-adv-x="668" 
d="M642 550v-27h-77v-523h-41v352h-380v-352h-41v523h-78v27h78v140h41v-140h380v140h41v-140h77zM524 388v135h-380v-135h380z" />
    <glyph glyph-name="uni1E2A" unicode="&#x1e2a;" horiz-adv-x="660" 
d="M520 690h41v-690h-41v352h-380v-352h-41v690h41v-302h380v302zM447 -43l24 -5c2 -72 -52 -118 -138 -118c-88 0 -142 46 -141 118l25 5c0 -57 44 -89 116 -89c70 0 114 32 114 89z" />
    <glyph glyph-name="Hcircumflex" unicode="&#x124;" horiz-adv-x="660" 
d="M326 852l-129 -101l-17 19l135 119h29l135 -119l-15 -19l-130 101h-8zM520 690h41v-690h-41v352h-380v-352h-41v690h41v-302h380v302z" />
    <glyph glyph-name="uni1E24" unicode="&#x1e24;" horiz-adv-x="660" 
d="M520 690h41v-690h-41v352h-380v-352h-41v690h41v-302h380v302zM339 -61c11 0 16 -5 16 -15v-61c0 -10 -5 -16 -16 -16h-14c-10 0 -16 6 -16 16v61c0 10 6 15 16 15h14z" />
    <glyph glyph-name="I" unicode="I" horiz-adv-x="239" 
d="M140 690v-690h-41v690h41z" />
    <glyph glyph-name="IJ" unicode="&#x132;" horiz-adv-x="567" 
d="M140 690v-690h-41v690h41zM471 690v-567c0 -86 -42 -131 -125 -130c-20 0 -52 4 -71 8l5 28h56c63 0 94 31 94 94v567h41z" />
    <glyph glyph-name="Iacute" unicode="&#xcd;" horiz-adv-x="239" 
d="M220 901l26 -30l-163 -135l-18 19zM140 690v-690h-41v690h41z" />
    <glyph glyph-name="Ibreve" unicode="&#x12c;" horiz-adv-x="239" 
d="M233 875l25 -4c1 -73 -52 -119 -139 -119s-142 46 -140 119l24 4c0 -56 44 -89 116 -89c70 0 114 33 114 89zM140 690v-690h-41v690h41z" />
    <glyph glyph-name="Icircumflex" unicode="&#xce;" horiz-adv-x="239" 
d="M132 883l135 -119l-15 -19l-130 101h-8l-129 -101l-17 19l135 119h29zM140 690v-690h-41v690h41z" />
    <glyph glyph-name="uni0208" unicode="&#x208;" horiz-adv-x="239" 
d="M-34 909l110 -162l-21 -14l-122 154zM112 909l111 -162l-22 -14l-121 154zM140 690v-690h-41v690h41z" />
    <glyph glyph-name="Idieresis" unicode="&#xcf;" horiz-adv-x="239" 
d="M37 859c9 0 14 -5 14 -14v-56c0 -9 -5 -14 -14 -14h-15c-9 0 -13 5 -13 14v56c0 9 4 14 13 14h15zM214 859c9 0 14 -5 14 -14v-56c0 -9 -5 -14 -14 -14h-15c-9 0 -13 5 -13 14v56c0 9 4 14 13 14h15zM140 690v-690h-41v690h41z" />
    <glyph glyph-name="uni1E2E" unicode="&#x1e2e;" horiz-adv-x="239" 
d="M196 1012l25 -27l-140 -116l-16 18zM45 830c8 0 12 -4 12 -13v-50c0 -9 -4 -13 -12 -13h-13c-9 0 -13 4 -13 13v50c0 9 4 13 13 13h13zM206 830c8 0 12 -4 12 -13v-50c0 -9 -4 -13 -12 -13h-14c-8 0 -12 4 -12 13v50c0 9 4 13 12 13h14zM140 690v-690h-41v690h41z" />
    <glyph glyph-name="Idotaccent" unicode="&#x130;" horiz-adv-x="239" 
d="M126 861c10 0 16 -5 16 -15v-61c0 -10 -6 -15 -16 -15h-14c-11 0 -16 5 -16 15v61c0 10 5 15 16 15h14zM140 690v-690h-41v690h41z" />
    <glyph glyph-name="uni1ECA" unicode="&#x1eca;" horiz-adv-x="239" 
d="M140 690v-690h-41v690h41zM126 -61c11 0 16 -5 16 -15v-61c0 -10 -5 -16 -16 -16h-14c-11 0 -16 6 -16 16v61c0 10 5 15 16 15h14z" />
    <glyph glyph-name="Igrave" unicode="&#xcc;" horiz-adv-x="239" 
d="M7 899l155 -145l-18 -20l-163 136zM140 690v-690h-41v690h41z" />
    <glyph glyph-name="uni1EC8" unicode="&#x1ec8;" horiz-adv-x="239" 
d="M105 763c48 16 67 46 67 80c0 44 -35 58 -92 47l-6 23c77 20 129 -3 129 -68c0 -46 -29 -88 -91 -103zM140 690v-690h-41v690h41z" />
    <glyph glyph-name="uni020A" unicode="&#x20a;" horiz-adv-x="239" 
d="M2 754l-24 5c-1 73 52 118 138 118c88 0 142 -45 141 -118l-25 -5c0 57 -43 89 -116 89c-69 0 -114 -32 -114 -89zM140 690v-690h-41v690h41z" />
    <glyph glyph-name="Imacron" unicode="&#x12a;" horiz-adv-x="239" 
d="M251 832v-33h-264v33h264zM140 690v-690h-41v690h41z" />
    <glyph glyph-name="Iogonek" unicode="&#x12e;" horiz-adv-x="239" 
d="M143 -176l5 -18c-109 -49 -150 4 -126 72c12 34 37 75 90 122h-13v690h41v-690h-2c-35 -35 -66 -74 -84 -123c-22 -59 17 -78 89 -53z" />
    <glyph glyph-name="Itilde" unicode="&#x128;" horiz-adv-x="239" 
d="M46 869c60 -5 84 -60 142 -65c41 -3 56 15 56 60h23c4 -62 -28 -96 -76 -92c-67 6 -93 60 -143 65c-40 4 -55 -17 -55 -63h-23c-3 66 28 99 76 95zM140 690v-690h-41v690h41z" />
    <glyph glyph-name="J" unicode="J" horiz-adv-x="328" 
d="M232 690v-567c0 -86 -42 -131 -125 -130c-20 0 -52 4 -71 8l5 28h56c63 0 94 31 94 94v567h41z" />
    <glyph glyph-name="Jcircumflex" unicode="&#x134;" horiz-adv-x="328" 
d="M222 888l135 -119l-15 -19l-130 101h-8l-129 -101l-17 19l135 119h29zM232 690v-567c0 -86 -42 -131 -125 -130c-20 0 -52 4 -71 8l5 28h56c63 0 94 31 94 94v567h41z" />
    <glyph glyph-name="K" unicode="K" horiz-adv-x="570" 
d="M492 0l-250 343h-106c2 -29 3 -55 3 -83v-260h-40v690h40v-231c0 -30 -1 -54 -4 -82h108l234 313h47l-223 -300c-9 -13 -19 -22 -27 -29v-2c9 -8 19 -18 28 -30l238 -329h-48z" />
    <glyph glyph-name="Kcommaaccent" unicode="&#x136;" horiz-adv-x="570" 
d="M302 329l238 -329h-48l-250 343h-106c2 -29 3 -55 3 -83v-260h-40v690h40v-231c0 -30 -1 -54 -4 -82h108l234 313h47l-223 -300c-9 -13 -19 -22 -27 -29v-2c9 -8 19 -18 28 -30zM314 -63c11 0 15 -4 15 -15v-57c-1 -37 -8 -84 -21 -120l-17 6c4 36 4 57 4 102
c-5 0 -10 5 -10 13l1 56c-1 11 5 15 16 15h12z" />
    <glyph glyph-name="L" unicode="L" horiz-adv-x="509" 
d="M137 690v-577c0 -47 31 -78 78 -78h266l1 -30c-90 -5 -183 -5 -274 -5c-70 0 -112 46 -112 109v581h41z" />
    <glyph glyph-name="uni01C7" unicode="&#x1c7;" horiz-adv-x="837" 
d="M137 690v-577c0 -47 31 -78 78 -78h266l1 -30c-90 -5 -183 -5 -274 -5c-70 0 -112 46 -112 109v581h41zM741 690v-567c0 -86 -42 -131 -125 -130c-20 0 -52 4 -71 8l5 28h56c63 0 94 31 94 94v567h41z" />
    <glyph glyph-name="Lacute" unicode="&#x139;" horiz-adv-x="509" 
d="M221 906l26 -30l-163 -135l-18 19zM137 690v-577c0 -47 31 -78 78 -78h266l1 -30c-90 -5 -183 -5 -274 -5c-70 0 -112 46 -112 109v581h41z" />
    <glyph glyph-name="Lcaron" unicode="&#x13d;" horiz-adv-x="509" 
d="M307 691c11 0 15 -5 15 -15v-55c-1 -35 -8 -79 -19 -114l-17 5c3 35 5 55 5 98c-7 0 -11 5 -10 12l1 54c-1 10 4 15 14 15h11zM137 690v-577c0 -47 31 -78 78 -78h266l1 -30c-90 -5 -183 -5 -274 -5c-70 0 -112 46 -112 109v581h41z" />
    <glyph glyph-name="Lcommaaccent" unicode="&#x13b;" horiz-adv-x="509" 
d="M137 690v-577c0 -47 31 -78 78 -78h266l1 -30c-90 -5 -183 -5 -274 -5c-70 0 -112 46 -112 109v581h41zM306 -71c11 0 15 -4 15 -15v-57c-1 -37 -8 -84 -21 -120l-17 6c4 36 4 57 4 102c-5 0 -10 5 -10 13l1 56c-1 11 5 15 16 15h12z" />
    <glyph glyph-name="Ldot" unicode="&#x13f;" horiz-adv-x="509" 
d="M137 690v-577c0 -47 31 -78 78 -78h266l1 -30c-90 -5 -183 -5 -274 -5c-70 0 -112 46 -112 109v581h41zM291 -123c-10 0 -16 5 -16 15v61c0 10 6 15 16 15h14c11 0 16 -5 16 -15v-61c0 -10 -5 -15 -16 -15h-14z" />
    <glyph glyph-name="uni1E36" unicode="&#x1e36;" horiz-adv-x="509" 
d="M137 690v-577c0 -47 31 -78 78 -78h266l1 -30c-90 -5 -183 -5 -274 -5c-70 0 -112 46 -112 109v581h41zM306 -61c11 0 16 -5 16 -15v-61c0 -10 -5 -16 -16 -16h-14c-10 0 -16 6 -16 16v61c0 10 6 15 16 15h14z" />
    <glyph glyph-name="uni01C8" unicode="&#x1c8;" horiz-adv-x="737" 
d="M137 690v-577c0 -47 31 -78 78 -78h266l1 -30c-90 -5 -183 -5 -274 -5c-70 0 -112 46 -112 109v581h41zM632 683c10 0 15 -6 15 -16v-60c0 -11 -5 -16 -15 -16h-18c-10 0 -15 5 -15 16v60c0 10 5 16 15 16h18zM643 482v-519c0 -69 -29 -127 -73 -171l-22 17
c35 45 55 89 55 154v519h40z" />
    <glyph glyph-name="uni1E3A" unicode="&#x1e3a;" horiz-adv-x="509" 
d="M137 690v-577c0 -47 31 -78 78 -78h266l1 -30c-90 -5 -183 -5 -274 -5c-70 0 -112 46 -112 109v581h41zM430 -84v-33h-264v33h264z" />
    <glyph glyph-name="Lslash" unicode="&#x141;" horiz-adv-x="513" 
d="M486 35l1 -30c-90 -5 -183 -5 -274 -5c-70 0 -112 46 -112 109v242l-76 -33v30l76 33v309h41v-291l125 54v-29l-125 -55v-256c0 -47 31 -78 78 -78h266z" />
    <glyph glyph-name="M" unicode="M" horiz-adv-x="860" 
d="M726 690c12 0 20 -8 20 -21l30 -669h-41l-29 655h-23l-208 -576c-3 -9 -10 -14 -19 -14h-52c-10 0 -17 5 -20 14l-207 576h-23l-29 -655h-41l29 669c1 13 8 21 21 21h57c10 0 16 -5 19 -14l175 -484c12 -31 22 -62 33 -93h24l33 95l174 482c3 9 10 14 20 14h57z" />
    <glyph glyph-name="uni1E42" unicode="&#x1e42;" horiz-adv-x="860" 
d="M726 690c12 0 20 -8 20 -21l30 -669h-41l-29 655h-23l-208 -576c-3 -9 -10 -14 -19 -14h-52c-10 0 -17 5 -20 14l-207 576h-23l-29 -655h-41l29 669c1 13 8 21 21 21h57c10 0 16 -5 19 -14l175 -484c12 -31 22 -62 33 -93h24l33 95l174 482c3 9 10 14 20 14h57zM438 -61
c11 0 16 -5 16 -15v-61c0 -10 -5 -16 -16 -16h-14c-10 0 -16 6 -16 16v61c0 10 6 15 16 15h14z" />
    <glyph glyph-name="N" unicode="N" horiz-adv-x="692" 
d="M593 690v-670c0 -13 -6 -20 -19 -20h-54c-11 0 -18 5 -23 15l-298 564c-12 23 -26 49 -37 74h-23c1 -25 1 -50 1 -75v-578h-41v670c0 13 7 20 20 20h50c11 0 19 -5 24 -15l290 -551c15 -27 30 -57 45 -86h25c0 32 -1 63 -1 94v558h41z" />
    <glyph glyph-name="uni01CA" unicode="&#x1ca;" horiz-adv-x="1020" 
d="M593 690v-670c0 -13 -6 -20 -19 -20h-54c-11 0 -18 5 -23 15l-298 564c-12 23 -26 49 -37 74h-23c1 -25 1 -50 1 -75v-578h-41v670c0 13 7 20 20 20h50c11 0 19 -5 24 -15l290 -551c15 -27 30 -57 45 -86h25c0 32 -1 63 -1 94v558h41zM924 690v-567
c0 -86 -42 -131 -125 -130c-20 0 -52 4 -71 8l5 28h56c63 0 94 31 94 94v567h41z" />
    <glyph glyph-name="Nacute" unicode="&#x143;" horiz-adv-x="692" 
d="M461 901l26 -30l-163 -135l-18 19zM593 690v-670c0 -13 -6 -20 -19 -20h-54c-11 0 -18 5 -23 15l-298 564c-12 23 -26 49 -37 74h-23c1 -25 1 -50 1 -75v-578h-41v670c0 13 7 20 20 20h50c11 0 19 -5 24 -15l290 -551c15 -27 30 -57 45 -86h25c0 32 -1 63 -1 94v558h41z
" />
    <glyph glyph-name="Ncaron" unicode="&#x147;" horiz-adv-x="692" 
d="M495 887l16 -18l-138 -120h-24l-139 120l18 18l129 -98h8zM593 690v-670c0 -13 -6 -20 -19 -20h-54c-11 0 -18 5 -23 15l-298 564c-12 23 -26 49 -37 74h-23c1 -25 1 -50 1 -75v-578h-41v670c0 13 7 20 20 20h50c11 0 19 -5 24 -15l290 -551c15 -27 30 -57 45 -86h25
c0 32 -1 63 -1 94v558h41z" />
    <glyph glyph-name="Ncommaaccent" unicode="&#x145;" horiz-adv-x="692" 
d="M593 690v-670c0 -13 -6 -20 -19 -20h-54c-11 0 -18 5 -23 15l-298 564c-12 23 -26 49 -37 74h-23c1 -25 1 -50 1 -75v-578h-41v670c0 13 7 20 20 20h50c11 0 19 -5 24 -15l290 -551c15 -27 30 -57 45 -86h25c0 32 -1 63 -1 94v558h41zM339 -63c11 0 15 -4 15 -15v-57
c-1 -37 -8 -84 -21 -120l-17 6c4 36 4 57 4 102c-5 0 -10 5 -10 13l1 56c-1 11 5 15 16 15h12z" />
    <glyph glyph-name="uni1E44" unicode="&#x1e44;" horiz-adv-x="692" 
d="M368 861c10 0 15 -5 15 -15v-61c0 -10 -5 -15 -15 -15h-15c-10 0 -15 5 -15 15v61c0 10 5 15 15 15h15zM593 690v-670c0 -13 -6 -20 -19 -20h-54c-11 0 -18 5 -23 15l-298 564c-12 23 -26 49 -37 74h-23c1 -25 1 -50 1 -75v-578h-41v670c0 13 7 20 20 20h50
c11 0 19 -5 24 -15l290 -551c15 -27 30 -57 45 -86h25c0 32 -1 63 -1 94v558h41z" />
    <glyph glyph-name="uni1E46" unicode="&#x1e46;" horiz-adv-x="692" 
d="M593 690v-670c0 -13 -6 -20 -19 -20h-54c-11 0 -18 5 -23 15l-298 564c-12 23 -26 49 -37 74h-23c1 -25 1 -50 1 -75v-578h-41v670c0 13 7 20 20 20h50c11 0 19 -5 24 -15l290 -551c15 -27 30 -57 45 -86h25c0 32 -1 63 -1 94v558h41zM356 -61c11 0 16 -5 16 -15v-61
c0 -10 -5 -16 -16 -16h-14c-10 0 -16 6 -16 16v61c0 10 6 15 16 15h14z" />
    <glyph glyph-name="Eng" unicode="&#x14a;" horiz-adv-x="692" 
d="M593 690v-785c0 -83 -43 -126 -125 -125c-19 0 -50 3 -70 7l5 26h55c64 0 96 31 96 94v93h-33c-9 0 -16 5 -20 15l-302 560c-12 23 -26 49 -38 74h-22c1 -25 1 -51 1 -76v-573h-41v670c0 13 7 20 20 20h46c11 0 18 -5 24 -15l294 -547c15 -27 30 -57 45 -86h25
c0 31 -1 62 -1 93v555h41z" />
    <glyph glyph-name="uni01CB" unicode="&#x1cb;" horiz-adv-x="920" 
d="M593 690v-670c0 -13 -6 -20 -19 -20h-54c-11 0 -18 5 -23 15l-298 564c-12 23 -26 49 -37 74h-23c1 -25 1 -50 1 -75v-578h-41v670c0 13 7 20 20 20h50c11 0 19 -5 24 -15l290 -551c15 -27 30 -57 45 -86h25c0 32 -1 63 -1 94v558h41zM815 683c10 0 15 -6 15 -16v-60
c0 -11 -5 -16 -15 -16h-18c-10 0 -15 5 -15 16v60c0 10 5 16 15 16h18zM826 482v-519c0 -69 -29 -127 -73 -171l-22 17c35 45 55 89 55 154v519h40z" />
    <glyph glyph-name="uni1E48" unicode="&#x1e48;" horiz-adv-x="692" 
d="M593 690v-670c0 -13 -6 -20 -19 -20h-54c-11 0 -18 5 -23 15l-298 564c-12 23 -26 49 -37 74h-23c1 -25 1 -50 1 -75v-578h-41v670c0 13 7 20 20 20h50c11 0 19 -5 24 -15l290 -551c15 -27 30 -57 45 -86h25c0 32 -1 63 -1 94v558h41zM480 -84v-33h-264v33h264z" />
    <glyph glyph-name="Ntilde" unicode="&#xd1;" horiz-adv-x="692" 
d="M287 869c60 -5 84 -60 142 -65c41 -3 56 15 56 60h23c4 -62 -28 -96 -76 -92c-67 6 -93 60 -143 65c-40 4 -55 -17 -55 -63h-23c-3 66 28 99 76 95zM593 690v-670c0 -13 -6 -20 -19 -20h-54c-11 0 -18 5 -23 15l-298 564c-12 23 -26 49 -37 74h-23c1 -25 1 -50 1 -75
v-578h-41v670c0 13 7 20 20 20h50c11 0 19 -5 24 -15l290 -551c15 -27 30 -57 45 -86h25c0 32 -1 63 -1 94v558h41z" />
    <glyph glyph-name="O" unicode="O" 
d="M332 702c192 0 259 -92 259 -357s-67 -357 -259 -357s-260 92 -260 357s68 357 260 357zM332 665c-161 0 -217 -82 -217 -320s56 -320 217 -320s216 82 216 320s-55 320 -216 320z" />
    <glyph glyph-name="Oacute" unicode="&#xd3;" 
d="M434 901l26 -30l-163 -135l-18 19zM332 702c192 0 259 -92 259 -357s-67 -357 -259 -357s-260 92 -260 357s68 357 260 357zM332 665c-161 0 -217 -82 -217 -320s56 -320 217 -320s216 82 216 320s-55 320 -216 320z" />
    <glyph glyph-name="Obreve" unicode="&#x14e;" 
d="M447 875l25 -4c1 -73 -52 -119 -139 -119s-142 46 -140 119l24 4c0 -56 44 -89 116 -89c70 0 114 33 114 89zM332 702c192 0 259 -92 259 -357s-67 -357 -259 -357s-260 92 -260 357s68 357 260 357zM332 665c-161 0 -217 -82 -217 -320s56 -320 217 -320s216 82 216 320
s-55 320 -216 320z" />
    <glyph glyph-name="Ocircumflex" unicode="&#xd4;" 
d="M346 883l135 -119l-15 -19l-130 101h-8l-129 -101l-17 19l135 119h29zM332 702c192 0 259 -92 259 -357s-67 -357 -259 -357s-260 92 -260 357s68 357 260 357zM332 665c-161 0 -217 -82 -217 -320s56 -320 217 -320s216 82 216 320s-55 320 -216 320z" />
    <glyph glyph-name="uni1ED0" unicode="&#x1ed0;" 
d="M436 845l-17 17l103 107l26 -26zM206 755l-16 18l127 106h29l127 -106l-15 -18l-122 89h-8zM332 702c192 0 259 -92 259 -357s-67 -357 -259 -357s-260 92 -260 357s68 357 260 357zM332 665c-161 0 -217 -82 -217 -320s56 -320 217 -320s216 82 216 320
s-55 320 -216 320z" />
    <glyph glyph-name="uni1ED8" unicode="&#x1ed8;" 
d="M347 884l135 -119l-16 -19l-130 101h-8l-129 -101l-17 19l135 119h30zM332 702c192 0 259 -92 259 -357s-67 -357 -259 -357s-260 92 -260 357s68 357 260 357zM332 665c-161 0 -217 -82 -217 -320s56 -320 217 -320s216 82 216 320s-55 320 -216 320zM339 -61
c11 0 16 -5 16 -15v-61c0 -10 -5 -16 -16 -16h-14c-10 0 -16 6 -16 16v61c0 10 6 15 16 15h14z" />
    <glyph glyph-name="uni1ED2" unicode="&#x1ed2;" 
d="M142 969l102 -107l-17 -17l-111 98zM332 879l38 -22l96 -93l-32 6l-100 74l-30 -16l-105 -65l15 31zM332 702c192 0 259 -92 259 -357s-67 -357 -259 -357s-260 92 -260 357s68 357 260 357zM332 665c-161 0 -217 -82 -217 -320s56 -320 217 -320s216 82 216 320
s-55 320 -216 320z" />
    <glyph glyph-name="uni1ED4" unicode="&#x1ed4;" 
d="M430 857c41 14 60 38 60 66c0 35 -31 45 -84 31l-5 22c70 21 117 3 117 -52c0 -37 -27 -73 -83 -85zM317 879h29l127 -106l-15 -18l-122 89h-8l-123 -89l-15 18zM332 702c192 0 259 -92 259 -357s-67 -357 -259 -357s-260 92 -260 357s68 357 260 357zM332 665
c-161 0 -217 -82 -217 -320s56 -320 217 -320s216 82 216 320s-55 320 -216 320z" />
    <glyph glyph-name="uni1ED6" unicode="&#x1ed6;" 
d="M399 897c-65 6 -79 57 -127 62c-38 4 -52 -16 -52 -61h-22c-4 63 27 95 72 91c58 -5 70 -57 126 -62c38 -3 53 15 53 57h21c4 -59 -26 -91 -71 -87zM205 755l-15 18l127 106h29l127 -106l-15 -18l-122 89h-8zM332 702c192 0 259 -92 259 -357s-67 -357 -259 -357
s-260 92 -260 357s68 357 260 357zM332 665c-161 0 -217 -82 -217 -320s56 -320 217 -320s216 82 216 320s-55 320 -216 320z" />
    <glyph glyph-name="uni020C" unicode="&#x20c;" 
d="M180 909l110 -162l-21 -14l-122 154zM326 909l111 -162l-22 -14l-121 154zM332 702c192 0 259 -92 259 -357s-67 -357 -259 -357s-260 92 -260 357s68 357 260 357zM332 665c-161 0 -217 -82 -217 -320s56 -320 217 -320s216 82 216 320s-55 320 -216 320z" />
    <glyph glyph-name="Odieresis" unicode="&#xd6;" 
d="M251 859c9 0 14 -5 14 -14v-56c0 -9 -5 -14 -14 -14h-15c-9 0 -13 5 -13 14v56c0 9 4 14 13 14h15zM428 859c9 0 14 -5 14 -14v-56c0 -9 -5 -14 -14 -14h-15c-9 0 -13 5 -13 14v56c0 9 4 14 13 14h15zM332 702c192 0 259 -92 259 -357s-67 -357 -259 -357
s-260 92 -260 357s68 357 260 357zM332 665c-161 0 -217 -82 -217 -320s56 -320 217 -320s216 82 216 320s-55 320 -216 320z" />
    <glyph glyph-name="uni022A" unicode="&#x22a;" 
d="M212 940h241v-30h-241v30zM259 851c8 0 12 -4 12 -13v-50c0 -9 -4 -13 -12 -13h-14c-9 0 -13 4 -13 13v50c0 9 4 13 13 13h14zM420 851c8 0 12 -4 12 -13v-50c0 -9 -4 -13 -12 -13h-14c-9 0 -13 4 -13 13v50c0 9 4 13 13 13h14zM332 702c192 0 259 -92 259 -357
s-67 -357 -259 -357s-260 92 -260 357s68 357 260 357zM332 665c-161 0 -217 -82 -217 -320s56 -320 217 -320s216 82 216 320s-55 320 -216 320z" />
    <glyph glyph-name="uni0230" unicode="&#x230;" 
d="M404 940l49 -17l-192 -13l-49 17zM339 854c9 0 13 -5 13 -14v-55c0 -10 -4 -15 -13 -15h-14c-9 0 -14 5 -14 15v55c0 9 5 14 14 14h14zM332 702c192 0 259 -92 259 -357s-67 -357 -259 -357s-260 92 -260 357s68 357 260 357zM332 665c-161 0 -217 -82 -217 -320
s56 -320 217 -320s216 82 216 320s-55 320 -216 320z" />
    <glyph glyph-name="uni1ECC" unicode="&#x1ecc;" 
d="M332 702c192 0 259 -92 259 -357s-67 -357 -259 -357s-260 92 -260 357s68 357 260 357zM332 665c-161 0 -217 -82 -217 -320s56 -320 217 -320s216 82 216 320s-55 320 -216 320zM339 -61c11 0 16 -5 16 -15v-61c0 -10 -5 -16 -16 -16h-14c-11 0 -16 6 -16 16v61
c0 10 5 15 16 15h14z" />
    <glyph glyph-name="Ograve" unicode="&#xd2;" 
d="M221 899l155 -145l-18 -20l-163 136zM332 702c192 0 259 -92 259 -357s-67 -357 -259 -357s-260 92 -260 357s68 357 260 357zM332 665c-161 0 -217 -82 -217 -320s56 -320 217 -320s216 82 216 320s-55 320 -216 320z" />
    <glyph glyph-name="uni1ECE" unicode="&#x1ece;" 
d="M319 763c48 16 67 46 67 80c0 44 -35 58 -92 47l-6 23c77 20 129 -3 129 -68c0 -46 -29 -88 -91 -103zM332 702c192 0 259 -92 259 -357s-67 -357 -259 -357s-260 92 -260 357s68 357 260 357zM332 665c-161 0 -217 -82 -217 -320s56 -320 217 -320s216 82 216 320
s-55 320 -216 320z" />
    <glyph glyph-name="Ohorn" unicode="&#x1a0;" 
d="M646 719c-3 -62 -45 -108 -97 -121c30 -57 42 -139 42 -253c0 -265 -67 -357 -259 -357s-260 92 -260 357c0 264 69 357 260 357c98 0 163 -24 204 -82c45 11 72 50 76 104zM332 25c161 0 216 82 216 320s-55 320 -216 320s-217 -82 -217 -320s56 -320 217 -320z" />
    <glyph glyph-name="uni1EDA" unicode="&#x1eda;" 
d="M460 871l-163 -135l-18 19l155 146zM646 719c-3 -62 -45 -108 -97 -121c30 -57 42 -139 42 -253c0 -265 -67 -357 -259 -357s-260 92 -260 357c0 264 69 357 260 357c98 0 163 -24 204 -82c45 11 72 50 76 104zM332 25c161 0 216 82 216 320s-55 320 -216 320
s-217 -82 -217 -320s56 -320 217 -320z" />
    <glyph glyph-name="uni1EE2" unicode="&#x1ee2;" 
d="M646 719c-3 -62 -45 -108 -97 -121c30 -57 42 -139 42 -253c0 -265 -67 -357 -259 -357s-260 92 -260 357c0 264 69 357 260 357c98 0 163 -24 204 -82c45 11 72 50 76 104zM332 25c161 0 216 82 216 320s-55 320 -216 320s-217 -82 -217 -320s56 -320 217 -320zM339 -61
c11 0 16 -5 16 -15v-61c0 -10 -5 -16 -16 -16h-14c-10 0 -16 6 -16 16v61c0 10 6 15 16 15h14z" />
    <glyph glyph-name="uni1EDC" unicode="&#x1edc;" 
d="M376 754l-18 -20l-163 136l26 29zM646 719c-3 -62 -45 -108 -97 -121c30 -57 42 -139 42 -253c0 -265 -67 -357 -259 -357s-260 92 -260 357c0 264 69 357 260 357c98 0 163 -24 204 -82c45 11 72 50 76 104zM332 25c161 0 216 82 216 320s-55 320 -216 320
s-217 -82 -217 -320s56 -320 217 -320z" />
    <glyph glyph-name="uni1EDE" unicode="&#x1ede;" 
d="M386 843c0 44 -35 58 -92 47l-6 23c77 20 129 -3 129 -68c0 -46 -29 -88 -91 -103l-7 21c48 16 67 46 67 80zM646 719c-3 -62 -45 -108 -97 -121c30 -57 42 -139 42 -253c0 -265 -67 -357 -259 -357s-260 92 -260 357c0 264 69 357 260 357c98 0 163 -24 204 -82
c45 11 72 50 76 104zM332 25c161 0 216 82 216 320s-55 320 -216 320s-217 -82 -217 -320s56 -320 217 -320z" />
    <glyph glyph-name="uni1EE0" unicode="&#x1ee0;" 
d="M208 774h-23c-4 66 28 99 76 95c59 -5 84 -60 142 -65c40 -3 56 15 56 60h22c4 -62 -27 -96 -75 -92c-68 6 -93 60 -143 65c-40 4 -55 -17 -55 -63zM646 719c-3 -62 -45 -108 -97 -121c30 -57 42 -139 42 -253c0 -265 -67 -357 -259 -357s-260 92 -260 357
c0 264 69 357 260 357c98 0 163 -24 204 -82c45 11 72 50 76 104zM332 25c161 0 216 82 216 320s-55 320 -216 320s-217 -82 -217 -320s56 -320 217 -320z" />
    <glyph glyph-name="Ohungarumlaut" unicode="&#x150;" 
d="M336 909l32 -22l-121 -154l-22 14zM482 909l32 -22l-121 -154l-22 14zM332 702c192 0 259 -92 259 -357s-67 -357 -259 -357s-260 92 -260 357s68 357 260 357zM332 665c-161 0 -217 -82 -217 -320s56 -320 217 -320s216 82 216 320s-55 320 -216 320z" />
    <glyph glyph-name="uni020E" unicode="&#x20e;" 
d="M216 754l-24 5c-1 73 52 118 138 118c88 0 142 -45 141 -118l-25 -5c0 57 -43 89 -116 89c-69 0 -114 -32 -114 -89zM332 702c192 0 259 -92 259 -357s-67 -357 -259 -357s-260 92 -260 357s68 357 260 357zM332 665c-161 0 -217 -82 -217 -320s56 -320 217 -320
s216 82 216 320s-55 320 -216 320z" />
    <glyph glyph-name="Omacron" unicode="&#x14c;" 
d="M465 832v-33h-264v33h264zM332 702c192 0 259 -92 259 -357s-67 -357 -259 -357s-260 92 -260 357s68 357 260 357zM332 665c-161 0 -217 -82 -217 -320s56 -320 217 -320s216 82 216 320s-55 320 -216 320z" />
    <glyph glyph-name="uni1E52" unicode="&#x1e52;" 
d="M388 973l25 -27l-113 -96l-17 18zM465 818v-33h-264v33h264zM332 702c192 0 259 -92 259 -357s-67 -357 -259 -357s-260 92 -260 357s68 357 260 357zM332 665c-161 0 -217 -82 -217 -320s56 -320 217 -320s216 82 216 320s-55 320 -216 320z" />
    <glyph glyph-name="uni1E50" unicode="&#x1e50;" 
d="M278 973l105 -105l-17 -18l-113 96zM201 818h264v-33h-264v33zM332 702c192 0 259 -92 259 -357s-67 -357 -259 -357s-260 92 -260 357s68 357 260 357zM332 665c-161 0 -217 -82 -217 -320s56 -320 217 -320s216 82 216 320s-55 320 -216 320z" />
    <glyph glyph-name="uni01EA" unicode="&#x1ea;" 
d="M353 -12c-31 -32 -57 -67 -73 -111c-22 -59 17 -78 89 -53l5 -18c-109 -49 -150 4 -126 72c11 31 33 68 77 110c-187 2 -253 95 -253 357c0 265 68 357 260 357s259 -92 259 -357c0 -255 -62 -350 -238 -357zM115 345c0 -238 56 -320 217 -320s216 82 216 320
s-55 320 -216 320s-217 -82 -217 -320z" />
    <glyph glyph-name="Oslash" unicode="&#xd8;" 
d="M491 664c72 -48 100 -147 100 -319c0 -265 -67 -357 -259 -357c-60 0 -108 9 -145 29l-33 -70l-27 13l35 74c-64 51 -90 148 -90 311c0 265 68 357 260 357c53 0 97 -7 132 -23l30 64l28 -12zM115 345c0 -138 19 -223 66 -271l266 568c-30 16 -68 23 -115 23
c-161 0 -217 -82 -217 -320zM332 25c161 0 216 82 216 320c0 148 -21 235 -76 280l-267 -570c32 -21 74 -30 127 -30z" />
    <glyph glyph-name="Oslashacute" unicode="&#x1fe;" 
d="M461 870l-163 -136l-18 20l155 145zM491 664c72 -48 100 -147 100 -319c0 -265 -67 -357 -259 -357c-60 0 -108 9 -145 29l-33 -70l-27 13l35 74c-64 51 -90 148 -90 311c0 265 68 357 260 357c53 0 97 -7 132 -23l30 64l28 -12zM115 345c0 -138 19 -223 66 -271l266 568
c-30 16 -68 23 -115 23c-161 0 -217 -82 -217 -320zM332 25c161 0 216 82 216 320c0 148 -21 235 -76 280l-267 -570c32 -21 74 -30 127 -30z" />
    <glyph glyph-name="Otilde" unicode="&#xd5;" 
d="M260 869c60 -5 84 -60 142 -65c41 -3 56 15 56 60h23c4 -62 -28 -96 -76 -92c-67 6 -93 60 -143 65c-40 4 -55 -17 -55 -63h-23c-3 66 28 99 76 95zM332 702c192 0 259 -92 259 -357s-67 -357 -259 -357s-260 92 -260 357s68 357 260 357zM332 665
c-161 0 -217 -82 -217 -320s56 -320 217 -320s216 82 216 320s-55 320 -216 320z" />
    <glyph glyph-name="uni1E4C" unicode="&#x1e4c;" 
d="M390 1003l25 -27l-113 -96l-17 18zM260 857c60 -5 84 -60 142 -65c41 -3 56 15 56 60h23c4 -63 -28 -96 -76 -92c-67 6 -93 60 -143 65c-40 4 -55 -17 -55 -64h-23c-3 66 28 100 76 96zM332 702c192 0 259 -92 259 -357s-67 -357 -259 -357s-260 92 -260 357
s68 357 260 357zM332 665c-161 0 -217 -82 -217 -320s56 -320 217 -320s216 82 216 320s-55 320 -216 320z" />
    <glyph glyph-name="uni1E4E" unicode="&#x1e4e;" 
d="M246 982h13c8 0 12 -4 12 -13v-50c0 -9 -4 -13 -12 -13h-13c-9 0 -14 4 -14 13v50c0 9 5 13 14 13zM406 982h14c8 0 12 -4 12 -13v-50c0 -9 -4 -13 -12 -13h-14c-9 0 -12 4 -12 13v50c0 9 3 13 12 13zM260 857c60 -5 84 -60 142 -65c41 -3 56 15 56 60h23
c4 -63 -28 -96 -76 -92c-67 6 -93 60 -143 65c-40 4 -55 -17 -55 -64h-23c-3 66 28 100 76 96zM332 702c192 0 259 -92 259 -357s-67 -357 -259 -357s-260 92 -260 357s68 357 260 357zM332 665c-161 0 -217 -82 -217 -320s56 -320 217 -320s216 82 216 320
s-55 320 -216 320z" />
    <glyph glyph-name="uni022C" unicode="&#x22c;" 
d="M212 913v31h241v-31h-241zM405 760c-67 6 -93 60 -143 65c-40 4 -55 -17 -55 -64h-23c-3 66 28 100 76 96c60 -5 84 -60 142 -65c41 -3 56 15 56 60h23c4 -63 -28 -96 -76 -92zM332 702c192 0 259 -92 259 -357s-67 -357 -259 -357s-260 92 -260 357s68 357 260 357z
M332 665c-161 0 -217 -82 -217 -320s56 -320 217 -320s216 82 216 320s-55 320 -216 320z" />
    <glyph glyph-name="OE" unicode="&#x152;" horiz-adv-x="895" 
d="M572 35h266l1 -31c-92 -4 -186 -4 -280 -4c-25 0 -47 8 -65 21c-55 -24 -92 -33 -162 -33c-192 0 -260 92 -260 357s68 357 260 357c70 0 105 -9 163 -33c18 13 41 21 66 21c93 0 186 0 278 -4l-1 -31h-266c-47 0 -78 -31 -78 -78v-191l302 -1v-33l-302 -1v-238
c0 -47 31 -78 78 -78zM115 345c0 -238 56 -320 217 -320c61 0 92 8 137 24c-10 17 -16 37 -16 60v472c0 23 6 43 16 60c-44 16 -76 24 -137 24c-161 0 -217 -79 -217 -320z" />
    <glyph glyph-name="P" unicode="P" horiz-adv-x="583" 
d="M324 698c151 0 205 -45 205 -206c0 -163 -54 -206 -202 -206c-79 0 -147 3 -187 6v-292h-41v690c71 7 120 8 225 8zM324 322c120 2 163 35 163 170s-43 170 -163 170c-79 0 -145 -1 -184 -2v-338h184z" />
    <glyph glyph-name="Thorn" unicode="&#xde;" horiz-adv-x="585" 
d="M324 558c151 0 205 -45 205 -207c0 -163 -54 -207 -202 -207c-79 0 -147 3 -187 7v-151h-41v690h41v-136c52 3 100 4 184 4zM324 181c120 2 163 35 163 170c0 136 -43 171 -163 171c-79 0 -145 -1 -184 -2v-339h184z" />
    <glyph glyph-name="Q" unicode="Q" 
d="M332 702c192 0 259 -92 259 -357s-67 -357 -259 -357s-260 92 -260 357s68 357 260 357zM332 665c-161 0 -216 -82 -216 -320s55 -320 216 -320s216 82 216 320s-55 320 -216 320zM297 -49c66 -41 140 -66 235 -81l-13 -41c-92 14 -175 51 -237 98z" />
    <glyph glyph-name="R" unicode="R" horiz-adv-x="610" 
d="M481 220l73 -220h-45l-70 217c-22 64 -57 87 -108 87c-86 0 -152 2 -191 3v-307h-41v690c71 7 120 8 225 8c150 0 205 -42 205 -195c0 -122 -38 -170 -127 -182v-5c35 -10 63 -47 79 -96zM324 341c120 2 163 35 163 161c0 127 -43 160 -163 160c-80 0 -146 -1 -184 -2
v-319h184z" />
    <glyph glyph-name="Racute" unicode="&#x154;" horiz-adv-x="610" 
d="M430 871l-163 -135l-18 19l155 146zM481 220l73 -220h-45l-70 217c-22 64 -57 87 -108 87c-86 0 -152 2 -191 3v-307h-41v690c71 7 120 8 225 8c150 0 205 -42 205 -195c0 -122 -38 -170 -127 -182v-5c35 -10 63 -47 79 -96zM324 341c120 2 163 35 163 161
c0 127 -43 160 -163 160c-80 0 -146 -1 -184 -2v-319h184z" />
    <glyph glyph-name="Rcaron" unicode="&#x158;" horiz-adv-x="610" 
d="M316 749h-24l-139 120l18 18l129 -98h8l130 98l16 -18zM481 220l73 -220h-45l-70 217c-22 64 -57 87 -108 87c-86 0 -152 2 -191 3v-307h-41v690c71 7 120 8 225 8c150 0 205 -42 205 -195c0 -122 -38 -170 -127 -182v-5c35 -10 63 -47 79 -96zM324 341
c120 2 163 35 163 161c0 127 -43 160 -163 160c-80 0 -146 -1 -184 -2v-319h184z" />
    <glyph glyph-name="Rcommaaccent" unicode="&#x156;" horiz-adv-x="610" 
d="M481 220l73 -220h-45l-70 217c-22 64 -57 87 -108 87c-86 0 -152 2 -191 3v-307h-41v690c71 7 120 8 225 8c150 0 205 -42 205 -195c0 -122 -38 -170 -127 -182v-5c35 -10 63 -47 79 -96zM324 341c120 2 163 35 163 161c0 127 -43 160 -163 160c-80 0 -146 -1 -184 -2
v-319h184zM335 -63c11 0 15 -4 15 -15v-57c-1 -37 -8 -84 -21 -120l-17 6c4 36 4 57 4 102c-5 0 -10 5 -10 13l1 56c-1 11 5 15 16 15h12z" />
    <glyph glyph-name="uni0210" unicode="&#x210;" horiz-adv-x="610" 
d="M260 747l-21 -14l-122 154l33 22zM407 747l-22 -14l-121 154l32 22zM481 220l73 -220h-45l-70 217c-22 64 -57 87 -108 87c-86 0 -152 2 -191 3v-307h-41v690c71 7 120 8 225 8c150 0 205 -42 205 -195c0 -122 -38 -170 -127 -182v-5c35 -10 63 -47 79 -96zM324 341
c120 2 163 35 163 161c0 127 -43 160 -163 160c-80 0 -146 -1 -184 -2v-319h184z" />
    <glyph glyph-name="uni1E5A" unicode="&#x1e5a;" horiz-adv-x="610" 
d="M481 220l73 -220h-45l-70 217c-22 64 -57 87 -108 87c-86 0 -152 2 -191 3v-307h-41v690c71 7 120 8 225 8c150 0 205 -42 205 -195c0 -122 -38 -170 -127 -182v-5c35 -10 63 -47 79 -96zM324 341c120 2 163 35 163 161c0 127 -43 160 -163 160c-80 0 -146 -1 -184 -2
v-319h184zM313 -61c11 0 16 -5 16 -15v-61c0 -10 -5 -16 -16 -16h-14c-10 0 -16 6 -16 16v61c0 10 6 15 16 15h14z" />
    <glyph glyph-name="uni0212" unicode="&#x212;" horiz-adv-x="610" 
d="M186 754l-24 5c-1 73 52 118 138 118c88 0 142 -45 141 -118l-25 -5c0 57 -43 89 -116 89c-69 0 -114 -32 -114 -89zM481 220l73 -220h-45l-70 217c-22 64 -57 87 -108 87c-86 0 -152 2 -191 3v-307h-41v690c71 7 120 8 225 8c150 0 205 -42 205 -195
c0 -122 -38 -170 -127 -182v-5c35 -10 63 -47 79 -96zM324 341c120 2 163 35 163 161c0 127 -43 160 -163 160c-80 0 -146 -1 -184 -2v-319h184z" />
    <glyph glyph-name="uni1E5E" unicode="&#x1e5e;" horiz-adv-x="610" 
d="M481 220l73 -220h-45l-70 217c-22 64 -57 87 -108 87c-86 0 -152 2 -191 3v-307h-41v690c71 7 120 8 225 8c150 0 205 -42 205 -195c0 -122 -38 -170 -127 -182v-5c35 -10 63 -47 79 -96zM324 341c120 2 163 35 163 161c0 127 -43 160 -163 160c-80 0 -146 -1 -184 -2
v-319h184zM173 -117v33h264v-33h-264z" />
    <glyph glyph-name="S" unicode="S" horiz-adv-x="556" 
d="M275 701c64 -1 130 -5 192 -14l-4 -30c-59 3 -124 7 -187 7c-120 0 -171 -3 -171 -142c0 -94 29 -130 103 -142l150 -25c102 -15 139 -67 139 -184c0 -163 -74 -182 -216 -182c-52 0 -119 1 -206 13l3 31c86 -6 134 -8 205 -7c126 2 172 19 172 145
c0 102 -30 134 -107 146l-150 25c-98 15 -135 71 -135 181c0 165 69 180 212 178z" />
    <glyph glyph-name="Sacute" unicode="&#x15a;" horiz-adv-x="556" 
d="M382 901l26 -30l-163 -135l-18 19zM275 701c64 -1 130 -5 192 -14l-4 -30c-59 3 -124 7 -187 7c-120 0 -171 -3 -171 -142c0 -94 29 -130 103 -142l150 -25c102 -15 139 -67 139 -184c0 -163 -74 -182 -216 -182c-52 0 -119 1 -206 13l3 31c86 -6 134 -8 205 -7
c126 2 172 19 172 145c0 102 -30 134 -107 146l-150 25c-98 15 -135 71 -135 181c0 165 69 180 212 178z" />
    <glyph glyph-name="uni1E64" unicode="&#x1e64;" horiz-adv-x="556" 
d="M288 987c9 0 14 -5 14 -14v-55c0 -10 -5 -15 -14 -15h-14c-9 0 -13 5 -13 15v55c0 9 4 14 13 14h14zM337 883l25 -28l-143 -116l-16 18zM275 701c64 -1 130 -5 192 -14l-4 -30c-59 3 -124 7 -187 7c-120 0 -171 -3 -171 -142c0 -94 29 -130 103 -142l150 -25
c102 -15 139 -67 139 -184c0 -163 -74 -182 -216 -182c-52 0 -119 1 -206 13l3 31c86 -6 134 -8 205 -7c126 2 172 19 172 145c0 102 -30 134 -107 146l-150 25c-98 15 -135 71 -135 181c0 165 69 180 212 178z" />
    <glyph glyph-name="Scaron" unicode="&#x160;" horiz-adv-x="556" 
d="M416 887l16 -18l-138 -120h-24l-139 120l18 18l129 -98h8zM275 701c64 -1 130 -5 192 -14l-4 -30c-59 3 -124 7 -187 7c-120 0 -171 -3 -171 -142c0 -94 29 -130 103 -142l150 -25c102 -15 139 -67 139 -184c0 -163 -74 -182 -216 -182c-52 0 -119 1 -206 13l3 31
c86 -6 134 -8 205 -7c126 2 172 19 172 145c0 102 -30 134 -107 146l-150 25c-98 15 -135 71 -135 181c0 165 69 180 212 178z" />
    <glyph glyph-name="uni1E66" unicode="&#x1e66;" horiz-adv-x="556" 
d="M286 991c9 0 14 -5 14 -14v-55c0 -9 -5 -14 -14 -14h-14c-9 0 -13 5 -13 14v55c0 9 4 14 13 14h14zM403 885l17 -18l-126 -110h-24l-126 110l17 18l117 -88h8zM275 701c64 -1 130 -5 192 -14l-4 -30c-59 3 -124 7 -187 7c-120 0 -171 -3 -171 -142
c0 -94 29 -130 103 -142l150 -25c102 -15 139 -67 139 -184c0 -163 -74 -182 -216 -182c-52 0 -119 1 -206 13l3 31c86 -6 134 -8 205 -7c126 2 172 19 172 145c0 102 -30 134 -107 146l-150 25c-98 15 -135 71 -135 181c0 165 69 180 212 178z" />
    <glyph glyph-name="Scedilla" unicode="&#x15e;" horiz-adv-x="556" 
d="M275 701c64 -1 130 -5 192 -14l-4 -30c-59 3 -124 7 -187 7c-120 0 -171 -3 -171 -142c0 -94 29 -130 103 -142l150 -25c102 -15 139 -67 139 -184c0 -163 -74 -182 -216 -182c-52 0 -119 1 -206 13l3 31c86 -6 134 -8 205 -7c126 2 172 19 172 145
c0 102 -30 134 -107 146l-150 25c-98 15 -135 71 -135 181c0 165 69 180 212 178zM250 -58c57 4 87 -14 86 -65c-1 -72 -58 -121 -146 -110l6 23c67 -3 108 37 108 85c0 33 -14 45 -59 46z" />
    <glyph glyph-name="Scircumflex" unicode="&#x15c;" horiz-adv-x="556" 
d="M294 883l135 -119l-15 -19l-130 101h-8l-129 -101l-17 19l135 119h29zM275 701c64 -1 130 -5 192 -14l-4 -30c-59 3 -124 7 -187 7c-120 0 -171 -3 -171 -142c0 -94 29 -130 103 -142l150 -25c102 -15 139 -67 139 -184c0 -163 -74 -182 -216 -182c-52 0 -119 1 -206 13
l3 31c86 -6 134 -8 205 -7c126 2 172 19 172 145c0 102 -30 134 -107 146l-150 25c-98 15 -135 71 -135 181c0 165 69 180 212 178z" />
    <glyph glyph-name="Scommaaccent" unicode="&#x218;" horiz-adv-x="556" 
d="M275 701c64 -1 130 -5 192 -14l-4 -30c-59 3 -124 7 -187 7c-120 0 -171 -3 -171 -142c0 -94 29 -130 103 -142l150 -25c102 -15 139 -67 139 -184c0 -163 -74 -182 -216 -182c-52 0 -119 1 -206 13l3 31c86 -6 134 -8 205 -7c126 2 172 19 172 145
c0 102 -30 134 -107 146l-150 25c-98 15 -135 71 -135 181c0 165 69 180 212 178zM297 -63c11 0 15 -4 15 -15v-57c-1 -37 -8 -84 -21 -120l-17 6c4 36 4 57 4 102c-5 0 -10 5 -10 13l1 56c-1 11 5 15 16 15h12z" />
    <glyph glyph-name="uni1E60" unicode="&#x1e60;" horiz-adv-x="556" 
d="M289 861c10 0 15 -5 15 -15v-61c0 -10 -5 -15 -15 -15h-15c-10 0 -15 5 -15 15v61c0 10 5 15 15 15h15zM275 701c64 -1 130 -5 192 -14l-4 -30c-59 3 -124 7 -187 7c-120 0 -171 -3 -171 -142c0 -94 29 -130 103 -142l150 -25c102 -15 139 -67 139 -184
c0 -163 -74 -182 -216 -182c-52 0 -119 1 -206 13l3 31c86 -6 134 -8 205 -7c126 2 172 19 172 145c0 102 -30 134 -107 146l-150 25c-98 15 -135 71 -135 181c0 165 69 180 212 178z" />
    <glyph glyph-name="uni1E62" unicode="&#x1e62;" horiz-adv-x="556" 
d="M275 701c64 -1 130 -5 192 -14l-4 -30c-59 3 -124 7 -187 7c-120 0 -171 -3 -171 -142c0 -94 29 -130 103 -142l150 -25c102 -15 139 -67 139 -184c0 -163 -74 -182 -216 -182c-52 0 -119 1 -206 13l3 31c86 -6 134 -8 205 -7c126 2 172 19 172 145
c0 102 -30 134 -107 146l-150 25c-98 15 -135 71 -135 181c0 165 69 180 212 178zM290 -72c11 0 16 -5 16 -15v-61c0 -10 -5 -16 -16 -16h-14c-10 0 -16 6 -16 16v61c0 10 6 15 16 15h14z" />
    <glyph glyph-name="uni1E68" unicode="&#x1e68;" horiz-adv-x="556" 
d="M289 861c10 0 15 -5 15 -15v-61c0 -10 -5 -15 -15 -15h-15c-10 0 -15 5 -15 15v61c0 10 5 15 15 15h15zM275 701c64 -1 130 -5 192 -14l-4 -30c-59 3 -124 7 -187 7c-120 0 -171 -3 -171 -142c0 -94 29 -130 103 -142l150 -25c102 -15 139 -67 139 -184
c0 -163 -74 -182 -216 -182c-52 0 -119 1 -206 13l3 31c86 -6 134 -8 205 -7c126 2 172 19 172 145c0 102 -30 134 -107 146l-150 25c-98 15 -135 71 -135 181c0 165 69 180 212 178zM290 -72c11 0 16 -5 16 -15v-61c0 -10 -5 -16 -16 -16h-14c-10 0 -16 6 -16 16v61
c0 10 6 15 16 15h14z" />
    <glyph glyph-name="uni1E9E" unicode="&#x1e9e;" horiz-adv-x="614" 
d="M587 195c2 -139 -51 -207 -209 -207c-63 0 -124 8 -179 17l6 32c49 -6 105 -12 166 -12c124 0 175 45 175 168c0 81 -27 152 -162 153l-100 1v29l196 279h-265c-47 0 -78 -31 -78 -78v-577h-41v583c0 64 45 107 110 107c96 0 227 0 322 -5l-3 -30l-175 -247
c-9 -12 -19 -23 -26 -28v-3l71 3c106 3 189 -44 192 -185z" />
    <glyph glyph-name="uni018F" unicode="&#x18f;" horiz-adv-x="626" 
d="M304 702c197 0 250 -123 250 -360c0 -245 -57 -354 -252 -354c-165 0 -233 86 -235 200c-2 118 50 182 160 182h284c-5 200 -54 293 -211 293c-80 0 -155 -9 -212 -17l-6 28c59 16 147 28 222 28zM299 25c167 0 211 99 212 307h-289c-79 0 -115 -56 -113 -143
c3 -96 57 -164 190 -164z" />
    <glyph glyph-name="T" unicode="T" horiz-adv-x="568" 
d="M542 690v-36h-238v-654h-41v654h-237v36h516z" />
    <glyph glyph-name="Tbar" unicode="&#x166;" horiz-adv-x="568" 
d="M542 654h-238v-250h147v-28h-147v-376h-41v376h-151v28h151v250h-237v36h516v-36z" />
    <glyph glyph-name="Tcaron" unicode="&#x164;" horiz-adv-x="568" 
d="M298 749h-24l-139 120l18 18l129 -98h8l130 98l16 -18zM542 690v-36h-238v-654h-41v654h-237v36h516z" />
    <glyph glyph-name="uni0162" unicode="&#x162;" horiz-adv-x="568" 
d="M542 690v-36h-238v-654h-41v654h-237v36h516zM252 -47c57 4 87 -14 86 -65c-1 -72 -58 -121 -146 -110l6 23c67 -3 108 37 108 85c0 33 -14 45 -59 46z" />
    <glyph glyph-name="uni021A" unicode="&#x21a;" horiz-adv-x="568" 
d="M542 690v-36h-238v-654h-41v654h-237v36h516zM281 -63c11 0 15 -4 15 -15v-57c-1 -37 -8 -84 -21 -120l-17 6c4 36 4 57 4 102c-5 0 -10 5 -10 13l1 56c-1 11 5 15 16 15h12z" />
    <glyph glyph-name="uni1E6C" unicode="&#x1e6c;" horiz-adv-x="568" 
d="M542 690v-36h-238v-654h-41v654h-237v36h516zM292 -61c11 0 16 -5 16 -15v-61c0 -10 -5 -16 -16 -16h-14c-10 0 -16 6 -16 16v61c0 10 6 15 16 15h14z" />
    <glyph glyph-name="uni1E6E" unicode="&#x1e6e;" horiz-adv-x="568" 
d="M542 690v-36h-238v-654h-41v654h-237v36h516zM152 -117v33h264v-33h-264z" />
    <glyph glyph-name="U" unicode="U" horiz-adv-x="667" 
d="M573 690v-433c0 -194 -64 -269 -238 -269c-177 0 -241 75 -241 269v433h41v-433c0 -171 53 -232 199 -232c144 0 198 61 198 232v433h41z" />
    <glyph glyph-name="Uacute" unicode="&#xda;" horiz-adv-x="667" 
d="M436 901l26 -30l-163 -135l-18 19zM573 690v-433c0 -194 -64 -269 -238 -269c-177 0 -241 75 -241 269v433h41v-433c0 -171 53 -232 199 -232c144 0 198 61 198 232v433h41z" />
    <glyph glyph-name="Ubreve" unicode="&#x16c;" horiz-adv-x="667" 
d="M449 875l25 -4c1 -73 -52 -119 -139 -119s-142 46 -140 119l24 4c0 -56 44 -89 116 -89c70 0 114 33 114 89zM573 690v-433c0 -194 -64 -269 -238 -269c-177 0 -241 75 -241 269v433h41v-433c0 -171 53 -232 199 -232c144 0 198 61 198 232v433h41z" />
    <glyph glyph-name="Ucircumflex" unicode="&#xdb;" horiz-adv-x="667" 
d="M348 883l135 -119l-15 -19l-130 101h-8l-129 -101l-17 19l135 119h29zM573 690v-433c0 -194 -64 -269 -238 -269c-177 0 -241 75 -241 269v433h41v-433c0 -171 53 -232 199 -232c144 0 198 61 198 232v433h41z" />
    <glyph glyph-name="uni0214" unicode="&#x214;" horiz-adv-x="667" 
d="M179 913l110 -162l-21 -14l-122 153zM325 913l111 -162l-22 -14l-122 153zM573 690v-433c0 -194 -64 -269 -238 -269c-177 0 -241 75 -241 269v433h41v-433c0 -171 53 -232 199 -232c144 0 198 61 198 232v433h41z" />
    <glyph glyph-name="Udieresis" unicode="&#xdc;" horiz-adv-x="667" 
d="M253 859c9 0 14 -5 14 -14v-56c0 -9 -5 -14 -14 -14h-15c-9 0 -13 5 -13 14v56c0 9 4 14 13 14h15zM430 859c9 0 14 -5 14 -14v-56c0 -9 -5 -14 -14 -14h-15c-9 0 -13 5 -13 14v56c0 9 4 14 13 14h15zM573 690v-433c0 -194 -64 -269 -238 -269c-177 0 -241 75 -241 269
v433h41v-433c0 -171 53 -232 199 -232c144 0 198 61 198 232v433h41z" />
    <glyph glyph-name="uni1EE4" unicode="&#x1ee4;" horiz-adv-x="667" 
d="M573 690v-433c0 -194 -64 -269 -238 -269c-177 0 -241 75 -241 269v433h41v-433c0 -171 53 -232 199 -232c144 0 198 61 198 232v433h41zM341 -61c11 0 16 -5 16 -15v-61c0 -10 -5 -16 -16 -16h-14c-11 0 -16 6 -16 16v61c0 10 5 15 16 15h14z" />
    <glyph glyph-name="Ugrave" unicode="&#xd9;" horiz-adv-x="667" 
d="M223 899l155 -145l-18 -20l-163 136zM573 690v-433c0 -194 -64 -269 -238 -269c-177 0 -241 75 -241 269v433h41v-433c0 -171 53 -232 199 -232c144 0 198 61 198 232v433h41z" />
    <glyph glyph-name="uni1EE6" unicode="&#x1ee6;" horiz-adv-x="667" 
d="M321 763c48 16 67 46 67 80c0 44 -35 58 -92 47l-6 23c77 20 129 -3 129 -68c0 -46 -29 -88 -91 -103zM573 690v-433c0 -194 -64 -269 -238 -269c-177 0 -241 75 -241 269v433h41v-433c0 -171 53 -232 199 -232c144 0 198 61 198 232v433h41z" />
    <glyph glyph-name="Uhorn" unicode="&#x1af;" horiz-adv-x="674" 
d="M690 719c-4 -70 -55 -119 -117 -125v-337c0 -194 -64 -269 -238 -269c-177 0 -241 75 -241 269v433h41v-433c0 -171 53 -232 199 -232c144 0 198 61 198 232v433h41v-72c49 9 79 49 83 106z" />
    <glyph glyph-name="uni1EE8" unicode="&#x1ee8;" horiz-adv-x="674" 
d="M464 870l-163 -136l-18 20l155 145zM690 719c-4 -70 -55 -119 -117 -125v-337c0 -194 -64 -269 -238 -269c-177 0 -241 75 -241 269v433h41v-433c0 -171 53 -232 199 -232c144 0 198 61 198 232v433h41v-72c49 9 79 49 83 106z" />
    <glyph glyph-name="uni1EF0" unicode="&#x1ef0;" horiz-adv-x="674" 
d="M690 719c-4 -70 -55 -119 -117 -125v-337c0 -194 -64 -269 -238 -269c-177 0 -241 75 -241 269v433h41v-433c0 -171 53 -232 199 -232c144 0 198 61 198 232v433h41v-72c49 9 79 49 83 106zM341 -61c11 0 16 -5 16 -15v-61c0 -10 -5 -16 -16 -16h-14c-10 0 -16 6 -16 16
v61c0 10 6 15 16 15h14z" />
    <glyph glyph-name="uni1EEA" unicode="&#x1eea;" horiz-adv-x="674" 
d="M378 754l-18 -20l-163 136l26 29zM690 719c-4 -70 -55 -119 -117 -125v-337c0 -194 -64 -269 -238 -269c-177 0 -241 75 -241 269v433h41v-433c0 -171 53 -232 199 -232c144 0 198 61 198 232v433h41v-72c49 9 79 49 83 106z" />
    <glyph glyph-name="uni1EEC" unicode="&#x1eec;" horiz-adv-x="674" 
d="M388 843c0 44 -35 58 -92 47l-6 23c77 20 129 -3 129 -68c0 -46 -29 -88 -91 -103l-7 21c48 16 67 46 67 80zM690 719c-4 -70 -55 -119 -117 -125v-337c0 -194 -64 -269 -238 -269c-177 0 -241 75 -241 269v433h41v-433c0 -171 53 -232 199 -232c144 0 198 61 198 232
v433h41v-72c49 9 79 49 83 106z" />
    <glyph glyph-name="uni1EEE" unicode="&#x1eee;" horiz-adv-x="674" 
d="M210 774h-23c-4 66 28 99 76 95c59 -5 84 -60 142 -65c40 -3 56 15 56 60h22c4 -62 -27 -96 -75 -92c-68 6 -93 60 -143 65c-40 4 -55 -17 -55 -63zM690 719c-4 -70 -55 -119 -117 -125v-337c0 -194 -64 -269 -238 -269c-177 0 -241 75 -241 269v433h41v-433
c0 -171 53 -232 199 -232c144 0 198 61 198 232v433h41v-72c49 9 79 49 83 106z" />
    <glyph glyph-name="Uhungarumlaut" unicode="&#x170;" horiz-adv-x="667" 
d="M338 909l32 -22l-121 -154l-22 14zM484 909l32 -22l-121 -154l-22 14zM573 690v-433c0 -194 -64 -269 -238 -269c-177 0 -241 75 -241 269v433h41v-433c0 -171 53 -232 199 -232c144 0 198 61 198 232v433h41z" />
    <glyph glyph-name="uni0216" unicode="&#x216;" horiz-adv-x="667" 
d="M218 754l-24 5c-1 73 52 118 138 118c88 0 142 -45 141 -118l-25 -5c0 57 -43 89 -116 89c-69 0 -114 -32 -114 -89zM573 690v-433c0 -194 -64 -269 -238 -269c-177 0 -241 75 -241 269v433h41v-433c0 -171 53 -232 199 -232c144 0 198 61 198 232v433h41z" />
    <glyph glyph-name="Umacron" unicode="&#x16a;" horiz-adv-x="667" 
d="M467 832v-33h-264v33h264zM573 690v-433c0 -194 -64 -269 -238 -269c-177 0 -241 75 -241 269v433h41v-433c0 -171 53 -232 199 -232c144 0 198 61 198 232v433h41z" />
    <glyph glyph-name="uni1E7A" unicode="&#x1e7a;" horiz-adv-x="667" 
d="M247 944h13c9 0 13 -4 13 -13v-50c0 -9 -4 -13 -13 -13h-13c-9 0 -13 4 -13 13v50c0 9 4 13 13 13zM407 944h15c8 0 12 -4 12 -13v-50c0 -9 -4 -13 -12 -13h-15c-8 0 -12 4 -12 13v50c0 9 4 13 12 13zM455 779h-241v30h241v-30zM573 690v-433c0 -194 -64 -269 -238 -269
c-177 0 -241 75 -241 269v433h41v-433c0 -171 53 -232 199 -232c144 0 198 61 198 232v433h41z" />
    <glyph glyph-name="Uogonek" unicode="&#x172;" horiz-adv-x="667" 
d="M532 690h41v-433c0 -179 -55 -257 -201 -268c-34 -34 -64 -73 -82 -121c-22 -59 17 -78 89 -53l5 -18c-109 -49 -150 4 -126 72c12 33 36 73 87 119h-10c-177 0 -241 75 -241 269v433h41v-433c0 -171 53 -232 199 -232c144 0 198 61 198 232v433z" />
    <glyph glyph-name="Uring" unicode="&#x16e;" horiz-adv-x="667" 
d="M335 914c54 0 99 -44 99 -97c0 -52 -44 -98 -99 -98s-99 43 -99 98c0 53 45 97 99 97zM335 889c-41 0 -71 -31 -71 -72c0 -43 31 -73 71 -73s71 30 71 73c0 41 -31 72 -71 72zM573 690v-433c0 -194 -64 -269 -238 -269c-177 0 -241 75 -241 269v433h41v-433
c0 -171 53 -232 199 -232c144 0 198 61 198 232v433h41z" />
    <glyph glyph-name="Utilde" unicode="&#x168;" horiz-adv-x="667" 
d="M262 869c60 -5 84 -60 142 -65c41 -3 56 15 56 60h23c4 -62 -28 -96 -76 -92c-67 6 -93 60 -143 65c-40 4 -55 -17 -55 -63h-23c-3 66 28 99 76 95zM573 690v-433c0 -194 -64 -269 -238 -269c-177 0 -241 75 -241 269v433h41v-433c0 -171 53 -232 199 -232
c144 0 198 61 198 232v433h41z" />
    <glyph glyph-name="uni1E78" unicode="&#x1e78;" horiz-adv-x="667" 
d="M392 1003l25 -27l-113 -96l-17 18zM262 857c60 -5 84 -60 142 -65c41 -3 56 15 56 60h23c4 -63 -28 -96 -76 -92c-67 6 -93 60 -143 65c-40 4 -55 -17 -55 -64h-23c-3 66 28 100 76 96zM573 690v-433c0 -194 -64 -269 -238 -269c-177 0 -241 75 -241 269v433h41v-433
c0 -171 53 -232 199 -232c144 0 198 61 198 232v433h41z" />
    <glyph glyph-name="V" unicode="V" horiz-adv-x="596" 
d="M573 690l-229 -677c-3 -7 -10 -13 -19 -13h-54c-9 0 -16 6 -18 13l-229 677h43l194 -582c8 -25 16 -49 23 -74h28c8 25 15 50 24 75l193 581h44z" />
    <glyph glyph-name="W" unicode="W" horiz-adv-x="935" 
d="M902 690l-172 -676c-2 -8 -9 -14 -19 -14h-57c-10 0 -17 6 -19 15l-137 564c-7 26 -13 52 -19 78h-23c-7 -26 -13 -52 -19 -78l-137 -564c-2 -9 -10 -15 -19 -15h-57c-10 0 -17 6 -20 14l-172 676h44l146 -583c6 -24 12 -48 17 -73h27c6 25 11 48 17 72l139 568
c2 10 9 16 19 16h53c9 0 16 -6 19 -16l139 -567c6 -25 11 -49 16 -73h27c6 24 11 48 17 72l147 584h43z" />
    <glyph glyph-name="Wacute" unicode="&#x1e82;" horiz-adv-x="935" 
d="M569 901l26 -30l-163 -135l-18 19zM902 690l-172 -676c-2 -8 -9 -14 -19 -14h-57c-10 0 -17 6 -19 15l-137 564c-7 26 -13 52 -19 78h-23c-7 -26 -13 -52 -19 -78l-137 -564c-2 -9 -10 -15 -19 -15h-57c-10 0 -17 6 -20 14l-172 676h44l146 -583c6 -24 12 -48 17 -73h27
c6 25 11 48 17 72l139 568c2 10 9 16 19 16h53c9 0 16 -6 19 -16l139 -567c6 -25 11 -49 16 -73h27c6 24 11 48 17 72l147 584h43z" />
    <glyph glyph-name="Wcircumflex" unicode="&#x174;" horiz-adv-x="935" 
d="M481 883l135 -119l-15 -19l-130 101h-8l-129 -101l-17 19l135 119h29zM902 690l-172 -676c-2 -8 -9 -14 -19 -14h-57c-10 0 -17 6 -19 15l-137 564c-7 26 -13 52 -19 78h-23c-7 -26 -13 -52 -19 -78l-137 -564c-2 -9 -10 -15 -19 -15h-57c-10 0 -17 6 -20 14l-172 676h44
l146 -583c6 -24 12 -48 17 -73h27c6 25 11 48 17 72l139 568c2 10 9 16 19 16h53c9 0 16 -6 19 -16l139 -567c6 -25 11 -49 16 -73h27c6 24 11 48 17 72l147 584h43z" />
    <glyph glyph-name="Wdieresis" unicode="&#x1e84;" horiz-adv-x="935" 
d="M386 859c9 0 14 -5 14 -14v-56c0 -9 -5 -14 -14 -14h-15c-9 0 -13 5 -13 14v56c0 9 4 14 13 14h15zM563 859c9 0 14 -5 14 -14v-56c0 -9 -5 -14 -14 -14h-15c-9 0 -13 5 -13 14v56c0 9 4 14 13 14h15zM902 690l-172 -676c-2 -8 -9 -14 -19 -14h-57c-10 0 -17 6 -19 15
l-137 564c-7 26 -13 52 -19 78h-23c-7 -26 -13 -52 -19 -78l-137 -564c-2 -9 -10 -15 -19 -15h-57c-10 0 -17 6 -20 14l-172 676h44l146 -583c6 -24 12 -48 17 -73h27c6 25 11 48 17 72l139 568c2 10 9 16 19 16h53c9 0 16 -6 19 -16l139 -567c6 -25 11 -49 16 -73h27
c6 24 11 48 17 72l147 584h43z" />
    <glyph glyph-name="Wgrave" unicode="&#x1e80;" horiz-adv-x="935" 
d="M356 899l155 -145l-18 -20l-163 136zM902 690l-172 -676c-2 -8 -9 -14 -19 -14h-57c-10 0 -17 6 -19 15l-137 564c-7 26 -13 52 -19 78h-23c-7 -26 -13 -52 -19 -78l-137 -564c-2 -9 -10 -15 -19 -15h-57c-10 0 -17 6 -20 14l-172 676h44l146 -583c6 -24 12 -48 17 -73
h27c6 25 11 48 17 72l139 568c2 10 9 16 19 16h53c9 0 16 -6 19 -16l139 -567c6 -25 11 -49 16 -73h27c6 24 11 48 17 72l147 584h43z" />
    <glyph glyph-name="X" unicode="X" horiz-adv-x="598" 
d="M516 0l-202 343h-30l-202 -343h-47l212 359l-199 331h46l188 -313h34l187 313h47l-200 -331l213 -359h-47z" />
    <glyph glyph-name="Y" unicode="Y" horiz-adv-x="548" 
d="M528 690l-233 -437v-253h-42v255l-234 435h45l171 -322c12 -23 24 -48 36 -71h6c11 23 24 48 35 70l171 323h45z" />
    <glyph glyph-name="Yacute" unicode="&#xdd;" horiz-adv-x="548" 
d="M402 869l-163 -135l-18 19l155 146zM528 690l-233 -437v-253h-42v255l-234 435h45l171 -322c12 -23 24 -48 36 -71h6c11 23 24 48 35 70l171 323h45z" />
    <glyph glyph-name="Ycircumflex" unicode="&#x176;" horiz-adv-x="548" 
d="M270 844l-129 -101l-17 19l135 119h29l135 -119l-15 -19l-130 101h-8zM528 690l-233 -437v-253h-42v255l-234 435h45l171 -322c12 -23 24 -48 36 -71h6c11 23 24 48 35 70l171 323h45z" />
    <glyph glyph-name="Ydieresis" unicode="&#x178;" horiz-adv-x="548" 
d="M178 773c-9 0 -13 5 -13 14v56c0 9 4 14 13 14h15c9 0 14 -5 14 -14v-56c0 -9 -5 -14 -14 -14h-15zM355 773c-9 0 -13 5 -13 14v56c0 9 4 14 13 14h15c9 0 14 -5 14 -14v-56c0 -9 -5 -14 -14 -14h-15zM528 690l-233 -437v-253h-42v255l-234 435h45l171 -322
c12 -23 24 -48 36 -71h6c11 23 24 48 35 70l171 323h45z" />
    <glyph glyph-name="uni1E8E" unicode="&#x1e8e;" horiz-adv-x="548" 
d="M268 768c-10 0 -15 5 -15 15v61c0 10 5 15 15 15h15c10 0 15 -5 15 -15v-61c0 -10 -5 -15 -15 -15h-15zM528 690l-233 -437v-253h-42v255l-234 435h45l171 -322c12 -23 24 -48 36 -71h6c11 23 24 48 35 70l171 323h45z" />
    <glyph glyph-name="uni1EF4" unicode="&#x1ef4;" horiz-adv-x="548" 
d="M253 0v255l-234 435h45l171 -322c12 -23 24 -48 36 -71h6c11 23 24 48 35 70l171 323h45l-233 -437v-253h-42zM282 -61c11 0 16 -5 16 -15v-61c0 -10 -5 -16 -16 -16h-14c-10 0 -16 6 -16 16v61c0 10 6 15 16 15h14z" />
    <glyph glyph-name="Ygrave" unicode="&#x1ef2;" horiz-adv-x="548" 
d="M318 752l-18 -20l-163 136l26 29zM528 690l-233 -437v-253h-42v255l-234 435h45l171 -322c12 -23 24 -48 36 -71h6c11 23 24 48 35 70l171 323h45z" />
    <glyph glyph-name="uni1EF6" unicode="&#x1ef6;" horiz-adv-x="548" 
d="M328 841c0 44 -35 58 -92 47l-6 23c77 20 129 -3 129 -68c0 -46 -29 -88 -91 -103l-7 21c48 16 67 46 67 80zM528 690l-233 -437v-253h-42v255l-234 435h45l171 -322c12 -23 24 -48 36 -71h6c11 23 24 48 35 70l171 323h45z" />
    <glyph glyph-name="uni0232" unicode="&#x232;" horiz-adv-x="548" 
d="M407 830v-33h-264v33h264zM528 690l-233 -437v-253h-42v255l-234 435h45l171 -322c12 -23 24 -48 36 -71h6c11 23 24 48 35 70l171 323h45z" />
    <glyph glyph-name="uni1EF8" unicode="&#x1ef8;" horiz-adv-x="548" 
d="M149 772h-23c-3 66 28 99 76 95c60 -5 84 -60 142 -65c41 -3 56 15 56 60h23c4 -62 -28 -96 -76 -92c-67 6 -93 60 -143 65c-40 4 -55 -17 -55 -63zM528 690l-233 -437v-253h-42v255l-234 435h45l171 -322c12 -23 24 -48 36 -71h6c11 23 24 48 35 70l171 323h45z" />
    <glyph glyph-name="Z" unicode="Z" horiz-adv-x="560" 
d="M98 36h412v-36h-459v36l407 618h-403v36h450v-36z" />
    <glyph glyph-name="Zacute" unicode="&#x179;" horiz-adv-x="560" 
d="M407 871l-163 -135l-18 19l155 146zM98 36h412v-36h-459v36l407 618h-403v36h450v-36z" />
    <glyph glyph-name="Zcaron" unicode="&#x17d;" horiz-adv-x="560" 
d="M293 749h-24l-139 120l18 18l129 -98h8l130 98l16 -18zM98 36h412v-36h-459v36l407 618h-403v36h450v-36z" />
    <glyph glyph-name="Zdotaccent" unicode="&#x17b;" horiz-adv-x="560" 
d="M273 770c-11 0 -16 5 -16 15v61c0 10 5 15 16 15h14c10 0 16 -5 16 -15v-61c0 -10 -6 -15 -16 -15h-14zM98 36h412v-36h-459v36l407 618h-403v36h450v-36z" />
    <glyph glyph-name="uni1E92" unicode="&#x1e92;" horiz-adv-x="560" 
d="M98 36h412v-36h-459v36l407 618h-403v36h450v-36zM289 -61c11 0 16 -5 16 -15v-61c0 -10 -5 -16 -16 -16h-14c-10 0 -16 6 -16 16v61c0 10 6 15 16 15h14z" />
    <glyph glyph-name="a" unicode="a" horiz-adv-x="541" 
d="M312 494c89 0 142 -38 142 -140v-354h-30l-7 90c-41 -41 -133 -97 -224 -97c-82 0 -131 45 -131 125v60c0 73 44 115 120 115h232v61c0 61 -24 104 -107 104c-67 0 -149 -7 -221 -15l-4 30c65 9 137 21 230 21zM197 30c67 -2 160 38 217 92v139l-228 -3
c-56 -1 -83 -30 -83 -83v-54c0 -60 31 -90 94 -91z" />
    <glyph glyph-name="aacute" unicode="&#xe1;" horiz-adv-x="541" 
d="M396 690l-163 -135l-18 19l155 146zM312 494c89 0 142 -38 142 -140v-354h-30l-7 90c-41 -41 -133 -97 -224 -97c-82 0 -131 45 -131 125v60c0 73 44 115 120 115h232v61c0 61 -24 104 -107 104c-67 0 -149 -7 -221 -15l-4 30c65 9 137 21 230 21zM197 30
c67 -2 160 38 217 92v139l-228 -3c-56 -1 -83 -30 -83 -83v-54c0 -60 31 -90 94 -91z" />
    <glyph glyph-name="abreve" unicode="&#x103;" horiz-adv-x="541" 
d="M269 571c-87 0 -142 46 -140 119l24 4c0 -56 44 -89 116 -89c70 0 114 33 114 89l25 -4c1 -73 -52 -119 -139 -119zM312 494c89 0 142 -38 142 -140v-354h-30l-7 90c-41 -41 -133 -97 -224 -97c-82 0 -131 45 -131 125v60c0 73 44 115 120 115h232v61
c0 61 -24 104 -107 104c-67 0 -149 -7 -221 -15l-4 30c65 9 137 21 230 21zM197 30c67 -2 160 38 217 92v139l-228 -3c-56 -1 -83 -30 -83 -83v-54c0 -60 31 -90 94 -91z" />
    <glyph glyph-name="uni1EAF" unicode="&#x1eaf;" horiz-adv-x="541" 
d="M362 782l-114 -94l-16 18l106 104zM269 571c-87 0 -142 46 -140 119l24 4c0 -56 44 -89 116 -89c70 0 114 33 114 89l25 -4c1 -73 -52 -119 -139 -119zM312 494c89 0 142 -38 142 -140v-354h-30l-7 90c-41 -41 -133 -97 -224 -97c-82 0 -131 45 -131 125v60
c0 73 44 115 120 115h232v61c0 61 -24 104 -107 104c-67 0 -149 -7 -221 -15l-4 30c65 9 137 21 230 21zM197 30c67 -2 160 38 217 92v139l-228 -3c-56 -1 -83 -30 -83 -83v-54c0 -60 31 -90 94 -91z" />
    <glyph glyph-name="uni1EB7" unicode="&#x1eb7;" horiz-adv-x="541" 
d="M269 571c-88 0 -142 46 -141 119l25 4c0 -56 44 -89 116 -89c70 0 114 33 114 89l24 -4c2 -73 -52 -119 -138 -119zM312 494c89 0 142 -38 142 -140v-354h-30l-7 90c-41 -41 -133 -97 -224 -97c-82 0 -131 45 -131 125v60c0 73 44 115 120 115h232v61
c0 61 -24 104 -107 104c-67 0 -149 -7 -221 -15l-4 30c65 9 137 21 230 21zM197 30c67 -2 160 38 217 92v139l-228 -3c-56 -1 -83 -30 -83 -83v-54c0 -60 31 -90 94 -91zM268 -73c11 0 16 -5 16 -15v-61c0 -10 -5 -16 -16 -16h-14c-10 0 -16 6 -16 16v61c0 10 6 15 16 15h14
z" />
    <glyph glyph-name="uni1EB1" unicode="&#x1eb1;" horiz-adv-x="541" 
d="M305 706l-16 -18l-115 94l24 28zM267 571c-86 0 -140 46 -139 119l25 4c0 -56 44 -89 114 -89c72 0 116 33 116 89l25 -4c1 -73 -54 -119 -141 -119zM312 494c89 0 142 -38 142 -140v-354h-30l-7 90c-41 -41 -133 -97 -224 -97c-82 0 -131 45 -131 125v60
c0 73 44 115 120 115h232v61c0 61 -24 104 -107 104c-67 0 -149 -7 -221 -15l-4 30c65 9 137 21 230 21zM197 30c67 -2 160 38 217 92v139l-228 -3c-56 -1 -83 -30 -83 -83v-54c0 -60 31 -90 94 -91z" />
    <glyph glyph-name="uni1EB3" unicode="&#x1eb3;" horiz-adv-x="541" 
d="M307 753c0 35 -31 46 -84 32l-4 21c69 22 116 4 116 -51c0 -38 -26 -73 -83 -86l-5 19c41 14 60 38 60 65zM269 571c-87 0 -142 46 -140 119l24 4c0 -56 44 -89 116 -89c70 0 114 33 114 89l25 -4c1 -73 -52 -119 -139 -119zM312 494c89 0 142 -38 142 -140v-354h-30
l-7 90c-41 -41 -133 -97 -224 -97c-82 0 -131 45 -131 125v60c0 73 44 115 120 115h232v61c0 61 -24 104 -107 104c-67 0 -149 -7 -221 -15l-4 30c65 9 137 21 230 21zM197 30c67 -2 160 38 217 92v139l-228 -3c-56 -1 -83 -30 -83 -83v-54c0 -60 31 -90 94 -91z" />
    <glyph glyph-name="uni1EB5" unicode="&#x1eb5;" horiz-adv-x="541" 
d="M154 724h-22c-3 63 27 95 72 91c58 -5 70 -57 127 -62c38 -3 52 14 52 57h22c3 -59 -27 -91 -72 -87c-64 5 -79 57 -126 62c-39 4 -53 -16 -53 -61zM268 571c-87 0 -141 46 -139 119l24 4c0 -56 44 -89 115 -89s115 33 115 89l25 -4c1 -73 -53 -119 -140 -119zM312 494
c89 0 142 -38 142 -140v-354h-30l-7 90c-41 -41 -133 -97 -224 -97c-82 0 -131 45 -131 125v60c0 73 44 115 120 115h232v61c0 61 -24 104 -107 104c-67 0 -149 -7 -221 -15l-4 30c65 9 137 21 230 21zM197 30c67 -2 160 38 217 92v139l-228 -3c-56 -1 -83 -30 -83 -83v-54
c0 -60 31 -90 94 -91z" />
    <glyph glyph-name="acircumflex" unicode="&#xe2;" horiz-adv-x="541" 
d="M264 665l-129 -101l-17 19l135 119h29l135 -119l-15 -19l-130 101h-8zM312 494c89 0 142 -38 142 -140v-354h-30l-7 90c-41 -41 -133 -97 -224 -97c-82 0 -131 45 -131 125v60c0 73 44 115 120 115h232v61c0 61 -24 104 -107 104c-67 0 -149 -7 -221 -15l-4 30
c65 9 137 21 230 21zM197 30c67 -2 160 38 217 92v139l-228 -3c-56 -1 -83 -30 -83 -83v-54c0 -60 31 -90 94 -91z" />
    <glyph glyph-name="uni1EA5" unicode="&#x1ea5;" horiz-adv-x="541" 
d="M484 762l-112 -98l-17 17l103 107zM264 663l-122 -89l-16 18l127 106h29l127 -106l-15 -18l-122 89h-8zM312 494c89 0 142 -38 142 -140v-354h-30l-7 90c-41 -41 -133 -97 -224 -97c-82 0 -131 45 -131 125v60c0 73 44 115 120 115h232v61c0 61 -24 104 -107 104
c-67 0 -149 -7 -221 -15l-4 30c65 9 137 21 230 21zM197 30c67 -2 160 38 217 92v139l-228 -3c-56 -1 -83 -30 -83 -83v-54c0 -60 31 -90 94 -91z" />
    <glyph glyph-name="uni1EAD" unicode="&#x1ead;" horiz-adv-x="541" 
d="M264 665l-129 -101l-17 19l135 119h30l135 -119l-16 -19l-130 101h-8zM312 494c89 0 142 -38 142 -140v-354h-30l-7 90c-41 -41 -133 -97 -224 -97c-82 0 -131 45 -131 125v60c0 73 44 115 120 115h232v61c0 61 -24 104 -107 104c-67 0 -149 -7 -221 -15l-4 30
c65 9 137 21 230 21zM197 30c67 -2 160 38 217 92v139l-228 -3c-56 -1 -83 -30 -83 -83v-54c0 -60 31 -90 94 -91zM268 -73c11 0 16 -5 16 -15v-61c0 -10 -5 -16 -16 -16h-14c-10 0 -16 6 -16 16v61c0 10 6 15 16 15h14z" />
    <glyph glyph-name="uni1EA7" unicode="&#x1ea7;" horiz-adv-x="541" 
d="M180 681l-17 -17l-111 98l26 26zM135 582l15 31l118 85l38 -22l96 -93l-32 6l-100 74l-30 -16zM312 494c89 0 142 -38 142 -140v-354h-30l-7 90c-41 -41 -133 -97 -224 -97c-82 0 -131 45 -131 125v60c0 73 44 115 120 115h232v61c0 61 -24 104 -107 104
c-67 0 -149 -7 -221 -15l-4 30c65 9 137 21 230 21zM197 30c67 -2 160 38 217 92v139l-228 -3c-56 -1 -83 -30 -83 -83v-54c0 -60 31 -90 94 -91z" />
    <glyph glyph-name="uni1EA9" unicode="&#x1ea9;" horiz-adv-x="541" 
d="M426 742c0 35 -31 45 -84 31l-5 22c70 21 117 3 117 -52c0 -37 -27 -73 -83 -85l-5 18c41 14 60 38 60 66zM264 663l-123 -89l-15 18l127 106h29l127 -106l-15 -18l-122 89h-8zM312 494c89 0 142 -38 142 -140v-354h-30l-7 90c-41 -41 -133 -97 -224 -97
c-82 0 -131 45 -131 125v60c0 73 44 115 120 115h232v61c0 61 -24 104 -107 104c-67 0 -149 -7 -221 -15l-4 30c65 9 137 21 230 21zM197 30c67 -2 160 38 217 92v139l-228 -3c-56 -1 -83 -30 -83 -83v-54c0 -60 31 -90 94 -91z" />
    <glyph glyph-name="uni1EAB" unicode="&#x1eab;" horiz-adv-x="541" 
d="M156 717h-22c-4 63 27 95 72 91c58 -5 70 -57 126 -62c38 -3 53 15 53 57h21c4 -59 -26 -91 -71 -87c-65 6 -79 57 -127 62c-38 4 -52 -16 -52 -61zM264 663l-123 -89l-15 18l127 106h29l127 -106l-15 -18l-122 89h-8zM312 494c89 0 142 -38 142 -140v-354h-30l-7 90
c-41 -41 -133 -97 -224 -97c-82 0 -131 45 -131 125v60c0 73 44 115 120 115h232v61c0 61 -24 104 -107 104c-67 0 -149 -7 -221 -15l-4 30c65 9 137 21 230 21zM197 30c67 -2 160 38 217 92v139l-228 -3c-56 -1 -83 -30 -83 -83v-54c0 -60 31 -90 94 -91z" />
    <glyph glyph-name="uni0201" unicode="&#x201;" horiz-adv-x="541" 
d="M226 566l-21 -14l-122 154l33 22zM373 566l-22 -14l-121 154l32 22zM312 494c89 0 142 -38 142 -140v-354h-30l-7 90c-41 -41 -133 -97 -224 -97c-82 0 -131 45 -131 125v60c0 73 44 115 120 115h232v61c0 61 -24 104 -107 104c-67 0 -149 -7 -221 -15l-4 30
c65 9 137 21 230 21zM197 30c67 -2 160 38 217 92v139l-228 -3c-56 -1 -83 -30 -83 -83v-54c0 -60 31 -90 94 -91z" />
    <glyph glyph-name="adieresis" unicode="&#xe4;" horiz-adv-x="541" 
d="M172 594c-9 0 -13 5 -13 14v56c0 9 4 14 13 14h15c9 0 14 -5 14 -14v-56c0 -9 -5 -14 -14 -14h-15zM349 594c-9 0 -13 5 -13 14v56c0 9 4 14 13 14h15c9 0 14 -5 14 -14v-56c0 -9 -5 -14 -14 -14h-15zM312 494c89 0 142 -38 142 -140v-354h-30l-7 90
c-41 -41 -133 -97 -224 -97c-82 0 -131 45 -131 125v60c0 73 44 115 120 115h232v61c0 61 -24 104 -107 104c-67 0 -149 -7 -221 -15l-4 30c65 9 137 21 230 21zM197 30c67 -2 160 38 217 92v139l-228 -3c-56 -1 -83 -30 -83 -83v-54c0 -60 31 -90 94 -91z" />
    <glyph glyph-name="uni1EA1" unicode="&#x1ea1;" horiz-adv-x="541" 
d="M312 494c89 0 142 -38 142 -140v-354h-30l-7 90c-41 -41 -133 -97 -224 -97c-82 0 -131 45 -131 125v60c0 73 44 115 120 115h232v61c0 61 -24 104 -107 104c-67 0 -149 -7 -221 -15l-4 30c65 9 137 21 230 21zM197 30c67 -2 160 38 217 92v139l-228 -3
c-56 -1 -83 -30 -83 -83v-54c0 -60 31 -90 94 -91zM268 -73c11 0 16 -5 16 -15v-61c0 -10 -5 -16 -16 -16h-14c-11 0 -16 6 -16 16v61c0 10 5 15 16 15h14z" />
    <glyph glyph-name="agrave" unicode="&#xe0;" horiz-adv-x="541" 
d="M312 573l-18 -20l-163 136l26 29zM312 494c89 0 142 -38 142 -140v-354h-30l-7 90c-41 -41 -133 -97 -224 -97c-82 0 -131 45 -131 125v60c0 73 44 115 120 115h232v61c0 61 -24 104 -107 104c-67 0 -149 -7 -221 -15l-4 30c65 9 137 21 230 21zM197 30
c67 -2 160 38 217 92v139l-228 -3c-56 -1 -83 -30 -83 -83v-54c0 -60 31 -90 94 -91z" />
    <glyph glyph-name="uni1EA3" unicode="&#x1ea3;" horiz-adv-x="541" 
d="M322 662c0 44 -35 58 -92 47l-6 23c77 20 129 -3 129 -68c0 -46 -29 -88 -91 -103l-7 21c48 16 67 46 67 80zM312 494c89 0 142 -38 142 -140v-354h-30l-7 90c-41 -41 -133 -97 -224 -97c-82 0 -131 45 -131 125v60c0 73 44 115 120 115h232v61c0 61 -24 104 -107 104
c-67 0 -149 -7 -221 -15l-4 30c65 9 137 21 230 21zM197 30c67 -2 160 38 217 92v139l-228 -3c-56 -1 -83 -30 -83 -83v-54c0 -60 31 -90 94 -91z" />
    <glyph glyph-name="uni0203" unicode="&#x203;" horiz-adv-x="541" 
d="M152 573l-24 5c-1 73 52 118 138 118c88 0 142 -45 141 -118l-25 -5c0 57 -43 89 -116 89c-69 0 -114 -32 -114 -89zM312 494c89 0 142 -38 142 -140v-354h-30l-7 90c-41 -41 -133 -97 -224 -97c-82 0 -131 45 -131 125v60c0 73 44 115 120 115h232v61
c0 61 -24 104 -107 104c-67 0 -149 -7 -221 -15l-4 30c65 9 137 21 230 21zM197 30c67 -2 160 38 217 92v139l-228 -3c-56 -1 -83 -30 -83 -83v-54c0 -60 31 -90 94 -91z" />
    <glyph glyph-name="amacron" unicode="&#x101;" horiz-adv-x="541" 
d="M401 651v-33h-264v33h264zM312 494c89 0 142 -38 142 -140v-354h-30l-7 90c-41 -41 -133 -97 -224 -97c-82 0 -131 45 -131 125v60c0 73 44 115 120 115h232v61c0 61 -24 104 -107 104c-67 0 -149 -7 -221 -15l-4 30c65 9 137 21 230 21zM197 30c67 -2 160 38 217 92v139
l-228 -3c-56 -1 -83 -30 -83 -83v-54c0 -60 31 -90 94 -91z" />
    <glyph glyph-name="aogonek" unicode="&#x105;" horiz-adv-x="541" 
d="M459 -176l5 -18c-109 -49 -150 4 -126 72c12 34 37 75 90 122h-4l-7 90c-41 -41 -133 -97 -224 -97c-82 0 -131 45 -131 125v60c0 73 44 115 120 115h232v61c0 61 -24 104 -107 104c-67 0 -149 -7 -221 -15l-4 30c65 9 137 21 230 21c89 0 142 -38 142 -140v-354
c-35 -35 -66 -74 -84 -123c-22 -59 17 -78 89 -53zM197 30c67 -2 160 38 217 92v139l-228 -3c-56 -1 -83 -30 -83 -83v-54c0 -60 31 -90 94 -91z" />
    <glyph glyph-name="aring" unicode="&#xe5;" horiz-adv-x="541" 
d="M269 538c-55 0 -99 43 -99 98c0 53 45 97 99 97s99 -44 99 -97c0 -52 -44 -98 -99 -98zM269 708c-41 0 -71 -31 -71 -72c0 -43 31 -73 71 -73s71 30 71 73c0 41 -31 72 -71 72zM312 494c89 0 142 -38 142 -140v-354h-30l-7 90c-41 -41 -133 -97 -224 -97
c-82 0 -131 45 -131 125v60c0 73 44 115 120 115h232v61c0 61 -24 104 -107 104c-67 0 -149 -7 -221 -15l-4 30c65 9 137 21 230 21zM197 30c67 -2 160 38 217 92v139l-228 -3c-56 -1 -83 -30 -83 -83v-54c0 -60 31 -90 94 -91z" />
    <glyph glyph-name="aringacute" unicode="&#x1fb;" horiz-adv-x="541" 
d="M377 845l-150 -94l-14 20l143 104zM269 535c-55 0 -99 43 -99 98c0 53 45 97 99 97s99 -44 99 -97c0 -52 -44 -98 -99 -98zM269 705c-41 0 -71 -31 -71 -72c0 -43 31 -73 71 -73s71 30 71 73c0 41 -31 72 -71 72zM312 494c89 0 142 -38 142 -140v-354h-30l-7 90
c-41 -41 -133 -97 -224 -97c-82 0 -131 45 -131 125v60c0 73 44 115 120 115h232v61c0 61 -24 104 -107 104c-67 0 -149 -7 -221 -15l-4 30c65 9 137 21 230 21zM197 30c67 -2 160 38 217 92v139l-228 -3c-56 -1 -83 -30 -83 -83v-54c0 -60 31 -90 94 -91z" />
    <glyph glyph-name="atilde" unicode="&#xe3;" horiz-adv-x="541" 
d="M143 593h-23c-3 66 28 99 76 95c60 -5 84 -60 142 -65c41 -3 56 15 56 60h23c4 -62 -28 -96 -76 -92c-67 6 -93 60 -143 65c-40 4 -55 -17 -55 -63zM312 494c89 0 142 -38 142 -140v-354h-30l-7 90c-41 -41 -133 -97 -224 -97c-82 0 -131 45 -131 125v60
c0 73 44 115 120 115h232v61c0 61 -24 104 -107 104c-67 0 -149 -7 -221 -15l-4 30c65 9 137 21 230 21zM197 30c67 -2 160 38 217 92v139l-228 -3c-56 -1 -83 -30 -83 -83v-54c0 -60 31 -90 94 -91z" />
    <glyph glyph-name="ae" unicode="&#xe6;" horiz-adv-x="878" 
d="M638 24c62 0 124 6 165 12l5 -28c-36 -12 -122 -20 -175 -20c-106 0 -169 33 -198 111c-44 -44 -143 -106 -242 -106c-82 0 -131 45 -131 125v60c0 73 44 115 120 115h232v61c0 61 -24 104 -107 104c-67 0 -149 -7 -221 -15l-4 30c65 9 137 21 230 21
c69 0 116 -23 134 -80c32 57 90 80 179 80c130 0 192 -48 194 -142s-38 -131 -139 -131h-224c5 -150 60 -197 182 -197zM626 458c-124 0 -168 -52 -170 -204h218c79 0 106 29 104 96c-1 73 -50 108 -152 108zM197 30c71 -2 168 40 229 96c-7 29 -11 63 -12 102v33l-228 -3
c-56 -1 -83 -30 -83 -83v-54c0 -60 31 -90 94 -91z" />
    <glyph glyph-name="aeacute" unicode="&#x1fd;" horiz-adv-x="878" 
d="M592 689l-163 -136l-18 20l155 145zM638 24c62 0 124 6 165 12l5 -28c-36 -12 -122 -20 -175 -20c-106 0 -169 33 -198 111c-44 -44 -143 -106 -242 -106c-82 0 -131 45 -131 125v60c0 73 44 115 120 115h232v61c0 61 -24 104 -107 104c-67 0 -149 -7 -221 -15l-4 30
c65 9 137 21 230 21c69 0 116 -23 134 -80c32 57 90 80 179 80c130 0 192 -48 194 -142s-38 -131 -139 -131h-224c5 -150 60 -197 182 -197zM626 458c-124 0 -168 -52 -170 -204h218c79 0 106 29 104 96c-1 73 -50 108 -152 108zM197 30c71 -2 168 40 229 96
c-7 29 -11 63 -12 102v33l-228 -3c-56 -1 -83 -30 -83 -83v-54c0 -60 31 -90 94 -91z" />
    <glyph glyph-name="b" unicode="b" horiz-adv-x="561" 
d="M321 494c124 0 174 -70 174 -253c0 -178 -53 -253 -199 -253c-68 0 -139 12 -208 32v680h40v-208c0 -40 0 -65 -5 -97c67 62 132 99 198 99zM295 24c114 0 159 57 159 217c0 159 -37 217 -141 217c-60 0 -111 -33 -186 -94l1 -318c63 -17 114 -23 167 -22z" />
    <glyph glyph-name="c" unicode="c" horiz-adv-x="481" 
d="M287 494c38 0 98 -4 141 -19l-7 -27c-37 7 -94 10 -127 10c-137 0 -187 -49 -187 -217s50 -217 187 -217c28 0 94 2 139 11l6 -28c-46 -12 -101 -19 -151 -19c-162 0 -223 67 -223 253s61 253 222 253z" />
    <glyph glyph-name="cacute" unicode="&#x107;" horiz-adv-x="481" 
d="M373 720l26 -30l-163 -135l-18 19zM287 494c38 0 98 -4 141 -19l-7 -27c-37 7 -94 10 -127 10c-137 0 -187 -49 -187 -217s50 -217 187 -217c28 0 94 2 139 11l6 -28c-46 -12 -101 -19 -151 -19c-162 0 -223 67 -223 253s61 253 222 253z" />
    <glyph glyph-name="ccaron" unicode="&#x10d;" horiz-adv-x="481" 
d="M407 706l16 -18l-138 -120h-24l-139 120l18 18l129 -98h8zM287 494c38 0 98 -4 141 -19l-7 -27c-37 7 -94 10 -127 10c-137 0 -187 -49 -187 -217s50 -217 187 -217c28 0 94 2 139 11l6 -28c-46 -12 -101 -19 -151 -19c-162 0 -223 67 -223 253s61 253 222 253z" />
    <glyph glyph-name="ccedilla" unicode="&#xe7;" horiz-adv-x="481" 
d="M287 494c38 0 98 -4 141 -19l-7 -27c-37 7 -94 10 -127 10c-137 0 -187 -49 -187 -217s50 -217 187 -217c28 0 94 2 139 11l6 -28c-46 -12 -101 -19 -151 -19c-162 0 -223 67 -223 253s61 253 222 253zM252 -59c57 4 87 -14 86 -65c-1 -72 -58 -121 -146 -110l6 23
c67 -3 108 37 108 85c0 33 -14 45 -59 46z" />
    <glyph glyph-name="uni1E09" unicode="&#x1e09;" horiz-adv-x="481" 
d="M375 718l26 -29l-163 -136l-18 20zM287 494c38 0 98 -4 141 -19l-7 -27c-37 7 -94 10 -127 10c-137 0 -187 -49 -187 -217s50 -217 187 -217c28 0 94 2 139 11l6 -28c-46 -12 -101 -19 -151 -19c-162 0 -223 67 -223 253s61 253 222 253zM251 -59c58 4 88 -14 87 -65
c-2 -72 -59 -121 -147 -110l7 23c66 -3 107 37 108 85c0 33 -15 45 -59 46z" />
    <glyph glyph-name="ccircumflex" unicode="&#x109;" horiz-adv-x="481" 
d="M285 702l135 -119l-15 -19l-130 101h-8l-129 -101l-17 19l135 119h29zM287 494c38 0 98 -4 141 -19l-7 -27c-37 7 -94 10 -127 10c-137 0 -187 -49 -187 -217s50 -217 187 -217c28 0 94 2 139 11l6 -28c-46 -12 -101 -19 -151 -19c-162 0 -223 67 -223 253
s61 253 222 253z" />
    <glyph glyph-name="cdotaccent" unicode="&#x10b;" horiz-adv-x="481" 
d="M279 680c10 0 16 -5 16 -15v-61c0 -10 -6 -15 -16 -15h-14c-11 0 -16 5 -16 15v61c0 10 5 15 16 15h14zM287 494c38 0 98 -4 141 -19l-7 -27c-37 7 -94 10 -127 10c-137 0 -187 -49 -187 -217s50 -217 187 -217c28 0 94 2 139 11l6 -28c-46 -12 -101 -19 -151 -19
c-162 0 -223 67 -223 253s61 253 222 253z" />
    <glyph glyph-name="d" unicode="d" horiz-adv-x="564" 
d="M434 700h39v-700h-30l-6 80c-66 -58 -128 -92 -197 -92c-125 0 -173 74 -173 253c0 184 51 253 177 253c64 0 126 -18 193 -48c-4 33 -3 58 -3 93v161zM108 242c0 -162 40 -218 140 -218c61 0 110 27 186 89v302c-74 28 -125 43 -185 43c-101 0 -141 -55 -141 -216z" />
    <glyph glyph-name="eth" unicode="&#xf0;" horiz-adv-x="551" 
d="M354 625c69 -60 120 -165 120 -345c0 -156 -21 -292 -203 -292c-139 0 -205 69 -205 232c0 140 53 227 201 227c49 0 100 -12 159 -50c-16 102 -55 167 -102 207l-89 -63l-16 22l82 58c-62 42 -133 48 -184 48l7 29c63 2 141 -9 207 -55l83 59l16 -23zM272 23
c142 0 162 104 162 263c0 29 -1 56 -4 81c-60 35 -107 45 -164 45c-122 0 -158 -80 -158 -192c0 -144 53 -197 164 -197z" />
    <glyph glyph-name="dcaron" unicode="&#x10f;" horiz-adv-x="564" 
d="M553 702c11 0 15 -5 15 -15v-55c-1 -35 -8 -79 -19 -114l-17 5c3 35 5 55 5 98c-7 0 -11 5 -10 12l1 54c-1 10 4 15 14 15h11zM434 539v161h39v-700h-30l-6 80c-66 -58 -128 -92 -197 -92c-125 0 -173 74 -173 253c0 184 51 253 177 253c64 0 126 -18 193 -48
c-4 33 -3 58 -3 93zM108 242c0 -162 40 -218 140 -218c61 0 110 27 186 89v302c-74 28 -125 43 -185 43c-101 0 -141 -55 -141 -216z" />
    <glyph glyph-name="dcroat" unicode="&#x111;" horiz-adv-x="557" 
d="M546 613v-27h-73v-586h-30l-6 80c-66 -58 -128 -92 -197 -92c-125 0 -173 74 -173 253c0 184 51 253 177 253c64 0 126 -18 193 -48c-4 33 -3 58 -3 93v47h-171v27h171v87h39v-87h73zM108 242c0 -162 40 -218 140 -218c61 0 110 27 186 89v302c-74 28 -125 43 -185 43
c-101 0 -141 -55 -141 -216z" />
    <glyph glyph-name="uni1E0D" unicode="&#x1e0d;" horiz-adv-x="564" 
d="M434 700h39v-700h-30l-6 80c-66 -58 -128 -92 -197 -92c-125 0 -173 74 -173 253c0 184 51 253 177 253c64 0 126 -18 193 -48c-4 33 -3 58 -3 93v161zM108 242c0 -162 40 -218 140 -218c61 0 110 27 186 89v302c-74 28 -125 43 -185 43c-101 0 -141 -55 -141 -216z
M296 -73c11 0 16 -5 16 -15v-61c0 -10 -5 -16 -16 -16h-14c-10 0 -16 6 -16 16v61c0 10 6 15 16 15h14z" />
    <glyph glyph-name="uni1E0F" unicode="&#x1e0f;" horiz-adv-x="564" 
d="M434 700h39v-700h-30l-6 80c-66 -58 -128 -92 -197 -92c-125 0 -173 74 -173 253c0 184 51 253 177 253c64 0 126 -18 193 -48c-4 33 -3 58 -3 93v161zM108 242c0 -162 40 -218 140 -218c61 0 110 27 186 89v302c-74 28 -125 43 -185 43c-101 0 -141 -55 -141 -216z
M156 -129v33h264v-33h-264z" />
    <glyph glyph-name="uni01C6" unicode="&#x1c6;" horiz-adv-x="1066" 
d="M824 568h-24l-139 120l18 18l129 -98h8l130 98l16 -18zM434 539v161h39v-700h-30l-6 80c-66 -58 -128 -92 -197 -92c-125 0 -173 74 -173 253c0 184 51 253 177 253c64 0 126 -18 193 -48c-4 33 -3 58 -3 93zM664 34h350v-34h-398v34l347 413h-344v35h392v-35zM108 242
c0 -162 40 -218 140 -218c61 0 110 27 186 89v302c-74 28 -125 43 -185 43c-101 0 -141 -55 -141 -216z" />
    <glyph glyph-name="e" unicode="e" horiz-adv-x="530" 
d="M289 24c62 0 124 6 165 12l5 -28c-36 -12 -122 -20 -175 -20c-156 0 -219 71 -219 255c0 186 60 251 211 251c130 0 192 -48 194 -142c2 -86 -28 -131 -106 -131h-257c5 -150 60 -197 182 -197zM278 458c-125 0 -169 -52 -171 -204h251c55 0 73 37 71 96
c-1 76 -50 108 -151 108z" />
    <glyph glyph-name="eacute" unicode="&#xe9;" horiz-adv-x="530" 
d="M405 690l-163 -135l-18 19l155 146zM289 24c62 0 124 6 165 12l5 -28c-36 -12 -122 -20 -175 -20c-156 0 -219 71 -219 255c0 186 60 251 211 251c130 0 192 -48 194 -142c2 -86 -28 -131 -106 -131h-257c5 -150 60 -197 182 -197zM278 458c-125 0 -169 -52 -171 -204
h251c55 0 73 37 71 96c-1 76 -50 108 -151 108z" />
    <glyph glyph-name="ebreve" unicode="&#x115;" horiz-adv-x="530" 
d="M278 571c-87 0 -142 46 -140 119l24 4c0 -56 44 -89 116 -89c70 0 114 33 114 89l25 -4c1 -73 -52 -119 -139 -119zM289 24c62 0 124 6 165 12l5 -28c-36 -12 -122 -20 -175 -20c-156 0 -219 71 -219 255c0 186 60 251 211 251c130 0 192 -48 194 -142
c2 -86 -28 -131 -106 -131h-257c5 -150 60 -197 182 -197zM278 458c-125 0 -169 -52 -171 -204h251c55 0 73 37 71 96c-1 76 -50 108 -151 108z" />
    <glyph glyph-name="ecaron" unicode="&#x11b;" horiz-adv-x="530" 
d="M291 568h-24l-139 120l18 18l129 -98h8l130 98l16 -18zM289 24c62 0 124 6 165 12l5 -28c-36 -12 -122 -20 -175 -20c-156 0 -219 71 -219 255c0 186 60 251 211 251c130 0 192 -48 194 -142c2 -86 -28 -131 -106 -131h-257c5 -150 60 -197 182 -197zM278 458
c-125 0 -169 -52 -171 -204h251c55 0 73 37 71 96c-1 76 -50 108 -151 108z" />
    <glyph glyph-name="uni1E1D" unicode="&#x1e1d;" horiz-adv-x="530" 
d="M278 571c-88 0 -142 46 -141 119l25 4c0 -56 44 -89 116 -89c70 0 114 33 114 89l24 -4c2 -73 -52 -119 -138 -119zM289 24c62 0 124 6 165 12l5 -28c-36 -12 -122 -20 -175 -20c-156 0 -219 71 -219 255c0 186 60 251 211 251c130 0 192 -48 194 -142
c2 -86 -28 -131 -106 -131h-257c5 -150 60 -197 182 -197zM278 458c-125 0 -169 -52 -171 -204h251c55 0 73 37 71 96c-1 76 -50 108 -151 108zM232 -49c58 4 88 -14 87 -65c-2 -72 -59 -121 -147 -110l7 23c66 -3 107 37 108 85c0 33 -15 45 -59 46z" />
    <glyph glyph-name="ecircumflex" unicode="&#xea;" horiz-adv-x="530" 
d="M273 665l-129 -101l-17 19l135 119h29l135 -119l-15 -19l-130 101h-8zM289 24c62 0 124 6 165 12l5 -28c-36 -12 -122 -20 -175 -20c-156 0 -219 71 -219 255c0 186 60 251 211 251c130 0 192 -48 194 -142c2 -86 -28 -131 -106 -131h-257c5 -150 60 -197 182 -197z
M278 458c-125 0 -169 -52 -171 -204h251c55 0 73 37 71 96c-1 76 -50 108 -151 108z" />
    <glyph glyph-name="uni1EBF" unicode="&#x1ebf;" horiz-adv-x="530" 
d="M493 762l-112 -98l-17 17l103 107zM273 663l-122 -89l-16 18l127 106h29l127 -106l-15 -18l-122 89h-8zM470 352c2 -86 -28 -131 -106 -131h-257c5 -150 60 -197 182 -197c62 0 124 6 165 12l5 -28c-36 -12 -122 -20 -175 -20c-156 0 -219 71 -219 255
c0 186 60 251 211 251c130 0 192 -48 194 -142zM107 254h251c55 0 73 37 71 96c-1 76 -50 108 -151 108c-125 0 -169 -52 -171 -204z" />
    <glyph glyph-name="uni1EC7" unicode="&#x1ec7;" horiz-adv-x="530" 
d="M273 665l-129 -101l-17 19l135 119h30l135 -119l-16 -19l-130 101h-8zM289 24c62 0 124 6 165 12l5 -28c-36 -12 -122 -20 -175 -20c-156 0 -219 71 -219 255c0 186 60 251 211 251c130 0 192 -48 194 -142c2 -86 -28 -131 -106 -131h-257c5 -150 60 -197 182 -197z
M278 458c-125 0 -169 -52 -171 -204h251c55 0 73 37 71 96c-1 76 -50 108 -151 108zM273 -63c11 0 16 -5 16 -15v-61c0 -10 -5 -16 -16 -16h-14c-10 0 -16 6 -16 16v61c0 10 6 15 16 15h14z" />
    <glyph glyph-name="uni1EC1" unicode="&#x1ec1;" horiz-adv-x="530" 
d="M189 681l-17 -17l-111 98l26 26zM144 582l15 31l118 85l38 -22l96 -93l-32 6l-100 74l-30 -16zM289 24c62 0 124 6 165 12l5 -28c-36 -12 -122 -20 -175 -20c-156 0 -219 71 -219 255c0 186 60 251 211 251c130 0 192 -48 194 -142c2 -86 -28 -131 -106 -131h-257
c5 -150 60 -197 182 -197zM278 458c-125 0 -169 -52 -171 -204h251c55 0 73 37 71 96c-1 76 -50 108 -151 108z" />
    <glyph glyph-name="uni1EC3" unicode="&#x1ec3;" horiz-adv-x="530" 
d="M435 742c0 35 -31 45 -84 31l-5 22c70 21 117 3 117 -52c0 -37 -27 -73 -83 -85l-5 18c41 14 60 38 60 66zM273 663l-123 -89l-15 18l127 106h29l127 -106l-15 -18l-122 89h-8zM289 24c62 0 124 6 165 12l5 -28c-36 -12 -122 -20 -175 -20c-156 0 -219 71 -219 255
c0 186 60 251 211 251c130 0 192 -48 194 -142c2 -86 -28 -131 -106 -131h-257c5 -150 60 -197 182 -197zM278 458c-125 0 -169 -52 -171 -204h251c55 0 73 37 71 96c-1 76 -50 108 -151 108z" />
    <glyph glyph-name="uni1EC5" unicode="&#x1ec5;" horiz-adv-x="530" 
d="M165 717h-22c-4 63 27 95 72 91c58 -5 70 -57 126 -62c38 -3 53 15 53 57h21c4 -59 -26 -91 -71 -87c-65 6 -79 57 -127 62c-38 4 -52 -16 -52 -61zM273 663l-123 -89l-15 18l127 106h29l127 -106l-15 -18l-122 89h-8zM289 24c62 0 124 6 165 12l5 -28
c-36 -12 -122 -20 -175 -20c-156 0 -219 71 -219 255c0 186 60 251 211 251c130 0 192 -48 194 -142c2 -86 -28 -131 -106 -131h-257c5 -150 60 -197 182 -197zM278 458c-125 0 -169 -52 -171 -204h251c55 0 73 37 71 96c-1 76 -50 108 -151 108z" />
    <glyph glyph-name="uni0205" unicode="&#x205;" horiz-adv-x="530" 
d="M235 566l-21 -14l-122 154l33 22zM382 566l-22 -14l-121 154l32 22zM289 24c62 0 124 6 165 12l5 -28c-36 -12 -122 -20 -175 -20c-156 0 -219 71 -219 255c0 186 60 251 211 251c130 0 192 -48 194 -142c2 -86 -28 -131 -106 -131h-257c5 -150 60 -197 182 -197z
M278 458c-125 0 -169 -52 -171 -204h251c55 0 73 37 71 96c-1 76 -50 108 -151 108z" />
    <glyph glyph-name="edieresis" unicode="&#xeb;" horiz-adv-x="530" 
d="M181 594c-9 0 -13 5 -13 14v56c0 9 4 14 13 14h15c9 0 14 -5 14 -14v-56c0 -9 -5 -14 -14 -14h-15zM358 594c-9 0 -13 5 -13 14v56c0 9 4 14 13 14h15c9 0 14 -5 14 -14v-56c0 -9 -5 -14 -14 -14h-15zM289 24c62 0 124 6 165 12l5 -28c-36 -12 -122 -20 -175 -20
c-156 0 -219 71 -219 255c0 186 60 251 211 251c130 0 192 -48 194 -142c2 -86 -28 -131 -106 -131h-257c5 -150 60 -197 182 -197zM278 458c-125 0 -169 -52 -171 -204h251c55 0 73 37 71 96c-1 76 -50 108 -151 108z" />
    <glyph glyph-name="edotaccent" unicode="&#x117;" horiz-adv-x="530" 
d="M271 589c-11 0 -16 5 -16 15v61c0 10 5 15 16 15h14c10 0 16 -5 16 -15v-61c0 -10 -6 -15 -16 -15h-14zM289 24c62 0 124 6 165 12l5 -28c-36 -12 -122 -20 -175 -20c-156 0 -219 71 -219 255c0 186 60 251 211 251c130 0 192 -48 194 -142c2 -86 -28 -131 -106 -131
h-257c5 -150 60 -197 182 -197zM278 458c-125 0 -169 -52 -171 -204h251c55 0 73 37 71 96c-1 76 -50 108 -151 108z" />
    <glyph glyph-name="uni1EB9" unicode="&#x1eb9;" horiz-adv-x="530" 
d="M289 24c62 0 124 6 165 12l5 -28c-36 -12 -122 -20 -175 -20c-156 0 -219 71 -219 255c0 186 60 251 211 251c130 0 192 -48 194 -142c2 -86 -28 -131 -106 -131h-257c5 -150 60 -197 182 -197zM278 458c-125 0 -169 -52 -171 -204h251c55 0 73 37 71 96
c-1 76 -50 108 -151 108zM273 -63c11 0 16 -5 16 -15v-61c0 -10 -5 -16 -16 -16h-14c-11 0 -16 6 -16 16v61c0 10 5 15 16 15h14z" />
    <glyph glyph-name="egrave" unicode="&#xe8;" horiz-adv-x="530" 
d="M321 573l-18 -20l-163 136l26 29zM289 24c62 0 124 6 165 12l5 -28c-36 -12 -122 -20 -175 -20c-156 0 -219 71 -219 255c0 186 60 251 211 251c130 0 192 -48 194 -142c2 -86 -28 -131 -106 -131h-257c5 -150 60 -197 182 -197zM278 458c-125 0 -169 -52 -171 -204h251
c55 0 73 37 71 96c-1 76 -50 108 -151 108z" />
    <glyph glyph-name="uni1EBB" unicode="&#x1ebb;" horiz-adv-x="530" 
d="M331 662c0 44 -35 58 -92 47l-6 23c77 20 129 -3 129 -68c0 -46 -29 -88 -91 -103l-7 21c48 16 67 46 67 80zM289 24c62 0 124 6 165 12l5 -28c-36 -12 -122 -20 -175 -20c-156 0 -219 71 -219 255c0 186 60 251 211 251c130 0 192 -48 194 -142
c2 -86 -28 -131 -106 -131h-257c5 -150 60 -197 182 -197zM278 458c-125 0 -169 -52 -171 -204h251c55 0 73 37 71 96c-1 76 -50 108 -151 108z" />
    <glyph glyph-name="uni0207" unicode="&#x207;" horiz-adv-x="530" 
d="M161 573l-24 5c-1 73 52 118 138 118c88 0 142 -45 141 -118l-25 -5c0 57 -43 89 -116 89c-69 0 -114 -32 -114 -89zM289 24c62 0 124 6 165 12l5 -28c-36 -12 -122 -20 -175 -20c-156 0 -219 71 -219 255c0 186 60 251 211 251c130 0 192 -48 194 -142
c2 -86 -28 -131 -106 -131h-257c5 -150 60 -197 182 -197zM278 458c-125 0 -169 -52 -171 -204h251c55 0 73 37 71 96c-1 76 -50 108 -151 108z" />
    <glyph glyph-name="emacron" unicode="&#x113;" horiz-adv-x="530" 
d="M410 651v-33h-264v33h264zM289 24c62 0 124 6 165 12l5 -28c-36 -12 -122 -20 -175 -20c-156 0 -219 71 -219 255c0 186 60 251 211 251c130 0 192 -48 194 -142c2 -86 -28 -131 -106 -131h-257c5 -150 60 -197 182 -197zM278 458c-125 0 -169 -52 -171 -204h251
c55 0 73 37 71 96c-1 76 -50 108 -151 108z" />
    <glyph glyph-name="uni1E17" unicode="&#x1e17;" horiz-adv-x="530" 
d="M358 765l-113 -96l-17 18l105 105zM410 637v-33h-264v33h264zM289 24c62 0 124 6 165 12l5 -28c-36 -12 -122 -20 -175 -20c-156 0 -219 71 -219 255c0 186 60 251 211 251c130 0 192 -48 194 -142c2 -86 -28 -131 -106 -131h-257c5 -150 60 -197 182 -197zM278 458
c-125 0 -169 -52 -171 -204h251c55 0 73 37 71 96c-1 76 -50 108 -151 108z" />
    <glyph glyph-name="uni1E15" unicode="&#x1e15;" horiz-adv-x="530" 
d="M328 687l-17 -18l-113 96l25 27zM410 637v-33h-264v33h264zM289 24c62 0 124 6 165 12l5 -28c-36 -12 -122 -20 -175 -20c-156 0 -219 71 -219 255c0 186 60 251 211 251c130 0 192 -48 194 -142c2 -86 -28 -131 -106 -131h-257c5 -150 60 -197 182 -197zM278 458
c-125 0 -169 -52 -171 -204h251c55 0 73 37 71 96c-1 76 -50 108 -151 108z" />
    <glyph glyph-name="eogonek" unicode="&#x119;" horiz-adv-x="530" 
d="M375 -114c-22 -59 17 -78 89 -53l5 -18c-109 -49 -150 4 -126 72c11 31 34 69 80 113c-42 -8 -100 -12 -139 -12c-156 0 -219 71 -219 255c0 186 60 251 211 251c130 0 192 -48 194 -142c2 -86 -28 -131 -106 -131h-257c5 -150 60 -197 182 -197c62 0 124 6 165 12l5 -27
v-1h-1c-35 -35 -65 -74 -83 -122zM278 458c-125 0 -169 -52 -171 -204h251c55 0 73 37 71 96c-1 76 -50 108 -151 108z" />
    <glyph glyph-name="uni1EBD" unicode="&#x1ebd;" horiz-adv-x="530" 
d="M152 593h-23c-3 66 28 99 76 95c60 -5 84 -60 142 -65c41 -3 56 15 56 60h23c4 -62 -28 -96 -76 -92c-67 6 -93 60 -143 65c-40 4 -55 -17 -55 -63zM289 24c62 0 124 6 165 12l5 -28c-36 -12 -122 -20 -175 -20c-156 0 -219 71 -219 255c0 186 60 251 211 251
c130 0 192 -48 194 -142c2 -86 -28 -131 -106 -131h-257c5 -150 60 -197 182 -197zM278 458c-125 0 -169 -52 -171 -204h251c55 0 73 37 71 96c-1 76 -50 108 -151 108z" />
    <glyph glyph-name="uni0259" unicode="&#x259;" horiz-adv-x="529" 
d="M245 494c156 0 219 -71 219 -255c0 -186 -61 -251 -211 -251c-131 0 -193 47 -194 142c-2 86 27 131 106 131h257c-5 150 -60 197 -182 197c-62 0 -124 -6 -165 -13l-5 28c35 13 122 21 175 21zM251 24c125 0 169 52 171 204h-251c-55 0 -73 -37 -72 -97
c2 -75 50 -107 152 -107z" />
    <glyph glyph-name="f" unicode="f" horiz-adv-x="361" 
d="M263 680c-75 0 -103 -27 -103 -103v-95h172v-34h-172v-448h-40v448h-87v29l87 5v97c0 89 35 136 130 136c29 0 88 -1 123 -5l-2 -30h-108z" />
    <glyph glyph-name="g" unicode="g" horiz-adv-x="548" 
d="M521 482l-3 -26l-93 -4c27 -25 39 -61 39 -109c0 -101 -53 -149 -195 -149c-50 0 -88 6 -118 18c-38 -45 -38 -104 41 -118l190 -33c86 -14 109 -52 109 -129c0 -105 -59 -141 -216 -141c-164 0 -222 36 -222 140c0 66 14 103 72 133l15 8c-67 31 -60 110 -11 151
c-39 24 -56 64 -56 120c0 101 54 151 197 151c40 0 73 -4 100 -12h151zM269 227c116 0 157 37 157 116s-40 118 -157 118c-116 0 -158 -39 -158 -118s43 -116 158 -116zM452 -67c0 60 -15 84 -86 97l-193 32h-2l-21 -13c-46 -29 -58 -58 -58 -116c0 -81 47 -107 182 -107
c131 0 178 27 178 107z" />
    <glyph glyph-name="gbreve" unicode="&#x11f;" horiz-adv-x="548" 
d="M271 571c-87 0 -142 46 -140 119l24 4c0 -56 44 -89 116 -89c70 0 114 33 114 89l25 -4c1 -73 -52 -119 -139 -119zM521 482l-3 -26l-93 -4c27 -25 39 -61 39 -109c0 -101 -53 -149 -195 -149c-50 0 -88 6 -118 18c-38 -45 -38 -104 41 -118l190 -33
c86 -14 109 -52 109 -129c0 -105 -59 -141 -216 -141c-164 0 -222 36 -222 140c0 66 14 103 72 133l15 8c-67 31 -60 110 -11 151c-39 24 -56 64 -56 120c0 101 54 151 197 151c40 0 73 -4 100 -12h151zM269 227c116 0 157 37 157 116s-40 118 -157 118
c-116 0 -158 -39 -158 -118s43 -116 158 -116zM452 -67c0 60 -15 84 -86 97l-193 32h-2l-21 -13c-46 -29 -58 -58 -58 -116c0 -81 47 -107 182 -107c131 0 178 27 178 107z" />
    <glyph glyph-name="gcaron" unicode="&#x1e7;" horiz-adv-x="548" 
d="M284 568h-24l-139 120l18 18l129 -98h8l130 98l16 -18zM521 482l-3 -26l-93 -4c27 -25 39 -61 39 -109c0 -101 -53 -149 -195 -149c-50 0 -88 6 -118 18c-38 -45 -38 -104 41 -118l190 -33c86 -14 109 -52 109 -129c0 -105 -59 -141 -216 -141c-164 0 -222 36 -222 140
c0 66 14 103 72 133l15 8c-67 31 -60 110 -11 151c-39 24 -56 64 -56 120c0 101 54 151 197 151c40 0 73 -4 100 -12h151zM269 227c116 0 157 37 157 116s-40 118 -157 118c-116 0 -158 -39 -158 -118s43 -116 158 -116zM452 -67c0 60 -15 84 -86 97l-193 32h-2l-21 -13
c-46 -29 -58 -58 -58 -116c0 -81 47 -107 182 -107c131 0 178 27 178 107z" />
    <glyph glyph-name="gcircumflex" unicode="&#x11d;" horiz-adv-x="548" 
d="M266 665l-129 -101l-17 19l135 119h29l135 -119l-15 -19l-130 101h-8zM521 482l-3 -26l-93 -4c27 -25 39 -61 39 -109c0 -101 -53 -149 -195 -149c-50 0 -88 6 -118 18c-38 -45 -38 -104 41 -118l190 -33c86 -14 109 -52 109 -129c0 -105 -59 -141 -216 -141
c-164 0 -222 36 -222 140c0 66 14 103 72 133l15 8c-67 31 -60 110 -11 151c-39 24 -56 64 -56 120c0 101 54 151 197 151c40 0 73 -4 100 -12h151zM269 227c116 0 157 37 157 116s-40 118 -157 118c-116 0 -158 -39 -158 -118s43 -116 158 -116zM452 -67
c0 60 -15 84 -86 97l-193 32h-2l-21 -13c-46 -29 -58 -58 -58 -116c0 -81 47 -107 182 -107c131 0 178 27 178 107z" />
    <glyph glyph-name="gcommaaccent" unicode="&#x123;" horiz-adv-x="548" 
d="M270 564c-11 0 -15 4 -15 15v57c1 37 8 84 21 120l17 -6c-4 -36 -4 -57 -4 -102c5 0 10 -5 10 -13l-1 -56c1 -11 -5 -15 -16 -15h-12zM521 482l-3 -26l-93 -4c27 -25 39 -61 39 -109c0 -101 -53 -149 -195 -149c-50 0 -88 6 -118 18c-38 -45 -38 -104 41 -118l190 -33
c86 -14 109 -52 109 -129c0 -105 -59 -141 -216 -141c-164 0 -222 36 -222 140c0 66 14 103 72 133l15 8c-67 31 -60 110 -11 151c-39 24 -56 64 -56 120c0 101 54 151 197 151c40 0 73 -4 100 -12h151zM269 227c116 0 157 37 157 116s-40 118 -157 118
c-116 0 -158 -39 -158 -118s43 -116 158 -116zM452 -67c0 60 -15 84 -86 97l-193 32h-2l-21 -13c-46 -29 -58 -58 -58 -116c0 -81 47 -107 182 -107c131 0 178 27 178 107z" />
    <glyph glyph-name="gdotaccent" unicode="&#x121;" horiz-adv-x="548" 
d="M264 589c-11 0 -16 5 -16 15v61c0 10 5 15 16 15h14c10 0 16 -5 16 -15v-61c0 -10 -6 -15 -16 -15h-14zM521 482l-3 -26l-93 -4c27 -25 39 -61 39 -109c0 -101 -53 -149 -195 -149c-50 0 -88 6 -118 18c-38 -45 -38 -104 41 -118l190 -33c86 -14 109 -52 109 -129
c0 -105 -59 -141 -216 -141c-164 0 -222 36 -222 140c0 66 14 103 72 133l15 8c-67 31 -60 110 -11 151c-39 24 -56 64 -56 120c0 101 54 151 197 151c40 0 73 -4 100 -12h151zM269 227c116 0 157 37 157 116s-40 118 -157 118c-116 0 -158 -39 -158 -118s43 -116 158 -116z
M452 -67c0 60 -15 84 -86 97l-193 32h-2l-21 -13c-46 -29 -58 -58 -58 -116c0 -81 47 -107 182 -107c131 0 178 27 178 107z" />
    <glyph glyph-name="uni1E21" unicode="&#x1e21;" horiz-adv-x="548" 
d="M403 651v-33h-265v33h265zM521 482l-3 -26l-93 -4c27 -25 39 -61 39 -109c0 -101 -53 -149 -195 -149c-50 0 -88 6 -118 18c-38 -45 -38 -104 41 -118l190 -33c86 -14 109 -52 109 -129c0 -105 -59 -141 -216 -141c-164 0 -222 36 -222 140c0 66 14 103 72 133l15 8
c-67 31 -60 110 -11 151c-39 24 -56 64 -56 120c0 101 54 151 197 151c40 0 73 -4 100 -12h151zM269 227c116 0 157 37 157 116s-40 118 -157 118c-116 0 -158 -39 -158 -118s43 -116 158 -116zM452 -67c0 60 -15 84 -86 97l-193 32h-2l-21 -13c-46 -29 -58 -58 -58 -116
c0 -81 47 -107 182 -107c131 0 178 27 178 107z" />
    <glyph glyph-name="h" unicode="h" horiz-adv-x="572" 
d="M355 494c86 0 130 -45 130 -132v-362h-40v354c0 73 -31 104 -99 104c-69 0 -128 -32 -216 -92v-366h-40v700h40l1 -209c0 -36 -1 -68 -5 -94c80 60 156 97 229 97z" />
    <glyph glyph-name="hbar" unicode="&#x127;" horiz-adv-x="576" 
d="M359 494c86 0 130 -45 130 -132v-362h-40v354c0 73 -31 104 -99 104c-69 0 -128 -32 -216 -92v-366h-40v586h-83v27h83v87h40v-87h160v-27h-159v-95c0 -36 -1 -68 -5 -94c80 60 156 97 229 97z" />
    <glyph glyph-name="uni1E2B" unicode="&#x1e2b;" horiz-adv-x="572" 
d="M355 494c86 0 130 -45 130 -132v-362h-40v354c0 73 -31 104 -99 104c-69 0 -128 -32 -216 -92v-366h-40v700h40l1 -209c0 -36 -1 -68 -5 -94c80 60 156 97 229 97zM407 -45l24 -5c2 -72 -52 -118 -138 -118c-88 0 -142 46 -141 118l25 5c0 -57 44 -89 116 -89
c70 0 114 32 114 89z" />
    <glyph glyph-name="hcircumflex" unicode="&#x125;" horiz-adv-x="572" 
d="M112 813h-8l-129 -101l-17 19l135 119h29l135 -119l-15 -19zM355 494c86 0 130 -45 130 -132v-362h-40v354c0 73 -31 104 -99 104c-69 0 -128 -32 -216 -92v-366h-40v700h40l1 -209c0 -36 -1 -68 -5 -94c80 60 156 97 229 97z" />
    <glyph glyph-name="uni1E25" unicode="&#x1e25;" horiz-adv-x="572" 
d="M355 494c86 0 130 -45 130 -132v-362h-40v354c0 73 -31 104 -99 104c-69 0 -128 -32 -216 -92v-366h-40v700h40l1 -209c0 -36 -1 -68 -5 -94c80 60 156 97 229 97zM299 -63c11 0 16 -5 16 -15v-61c0 -10 -5 -16 -16 -16h-14c-10 0 -16 6 -16 16v61c0 10 6 15 16 15h14z
" />
    <glyph glyph-name="i" unicode="i" horiz-adv-x="227" 
d="M123 683c10 0 15 -6 15 -16v-60c0 -11 -5 -16 -15 -16h-18c-11 0 -16 5 -16 16v60c0 10 5 16 16 16h18zM133 482v-482h-39v482h39z" />
    <glyph glyph-name="dotlessi" unicode="&#x131;" horiz-adv-x="228" 
d="M134 482v-482h-40v482h40z" />
    <glyph glyph-name="iacute" unicode="&#xed;" horiz-adv-x="228" 
d="M214 720l26 -30l-163 -135l-18 19zM134 482v-482h-40v482h40z" />
    <glyph glyph-name="ibreve" unicode="&#x12d;" horiz-adv-x="228" 
d="M227 694l25 -4c1 -73 -52 -119 -139 -119s-142 46 -140 119l24 4c0 -56 44 -89 116 -89c70 0 114 33 114 89zM134 482v-482h-40v482h40z" />
    <glyph glyph-name="icircumflex" unicode="&#xee;" horiz-adv-x="228" 
d="M126 702l135 -119l-15 -19l-130 101h-8l-129 -101l-17 19l135 119h29zM134 482v-482h-40v482h40z" />
    <glyph glyph-name="uni0209" unicode="&#x209;" horiz-adv-x="228" 
d="M-40 728l110 -162l-21 -14l-122 154zM106 728l111 -162l-22 -14l-121 154zM134 482v-482h-40v482h40z" />
    <glyph glyph-name="idieresis" unicode="&#xef;" horiz-adv-x="228" 
d="M31 678c9 0 14 -5 14 -14v-56c0 -9 -5 -14 -14 -14h-15c-9 0 -13 5 -13 14v56c0 9 4 14 13 14h15zM208 678c9 0 14 -5 14 -14v-56c0 -9 -5 -14 -14 -14h-15c-9 0 -13 5 -13 14v56c0 9 4 14 13 14h15zM134 482v-482h-40v482h40z" />
    <glyph glyph-name="uni1E2F" unicode="&#x1e2f;" horiz-adv-x="228" 
d="M190 831l25 -27l-140 -116l-16 18zM39 649c8 0 12 -4 12 -13v-50c0 -9 -4 -13 -12 -13h-13c-9 0 -13 4 -13 13v50c0 9 4 13 13 13h13zM200 649c8 0 12 -4 12 -13v-50c0 -9 -4 -13 -12 -13h-14c-8 0 -12 4 -12 13v50c0 9 4 13 12 13h14zM134 482v-482h-40v482h40z" />
    <glyph glyph-name="i.loclTRK" horiz-adv-x="228" 
d="M120 680c10 0 16 -5 16 -15v-61c0 -10 -6 -15 -16 -15h-14c-11 0 -16 5 -16 15v61c0 10 5 15 16 15h14zM134 482v-482h-40v482h40z" />
    <glyph glyph-name="uni1ECB" unicode="&#x1ecb;" horiz-adv-x="227" 
d="M123 683c10 0 15 -6 15 -16v-60c0 -11 -5 -16 -15 -16h-18c-11 0 -16 5 -16 16v60c0 10 5 16 16 16h18zM133 482v-482h-39v482h39zM123 -63c11 0 16 -5 16 -15v-61c0 -10 -5 -16 -16 -16h-14c-11 0 -16 6 -16 16v61c0 10 5 15 16 15h14z" />
    <glyph glyph-name="igrave" unicode="&#xec;" horiz-adv-x="228" 
d="M1 718l155 -145l-18 -20l-163 136zM134 482v-482h-40v482h40z" />
    <glyph glyph-name="uni1EC9" unicode="&#x1ec9;" horiz-adv-x="228" 
d="M99 582c48 16 67 46 67 80c0 44 -35 58 -92 47l-6 23c77 20 129 -3 129 -68c0 -46 -29 -88 -91 -103zM134 482v-482h-40v482h40z" />
    <glyph glyph-name="uni020B" unicode="&#x20b;" horiz-adv-x="228" 
d="M-4 573l-24 5c-1 73 52 118 138 118c88 0 142 -45 141 -118l-25 -5c0 57 -43 89 -116 89c-69 0 -114 -32 -114 -89zM134 482v-482h-40v482h40z" />
    <glyph glyph-name="ij" unicode="&#x133;" horiz-adv-x="455" 
d="M123 683c10 0 15 -6 15 -16v-60c0 -11 -5 -16 -15 -16h-18c-11 0 -16 5 -16 16v60c0 10 5 16 16 16h18zM350 683c10 0 15 -6 15 -16v-60c0 -11 -5 -16 -15 -16h-18c-10 0 -15 5 -15 16v60c0 10 5 16 15 16h18zM133 482v-482h-39v482h39zM361 482v-519
c0 -69 -29 -127 -73 -171l-22 17c35 45 55 89 55 154v519h40z" />
    <glyph glyph-name="imacron" unicode="&#x12b;" horiz-adv-x="228" 
d="M245 651v-33h-264v33h264zM134 482v-482h-40v482h40z" />
    <glyph glyph-name="iogonek" unicode="&#x12f;" horiz-adv-x="228" 
d="M106 589c-11 0 -16 5 -16 15v61c0 10 5 15 16 15h14c10 0 16 -5 16 -15v-61c0 -10 -6 -15 -16 -15h-14zM137 -176l5 -18c-109 -49 -150 4 -126 72c12 34 37 75 90 122h-12v482h40v-482h-2c-35 -35 -66 -74 -84 -123c-22 -59 17 -78 89 -53z" />
    <glyph glyph-name="itilde" unicode="&#x129;" horiz-adv-x="228" 
d="M40 688c60 -5 84 -60 142 -65c41 -3 56 15 56 60h23c4 -62 -28 -96 -76 -92c-67 6 -93 60 -143 65c-40 4 -55 -17 -55 -63h-23c-3 66 28 99 76 95zM134 482v-482h-40v482h40z" />
    <glyph glyph-name="j" unicode="j" horiz-adv-x="228" 
d="M123 683c10 0 15 -6 15 -16v-60c0 -11 -5 -16 -15 -16h-18c-10 0 -15 5 -15 16v60c0 10 5 16 15 16h18zM134 482v-519c0 -69 -29 -127 -73 -171l-22 17c35 45 55 89 55 154v519h40z" />
    <glyph glyph-name="uni0237" unicode="&#x237;" horiz-adv-x="228" 
d="M134 482v-519c0 -69 -29 -127 -73 -171l-22 17c35 45 55 89 55 154v519h40z" />
    <glyph glyph-name="jcircumflex" unicode="&#x135;" horiz-adv-x="228" 
d="M126 702l135 -119l-15 -19l-130 101h-8l-129 -101l-17 19l135 119h29zM134 482v-519c0 -69 -29 -127 -73 -171l-22 17c35 45 55 89 55 154v519h40z" />
    <glyph glyph-name="k" unicode="k" horiz-adv-x="482" 
d="M405 0l-199 259h-79c2 -29 3 -56 3 -85v-174h-40v700h40l1 -327c0 -30 -1 -54 -4 -82h78l183 191h49l-173 -184c-7 -7 -19 -18 -26 -23v-2c7 -6 19 -19 26 -29l189 -244h-48z" />
    <glyph glyph-name="kcommaaccent" unicode="&#x137;" horiz-adv-x="482" 
d="M264 244l189 -244h-48l-199 259h-79c2 -29 3 -56 3 -85v-174h-40v700h40l1 -327c0 -30 -1 -54 -4 -82h78l183 191h49l-173 -184c-7 -7 -19 -18 -26 -23v-2c7 -6 19 -19 26 -29zM271 -63c11 0 15 -4 15 -15v-57c-1 -37 -8 -84 -21 -120l-17 6c4 36 4 57 4 102
c-5 0 -10 5 -10 13l1 56c-1 11 5 15 16 15h12z" />
    <glyph glyph-name="kgreenlandic" unicode="&#x138;" horiz-adv-x="482" 
d="M405 0l-198 237h-80c2 -29 3 -56 3 -85v-152h-40v482h40l1 -130c1 -31 0 -55 -4 -83h77l184 213h49l-174 -200c-7 -8 -20 -20 -26 -24v-2c6 -6 18 -19 26 -29l190 -227h-48z" />
    <glyph glyph-name="l" unicode="l" horiz-adv-x="277" 
d="M131 700l-1 -594c0 -50 28 -76 77 -76h55l5 -29c-15 -5 -51 -8 -70 -8c-64 0 -106 38 -106 107v600h40z" />
    <glyph glyph-name="lacute" unicode="&#x13a;" horiz-adv-x="277" 
d="M213 923l26 -30l-163 -135l-18 19zM131 700l-1 -594c0 -50 28 -76 77 -76h55l5 -29c-15 -5 -51 -8 -70 -8c-64 0 -106 38 -106 107v600h40z" />
    <glyph glyph-name="lcaron" unicode="&#x13e;" horiz-adv-x="277" 
d="M235 702c11 0 15 -5 15 -15v-55c-1 -35 -8 -79 -19 -114l-17 5c3 35 5 55 5 98c-7 0 -11 5 -10 12l1 54c-1 10 4 15 14 15h11zM131 700l-1 -594c0 -50 28 -76 77 -76h55l5 -29c-15 -5 -51 -8 -70 -8c-64 0 -106 38 -106 107v600h40z" />
    <glyph glyph-name="lcommaaccent" unicode="&#x13c;" horiz-adv-x="277" 
d="M131 700l-1 -594c0 -50 28 -76 77 -76h55l5 -29c-15 -5 -51 -8 -70 -8c-64 0 -106 38 -106 107v600h40zM174 -71c11 0 15 -4 15 -15v-57c-1 -37 -8 -84 -21 -120l-17 6c4 36 4 57 4 102c-5 0 -10 5 -10 13l1 56c-1 11 5 15 16 15h12z" />
    <glyph glyph-name="ldot" unicode="&#x140;" horiz-adv-x="297" 
d="M131 700l-1 -594c0 -50 28 -76 77 -76h55l5 -29c-15 -5 -51 -8 -70 -8c-64 0 -106 38 -106 107v600h40zM248 344c-10 0 -16 5 -16 15v61c0 10 6 15 16 15h14c11 0 16 -5 16 -15v-61c0 -10 -5 -15 -16 -15h-14z" />
    <glyph glyph-name="uni1E37" unicode="&#x1e37;" horiz-adv-x="277" 
d="M131 700l-1 -594c0 -50 28 -76 77 -76h55l5 -29c-15 -5 -51 -8 -70 -8c-64 0 -106 38 -106 107v600h40zM194 -63c11 0 16 -5 16 -15v-61c0 -10 -5 -16 -16 -16h-14c-10 0 -16 6 -16 16v61c0 10 6 15 16 15h14z" />
    <glyph glyph-name="uni01C9" unicode="&#x1c9;" horiz-adv-x="505" 
d="M131 700l-1 -594c0 -50 28 -76 77 -76h55l5 -29c-15 -5 -51 -8 -70 -8c-64 0 -106 38 -106 107v600h40zM400 683c10 0 15 -6 15 -16v-60c0 -11 -5 -16 -15 -16h-18c-10 0 -15 5 -15 16v60c0 10 5 16 15 16h18zM411 482v-519c0 -69 -29 -127 -73 -171l-22 17
c35 45 55 89 55 154v519h40z" />
    <glyph glyph-name="uni1E3B" unicode="&#x1e3b;" horiz-adv-x="277" 
d="M131 700l-1 -594c0 -50 28 -76 77 -76h55l5 -29c-15 -5 -51 -8 -70 -8c-64 0 -106 38 -106 107v600h40zM318 -86v-33h-264v33h264z" />
    <glyph glyph-name="lslash" unicode="&#x142;" horiz-adv-x="309" 
d="M285 30l5 -29c-15 -5 -51 -8 -70 -8c-64 0 -106 38 -106 107v255l-86 -37v30l86 37v315h40l-1 -298l117 51v-30l-117 -51v-266c0 -50 28 -76 77 -76h55z" />
    <glyph glyph-name="m" unicode="m" horiz-adv-x="879" 
d="M667 494c81 0 125 -45 125 -132v-362h-39v354c-1 72 -33 104 -98 104c-62 0 -112 -30 -194 -91v-5v-362h-39v354c0 72 -33 104 -98 104c-61 0 -112 -30 -194 -92v-366h-39v482h31l4 -85c73 64 141 97 210 97c68 0 111 -33 122 -96c73 64 141 96 209 96z" />
    <glyph glyph-name="uni1E43" unicode="&#x1e43;" horiz-adv-x="879" 
d="M667 494c81 0 125 -45 125 -132v-362h-39v354c-1 72 -33 104 -98 104c-62 0 -112 -30 -194 -91v-5v-362h-39v354c0 72 -33 104 -98 104c-61 0 -112 -30 -194 -92v-366h-39v482h31l4 -85c73 64 141 97 210 97c68 0 111 -33 122 -96c73 64 141 96 209 96zM449 -63
c11 0 16 -5 16 -15v-61c0 -10 -5 -16 -16 -16h-14c-10 0 -16 6 -16 16v61c0 10 6 15 16 15h14z" />
    <glyph glyph-name="n" unicode="n" horiz-adv-x="573" 
d="M356 494c85 0 130 -45 130 -132v-362h-40v354c0 73 -32 104 -99 104c-69 0 -128 -32 -217 -92v-366h-39v482h32l4 -85c80 64 155 97 229 97z" />
    <glyph glyph-name="nacute" unicode="&#x144;" horiz-adv-x="573" 
d="M423 690l-163 -135l-18 19l155 146zM356 494c85 0 130 -45 130 -132v-362h-40v354c0 73 -32 104 -99 104c-69 0 -128 -32 -217 -92v-366h-39v482h32l4 -85c80 64 155 97 229 97z" />
    <glyph glyph-name="ncaron" unicode="&#x148;" horiz-adv-x="573" 
d="M309 568h-24l-139 120l18 18l129 -98h8l130 98l16 -18zM356 494c85 0 130 -45 130 -132v-362h-40v354c0 73 -32 104 -99 104c-69 0 -128 -32 -217 -92v-366h-39v482h32l4 -85c80 64 155 97 229 97z" />
    <glyph glyph-name="ncommaaccent" unicode="&#x146;" horiz-adv-x="573" 
d="M356 494c85 0 130 -45 130 -132v-362h-40v354c0 73 -32 104 -99 104c-69 0 -128 -32 -217 -92v-366h-39v482h32l4 -85c80 64 155 97 229 97zM297 -63c11 0 15 -4 15 -15v-57c-1 -37 -8 -84 -21 -120l-17 6c4 36 4 57 4 102c-5 0 -10 5 -10 13l1 56c-1 11 5 15 16 15h12z
" />
    <glyph glyph-name="uni1E45" unicode="&#x1e45;" horiz-adv-x="573" 
d="M289 589c-10 0 -15 5 -15 15v61c0 10 5 15 15 15h15c10 0 15 -5 15 -15v-61c0 -10 -5 -15 -15 -15h-15zM356 494c85 0 130 -45 130 -132v-362h-40v354c0 73 -32 104 -99 104c-69 0 -128 -32 -217 -92v-366h-39v482h32l4 -85c80 64 155 97 229 97z" />
    <glyph glyph-name="uni1E47" unicode="&#x1e47;" horiz-adv-x="573" 
d="M356 494c85 0 130 -45 130 -132v-362h-40v354c0 73 -32 104 -99 104c-69 0 -128 -32 -217 -92v-366h-39v482h32l4 -85c80 64 155 97 229 97zM296 -63c11 0 16 -5 16 -15v-61c0 -10 -5 -16 -16 -16h-14c-10 0 -16 6 -16 16v61c0 10 6 15 16 15h14z" />
    <glyph glyph-name="eng" unicode="&#x14b;" horiz-adv-x="573" 
d="M356 494c86 0 130 -45 130 -132v-446c0 -82 -38 -126 -114 -125c-18 0 -37 4 -63 8l5 26h47c57 0 85 31 85 94v435c0 71 -31 103 -100 103c-67 0 -129 -32 -216 -91v-366h-39v482h30l4 -86c82 64 157 98 231 98z" />
    <glyph glyph-name="uni01CC" unicode="&#x1cc;" horiz-adv-x="801" 
d="M696 683c10 0 15 -6 15 -16v-60c0 -11 -5 -16 -15 -16h-18c-10 0 -15 5 -15 16v60c0 10 5 16 15 16h18zM356 494c85 0 130 -45 130 -132v-362h-40v354c0 73 -32 104 -99 104c-69 0 -128 -32 -217 -92v-366h-39v482h32l4 -85c80 64 155 97 229 97zM667 -37v519h40v-519
c0 -69 -29 -127 -73 -171l-22 17c35 45 55 89 55 154z" />
    <glyph glyph-name="uni1E49" unicode="&#x1e49;" horiz-adv-x="573" 
d="M356 494c85 0 130 -45 130 -132v-362h-40v354c0 73 -32 104 -99 104c-69 0 -128 -32 -217 -92v-366h-39v482h32l4 -85c80 64 155 97 229 97zM156 -119v33h264v-33h-264z" />
    <glyph glyph-name="ntilde" unicode="&#xf1;" horiz-adv-x="573" 
d="M170 593h-23c-3 66 28 99 76 95c60 -5 84 -60 142 -65c41 -3 56 15 56 60h23c4 -62 -28 -96 -76 -92c-67 6 -93 60 -143 65c-40 4 -55 -17 -55 -63zM356 494c85 0 130 -45 130 -132v-362h-40v354c0 73 -32 104 -99 104c-69 0 -128 -32 -217 -92v-366h-39v482h32l4 -85
c80 64 155 97 229 97z" />
    <glyph glyph-name="o" unicode="o" horiz-adv-x="562" 
d="M281 494c158 0 215 -68 215 -253c0 -186 -57 -253 -215 -253s-215 67 -215 253c0 185 57 253 215 253zM281 458c-128 0 -173 -52 -173 -217s45 -218 173 -218s174 53 174 218s-46 217 -174 217z" />
    <glyph glyph-name="oacute" unicode="&#xf3;" horiz-adv-x="562" 
d="M382 719l26 -30l-163 -135l-18 19zM281 494c158 0 215 -68 215 -253c0 -186 -57 -253 -215 -253s-215 67 -215 253c0 185 57 253 215 253zM281 458c-128 0 -173 -52 -173 -217s45 -218 173 -218s174 53 174 218s-46 217 -174 217z" />
    <glyph glyph-name="obreve" unicode="&#x14f;" horiz-adv-x="562" 
d="M395 693l25 -4c1 -73 -52 -119 -139 -119s-142 46 -140 119l24 4c0 -56 44 -89 116 -89c70 0 114 33 114 89zM281 494c158 0 215 -68 215 -253c0 -186 -57 -253 -215 -253s-215 67 -215 253c0 185 57 253 215 253zM281 458c-128 0 -173 -52 -173 -217s45 -218 173 -218
s174 53 174 218s-46 217 -174 217z" />
    <glyph glyph-name="ocircumflex" unicode="&#xf4;" horiz-adv-x="562" 
d="M294 701l135 -119l-15 -19l-130 101h-8l-129 -101l-17 19l135 119h29zM281 494c158 0 215 -68 215 -253c0 -186 -57 -253 -215 -253s-215 67 -215 253c0 185 57 253 215 253zM281 458c-128 0 -173 -52 -173 -217s45 -218 173 -218s174 53 174 218s-46 217 -174 217z" />
    <glyph glyph-name="uni1ED1" unicode="&#x1ed1;" horiz-adv-x="562" 
d="M384 663l-17 17l103 107l26 -26zM154 573l-16 18l127 106h29l127 -106l-15 -18l-122 89h-8zM281 494c158 0 215 -68 215 -253c0 -186 -57 -253 -215 -253s-215 67 -215 253c0 185 57 253 215 253zM281 458c-128 0 -173 -52 -173 -217s45 -218 173 -218s174 53 174 218
s-46 217 -174 217z" />
    <glyph glyph-name="uni1ED9" unicode="&#x1ed9;" horiz-adv-x="562" 
d="M295 701l135 -119l-16 -19l-130 101h-8l-129 -101l-17 19l135 119h30zM281 494c158 0 215 -68 215 -253c0 -186 -57 -253 -215 -253s-215 67 -215 253c0 185 57 253 215 253zM281 458c-128 0 -173 -52 -173 -217s45 -218 173 -218s174 53 174 218s-46 217 -174 217z
M289 -63c11 0 16 -5 16 -15v-61c0 -10 -5 -16 -16 -16h-14c-10 0 -16 6 -16 16v61c0 10 6 15 16 15h14z" />
    <glyph glyph-name="uni1ED3" unicode="&#x1ed3;" horiz-adv-x="562" 
d="M90 787l102 -107l-17 -17l-111 98zM280 697l38 -22l96 -93l-32 6l-100 74l-30 -16l-105 -65l15 31zM281 494c158 0 215 -68 215 -253c0 -186 -57 -253 -215 -253s-215 67 -215 253c0 185 57 253 215 253zM281 458c-128 0 -173 -52 -173 -217s45 -218 173 -218
s174 53 174 218s-46 217 -174 217z" />
    <glyph glyph-name="uni1ED5" unicode="&#x1ed5;" horiz-adv-x="562" 
d="M378 675c41 14 60 38 60 66c0 35 -31 45 -84 31l-5 22c70 21 117 3 117 -52c0 -37 -27 -73 -83 -85zM265 697h29l127 -106l-15 -18l-122 89h-8l-123 -89l-15 18zM281 494c158 0 215 -68 215 -253c0 -186 -57 -253 -215 -253s-215 67 -215 253c0 185 57 253 215 253z
M281 458c-128 0 -173 -52 -173 -217s45 -218 173 -218s174 53 174 218s-46 217 -174 217z" />
    <glyph glyph-name="uni1ED7" unicode="&#x1ed7;" horiz-adv-x="562" 
d="M347 715c-65 6 -79 57 -127 62c-38 4 -52 -16 -52 -61h-22c-4 63 27 95 72 91c58 -5 70 -57 126 -62c38 -3 53 15 53 57h21c4 -59 -26 -91 -71 -87zM153 573l-15 18l127 106h29l127 -106l-15 -18l-122 89h-8zM281 494c158 0 215 -68 215 -253c0 -186 -57 -253 -215 -253
s-215 67 -215 253c0 185 57 253 215 253zM281 458c-128 0 -173 -52 -173 -217s45 -218 173 -218s174 53 174 218s-46 217 -174 217z" />
    <glyph glyph-name="uni020D" unicode="&#x20d;" horiz-adv-x="562" 
d="M128 727l110 -162l-21 -14l-122 154zM274 727l111 -162l-22 -14l-121 154zM281 494c158 0 215 -68 215 -253c0 -186 -57 -253 -215 -253s-215 67 -215 253c0 185 57 253 215 253zM281 458c-128 0 -173 -52 -173 -217s45 -218 173 -218s174 53 174 218s-46 217 -174 217z
" />
    <glyph glyph-name="odieresis" unicode="&#xf6;" horiz-adv-x="562" 
d="M199 677c9 0 14 -5 14 -14v-56c0 -9 -5 -14 -14 -14h-15c-9 0 -13 5 -13 14v56c0 9 4 14 13 14h15zM376 677c9 0 14 -5 14 -14v-56c0 -9 -5 -14 -14 -14h-15c-9 0 -13 5 -13 14v56c0 9 4 14 13 14h15zM281 494c158 0 215 -68 215 -253c0 -186 -57 -253 -215 -253
s-215 67 -215 253c0 185 57 253 215 253zM281 458c-128 0 -173 -52 -173 -217s45 -218 173 -218s174 53 174 218s-46 217 -174 217z" />
    <glyph glyph-name="uni022B" unicode="&#x22b;" horiz-adv-x="562" 
d="M160 758h241v-30h-241v30zM207 669c8 0 12 -4 12 -13v-50c0 -9 -4 -13 -12 -13h-14c-9 0 -13 4 -13 13v50c0 9 4 13 13 13h14zM368 669c8 0 12 -4 12 -13v-50c0 -9 -4 -13 -12 -13h-14c-9 0 -13 4 -13 13v50c0 9 4 13 13 13h14zM281 494c158 0 215 -68 215 -253
c0 -186 -57 -253 -215 -253s-215 67 -215 253c0 185 57 253 215 253zM281 458c-128 0 -173 -52 -173 -217s45 -218 173 -218s174 53 174 218s-46 217 -174 217z" />
    <glyph glyph-name="uni0231" unicode="&#x231;" horiz-adv-x="562" 
d="M352 758l49 -17l-192 -13l-49 17zM287 672c9 0 13 -5 13 -14v-55c0 -10 -4 -15 -13 -15h-14c-9 0 -14 5 -14 15v55c0 9 5 14 14 14h14zM281 494c158 0 215 -68 215 -253c0 -186 -57 -253 -215 -253s-215 67 -215 253c0 185 57 253 215 253zM281 458
c-128 0 -173 -52 -173 -217s45 -218 173 -218s174 53 174 218s-46 217 -174 217z" />
    <glyph glyph-name="uni1ECD" unicode="&#x1ecd;" horiz-adv-x="562" 
d="M281 494c158 0 215 -68 215 -253c0 -186 -57 -253 -215 -253s-215 67 -215 253c0 185 57 253 215 253zM281 458c-128 0 -173 -52 -173 -217s45 -218 173 -218s174 53 174 218s-46 217 -174 217zM289 -63c11 0 16 -5 16 -15v-61c0 -10 -5 -16 -16 -16h-14
c-11 0 -16 6 -16 16v61c0 10 5 15 16 15h14z" />
    <glyph glyph-name="ograve" unicode="&#xf2;" horiz-adv-x="562" 
d="M169 717l155 -145l-18 -20l-163 136zM281 494c158 0 215 -68 215 -253c0 -186 -57 -253 -215 -253s-215 67 -215 253c0 185 57 253 215 253zM281 458c-128 0 -173 -52 -173 -217s45 -218 173 -218s174 53 174 218s-46 217 -174 217z" />
    <glyph glyph-name="uni1ECF" unicode="&#x1ecf;" horiz-adv-x="562" 
d="M267 581c48 16 67 46 67 80c0 44 -35 58 -92 47l-6 23c77 20 129 -3 129 -68c0 -46 -29 -88 -91 -103zM281 494c158 0 215 -68 215 -253c0 -186 -57 -253 -215 -253s-215 67 -215 253c0 185 57 253 215 253zM281 458c-128 0 -173 -52 -173 -217s45 -218 173 -218
s174 53 174 218s-46 217 -174 217z" />
    <glyph glyph-name="ohorn" unicode="&#x1a1;" horiz-adv-x="565" 
d="M559 540c-3 -63 -45 -108 -98 -121c24 -41 35 -98 35 -178c0 -186 -57 -253 -215 -253s-215 67 -215 253c0 185 57 253 215 253c77 0 130 -16 164 -54c47 10 76 50 80 105zM281 23c128 0 174 53 174 218s-46 217 -174 217s-173 -52 -173 -217s45 -218 173 -218z" />
    <glyph glyph-name="uni1EDB" unicode="&#x1edb;" horiz-adv-x="565" 
d="M409 688l-163 -136l-18 20l155 145zM559 540c-3 -63 -45 -108 -98 -121c24 -41 35 -98 35 -178c0 -186 -57 -253 -215 -253s-215 67 -215 253c0 185 57 253 215 253c77 0 130 -16 164 -54c47 10 76 50 80 105zM281 23c128 0 174 53 174 218s-46 217 -174 217
s-173 -52 -173 -217s45 -218 173 -218z" />
    <glyph glyph-name="uni1EE3" unicode="&#x1ee3;" horiz-adv-x="565" 
d="M559 540c-3 -63 -45 -108 -98 -121c24 -41 35 -98 35 -178c0 -186 -57 -253 -215 -253s-215 67 -215 253c0 185 57 253 215 253c77 0 130 -16 164 -54c47 10 76 50 80 105zM281 23c128 0 174 53 174 218s-46 217 -174 217s-173 -52 -173 -217s45 -218 173 -218zM289 -63
c11 0 16 -5 16 -15v-61c0 -10 -5 -16 -16 -16h-14c-10 0 -16 6 -16 16v61c0 10 6 15 16 15h14z" />
    <glyph glyph-name="uni1EDD" unicode="&#x1edd;" horiz-adv-x="565" 
d="M323 572l-18 -20l-163 136l26 29zM559 540c-3 -63 -45 -108 -98 -121c24 -41 35 -98 35 -178c0 -186 -57 -253 -215 -253s-215 67 -215 253c0 185 57 253 215 253c77 0 130 -16 164 -54c47 10 76 50 80 105zM281 23c128 0 174 53 174 218s-46 217 -174 217
s-173 -52 -173 -217s45 -218 173 -218z" />
    <glyph glyph-name="uni1EDF" unicode="&#x1edf;" horiz-adv-x="565" 
d="M333 661c0 44 -35 58 -92 47l-6 23c77 20 129 -3 129 -68c0 -46 -29 -88 -91 -103l-7 21c48 16 67 46 67 80zM559 540c-3 -63 -45 -108 -98 -121c24 -41 35 -98 35 -178c0 -186 -57 -253 -215 -253s-215 67 -215 253c0 185 57 253 215 253c77 0 130 -16 164 -54
c47 10 76 50 80 105zM281 23c128 0 174 53 174 218s-46 217 -174 217s-173 -52 -173 -217s45 -218 173 -218z" />
    <glyph glyph-name="uni1EE1" unicode="&#x1ee1;" horiz-adv-x="565" 
d="M155 592h-23c-4 66 28 99 76 95c59 -5 84 -60 142 -65c40 -3 56 15 56 60h22c4 -62 -27 -96 -75 -92c-68 6 -93 60 -143 65c-40 4 -55 -17 -55 -63zM559 540c-3 -63 -45 -108 -98 -121c24 -41 35 -98 35 -178c0 -186 -57 -253 -215 -253s-215 67 -215 253
c0 185 57 253 215 253c77 0 130 -16 164 -54c47 10 76 50 80 105zM281 23c128 0 174 53 174 218s-46 217 -174 217s-173 -52 -173 -217s45 -218 173 -218z" />
    <glyph glyph-name="ohungarumlaut" unicode="&#x151;" horiz-adv-x="562" 
d="M284 727l32 -22l-121 -154l-22 14zM430 727l32 -22l-121 -154l-22 14zM281 494c158 0 215 -68 215 -253c0 -186 -57 -253 -215 -253s-215 67 -215 253c0 185 57 253 215 253zM281 458c-128 0 -173 -52 -173 -217s45 -218 173 -218s174 53 174 218s-46 217 -174 217z" />
    <glyph glyph-name="uni020F" unicode="&#x20f;" horiz-adv-x="562" 
d="M164 572l-24 5c-1 73 52 118 138 118c88 0 142 -45 141 -118l-25 -5c0 57 -43 89 -116 89c-69 0 -114 -32 -114 -89zM281 494c158 0 215 -68 215 -253c0 -186 -57 -253 -215 -253s-215 67 -215 253c0 185 57 253 215 253zM281 458c-128 0 -173 -52 -173 -217
s45 -218 173 -218s174 53 174 218s-46 217 -174 217z" />
    <glyph glyph-name="omacron" unicode="&#x14d;" horiz-adv-x="562" 
d="M413 650v-33h-264v33h264zM281 494c158 0 215 -68 215 -253c0 -186 -57 -253 -215 -253s-215 67 -215 253c0 185 57 253 215 253zM281 458c-128 0 -173 -52 -173 -217s45 -218 173 -218s174 53 174 218s-46 217 -174 217z" />
    <glyph glyph-name="uni1E53" unicode="&#x1e53;" horiz-adv-x="562" 
d="M336 791l25 -27l-113 -96l-17 18zM413 636v-33h-264v33h264zM281 494c158 0 215 -68 215 -253c0 -186 -57 -253 -215 -253s-215 67 -215 253c0 185 57 253 215 253zM281 458c-128 0 -173 -52 -173 -217s45 -218 173 -218s174 53 174 218s-46 217 -174 217z" />
    <glyph glyph-name="uni1E51" unicode="&#x1e51;" horiz-adv-x="562" 
d="M226 791l105 -105l-17 -18l-113 96zM149 636h264v-33h-264v33zM281 494c158 0 215 -68 215 -253c0 -186 -57 -253 -215 -253s-215 67 -215 253c0 185 57 253 215 253zM281 458c-128 0 -173 -52 -173 -217s45 -218 173 -218s174 53 174 218s-46 217 -174 217z" />
    <glyph glyph-name="uni01EB" unicode="&#x1eb;" horiz-adv-x="562" 
d="M302 -12c-30 -31 -55 -66 -71 -109c-22 -59 17 -78 89 -53l5 -18c-109 -49 -150 4 -126 72c11 30 32 67 75 108c-153 2 -208 70 -208 253c0 185 57 253 215 253s215 -68 215 -253c0 -178 -52 -247 -194 -253zM108 241c0 -165 45 -218 173 -218s174 53 174 218
s-46 217 -174 217s-173 -52 -173 -217z" />
    <glyph glyph-name="oslash" unicode="&#xf8;" horiz-adv-x="562" 
d="M400 473c69 -32 96 -104 96 -232c0 -186 -57 -253 -215 -253c-39 0 -73 4 -100 13l-31 -66l-25 12l30 65c-64 34 -89 105 -89 229c0 185 57 253 215 253c37 0 68 -4 94 -12l29 62l24 -11zM108 241c0 -105 18 -164 64 -194l187 401c-21 7 -47 10 -78 10
c-128 0 -173 -52 -173 -217zM281 23c128 0 174 53 174 218c0 109 -20 169 -71 197l-187 -403c22 -8 50 -12 84 -12z" />
    <glyph glyph-name="oslashacute" unicode="&#x1ff;" horiz-adv-x="562" 
d="M410 688l-163 -136l-18 20l155 145zM400 473c69 -32 96 -104 96 -232c0 -186 -57 -253 -215 -253c-39 0 -73 4 -100 13l-31 -66l-25 12l30 65c-64 34 -89 105 -89 229c0 185 57 253 215 253c37 0 68 -4 94 -12l29 62l24 -11zM108 241c0 -105 18 -164 64 -194l187 401
c-21 7 -47 10 -78 10c-128 0 -173 -52 -173 -217zM281 23c128 0 174 53 174 218c0 109 -20 169 -71 197l-187 -403c22 -8 50 -12 84 -12z" />
    <glyph glyph-name="otilde" unicode="&#xf5;" horiz-adv-x="562" 
d="M208 687c60 -5 84 -60 142 -65c41 -3 56 15 56 60h23c4 -62 -28 -96 -76 -92c-67 6 -93 60 -143 65c-40 4 -55 -17 -55 -63h-23c-3 66 28 99 76 95zM281 494c158 0 215 -68 215 -253c0 -186 -57 -253 -215 -253s-215 67 -215 253c0 185 57 253 215 253zM281 458
c-128 0 -173 -52 -173 -217s45 -218 173 -218s174 53 174 218s-46 217 -174 217z" />
    <glyph glyph-name="uni1E4D" unicode="&#x1e4d;" horiz-adv-x="562" 
d="M338 821l25 -27l-113 -96l-17 18zM208 675c60 -5 84 -60 142 -65c41 -3 56 15 56 60h23c4 -63 -28 -96 -76 -92c-67 6 -93 60 -143 65c-40 4 -55 -17 -55 -64h-23c-3 66 28 100 76 96zM281 494c158 0 215 -68 215 -253c0 -186 -57 -253 -215 -253s-215 67 -215 253
c0 185 57 253 215 253zM281 458c-128 0 -173 -52 -173 -217s45 -218 173 -218s174 53 174 218s-46 217 -174 217z" />
    <glyph glyph-name="uni1E4F" unicode="&#x1e4f;" horiz-adv-x="562" 
d="M194 800h13c8 0 12 -4 12 -13v-50c0 -9 -4 -13 -12 -13h-13c-9 0 -14 4 -14 13v50c0 9 5 13 14 13zM354 800h14c8 0 12 -4 12 -13v-50c0 -9 -4 -13 -12 -13h-14c-9 0 -12 4 -12 13v50c0 9 3 13 12 13zM208 675c60 -5 84 -60 142 -65c41 -3 56 15 56 60h23
c4 -63 -28 -96 -76 -92c-67 6 -93 60 -143 65c-40 4 -55 -17 -55 -64h-23c-3 66 28 100 76 96zM281 494c158 0 215 -68 215 -253c0 -186 -57 -253 -215 -253s-215 67 -215 253c0 185 57 253 215 253zM281 458c-128 0 -173 -52 -173 -217s45 -218 173 -218s174 53 174 218
s-46 217 -174 217z" />
    <glyph glyph-name="uni022D" unicode="&#x22d;" horiz-adv-x="562" 
d="M160 731v31h241v-31h-241zM353 578c-67 6 -93 60 -143 65c-40 4 -55 -17 -55 -64h-23c-3 66 28 100 76 96c60 -5 84 -60 142 -65c41 -3 56 15 56 60h23c4 -63 -28 -96 -76 -92zM281 494c158 0 215 -68 215 -253c0 -186 -57 -253 -215 -253s-215 67 -215 253
c0 185 57 253 215 253zM281 458c-128 0 -173 -52 -173 -217s45 -218 173 -218s174 53 174 218s-46 217 -174 217z" />
    <glyph glyph-name="oe" unicode="&#x153;" horiz-adv-x="918" 
d="M679 24c61 0 124 6 164 12l5 -28c-35 -12 -122 -20 -175 -20c-104 0 -167 32 -197 107c-28 -77 -89 -107 -195 -107c-158 0 -215 67 -215 253c0 185 57 253 215 253c105 0 165 -30 194 -104c28 75 88 104 189 104c132 0 194 -48 195 -140c2 -99 -39 -132 -145 -132h-218
c5 -151 60 -198 183 -198zM281 23c121 0 169 47 174 191c-1 9 -1 19 -1 29v27c-5 142 -53 188 -173 188c-128 0 -173 -52 -173 -217s45 -218 173 -218zM665 458c-123 0 -167 -53 -169 -204h217c79 0 108 26 106 99c-3 70 -52 105 -154 105z" />
    <glyph glyph-name="p" unicode="p" horiz-adv-x="566" 
d="M327 494c124 0 172 -75 172 -254c0 -183 -51 -252 -177 -252c-64 0 -128 18 -195 53c4 -35 3 -60 3 -94v-155h-39v690h31l5 -85c65 63 132 97 200 97zM317 24c101 0 141 55 141 216c0 160 -39 218 -139 218c-60 0 -112 -28 -189 -91v-299c75 -28 127 -44 187 -44z" />
    <glyph glyph-name="thorn" unicode="&#xfe;" horiz-adv-x="565" 
d="M323 494c126 0 174 -72 174 -254c0 -184 -50 -252 -175 -252c-65 0 -129 18 -195 52c4 -34 3 -59 3 -93v-155h-39v908h39v-195c0 -35 1 -61 -3 -95c66 55 128 84 196 84zM315 23c101 0 141 57 141 217c0 161 -40 218 -140 218c-59 0 -112 -26 -186 -82v-307
c74 -30 126 -46 185 -46z" />
    <glyph glyph-name="q" unicode="q" horiz-adv-x="562" 
d="M270 494c61 0 134 -12 203 -32v-670h-39l-1 192c0 39 0 64 5 95c-72 -58 -133 -91 -207 -91c-115 0 -165 78 -165 253c0 180 53 253 204 253zM107 238c0 -151 37 -214 134 -214c68 0 117 30 193 86v325c-63 17 -118 23 -162 23c-120 0 -165 -52 -165 -220z" />
    <glyph glyph-name="r" unicode="r" horiz-adv-x="388" 
d="M346 494h20l-6 -38h-20c-66 0 -123 -32 -210 -88v-368h-39v482h30l5 -86c77 62 150 98 220 98z" />
    <glyph glyph-name="racute" unicode="&#x155;" horiz-adv-x="388" 
d="M348 690l-163 -135l-18 19l155 146zM346 494h20l-6 -38h-20c-66 0 -123 -32 -210 -88v-368h-39v482h30l5 -86c77 62 150 98 220 98z" />
    <glyph glyph-name="rcaron" unicode="&#x159;" horiz-adv-x="388" 
d="M234 568h-24l-139 120l18 18l129 -98h8l130 98l16 -18zM126 396c77 62 150 98 220 98h20l-6 -38h-20c-66 0 -123 -32 -210 -88v-368h-39v482h30z" />
    <glyph glyph-name="rcommaaccent" unicode="&#x157;" horiz-adv-x="388" 
d="M346 494h20l-6 -38h-20c-66 0 -123 -32 -210 -88v-368h-39v482h30l5 -86c77 62 150 98 220 98zM111 -63c11 0 15 -4 15 -15v-57c-1 -37 -8 -84 -21 -120l-17 6c4 36 4 57 4 102c-5 0 -10 5 -10 13l1 56c-1 11 5 15 16 15h12z" />
    <glyph glyph-name="uni0211" unicode="&#x211;" horiz-adv-x="388" 
d="M178 566l-21 -14l-122 154l33 22zM325 566l-22 -14l-121 154l32 22zM346 494h20l-6 -38h-20c-66 0 -123 -32 -210 -88v-368h-39v482h30l5 -86c77 62 150 98 220 98z" />
    <glyph glyph-name="uni1E5B" unicode="&#x1e5b;" horiz-adv-x="388" 
d="M346 494h20l-6 -38h-20c-66 0 -123 -32 -210 -88v-368h-39v482h30l5 -86c77 62 150 98 220 98zM120 -63c11 0 16 -5 16 -15v-61c0 -10 -5 -16 -16 -16h-14c-10 0 -16 6 -16 16v61c0 10 6 15 16 15h14z" />
    <glyph glyph-name="uni0213" unicode="&#x213;" horiz-adv-x="388" 
d="M218 662c-69 0 -114 -32 -114 -89l-24 5c-1 73 52 118 138 118c88 0 142 -45 141 -118l-25 -5c0 57 -43 89 -116 89zM346 494h20l-6 -38h-20c-66 0 -123 -32 -210 -88v-368h-39v482h30l5 -86c77 62 150 98 220 98z" />
    <glyph glyph-name="uni1E5F" unicode="&#x1e5f;" horiz-adv-x="388" 
d="M346 494h20l-6 -38h-20c-66 0 -123 -32 -210 -88v-368h-39v482h30l5 -86c77 62 150 98 220 98zM-20 -119v33h264v-33h-264z" />
    <glyph glyph-name="s" unicode="s" horiz-adv-x="501" 
d="M239 494c60 -1 132 -5 191 -13l-4 -29c-59 3 -124 6 -183 7c-103 2 -145 -1 -145 -94c0 -66 28 -86 78 -93l157 -23c71 -12 110 -47 110 -125c0 -122 -68 -135 -194 -135c-44 0 -103 1 -179 12l4 29c59 -5 107 -7 171 -6c117 1 159 14 159 100c0 64 -36 83 -83 91
l-157 23c-70 11 -105 45 -105 127c0 119 59 131 180 129z" />
    <glyph glyph-name="sacute" unicode="&#x15b;" horiz-adv-x="501" 
d="M355 720l26 -30l-163 -135l-18 19zM239 494c60 -1 132 -5 191 -13l-4 -29c-59 3 -124 6 -183 7c-103 2 -145 -1 -145 -94c0 -66 28 -86 78 -93l157 -23c71 -12 110 -47 110 -125c0 -122 -68 -135 -194 -135c-44 0 -103 1 -179 12l4 29c59 -5 107 -7 171 -6
c117 1 159 14 159 100c0 64 -36 83 -83 91l-157 23c-70 11 -105 45 -105 127c0 119 59 131 180 129z" />
    <glyph glyph-name="uni1E65" unicode="&#x1e65;" horiz-adv-x="501" 
d="M261 806c9 0 14 -5 14 -14v-55c0 -10 -5 -15 -14 -15h-14c-9 0 -13 5 -13 15v55c0 9 4 14 13 14h14zM310 702l25 -28l-143 -116l-16 18zM239 494c60 -1 132 -5 191 -13l-4 -29c-59 3 -124 6 -183 7c-103 2 -145 -1 -145 -94c0 -66 28 -86 78 -93l157 -23
c71 -12 110 -47 110 -125c0 -122 -68 -135 -194 -135c-44 0 -103 1 -179 12l4 29c59 -5 107 -7 171 -6c117 1 159 14 159 100c0 64 -36 83 -83 91l-157 23c-70 11 -105 45 -105 127c0 119 59 131 180 129z" />
    <glyph glyph-name="scaron" unicode="&#x161;" horiz-adv-x="501" 
d="M389 706l16 -18l-138 -120h-24l-139 120l18 18l129 -98h8zM239 494c60 -1 132 -5 191 -13l-4 -29c-59 3 -124 6 -183 7c-103 2 -145 -1 -145 -94c0 -66 28 -86 78 -93l157 -23c71 -12 110 -47 110 -125c0 -122 -68 -135 -194 -135c-44 0 -103 1 -179 12l4 29
c59 -5 107 -7 171 -6c117 1 159 14 159 100c0 64 -36 83 -83 91l-157 23c-70 11 -105 45 -105 127c0 119 59 131 180 129z" />
    <glyph glyph-name="uni1E67" unicode="&#x1e67;" horiz-adv-x="501" 
d="M259 810c9 0 14 -5 14 -14v-55c0 -9 -5 -14 -14 -14h-14c-9 0 -13 5 -13 14v55c0 9 4 14 13 14h14zM376 704l17 -18l-126 -110h-24l-126 110l17 18l117 -88h8zM239 494c60 -1 132 -5 191 -13l-4 -29c-59 3 -124 6 -183 7c-103 2 -145 -1 -145 -94c0 -66 28 -86 78 -93
l157 -23c71 -12 110 -47 110 -125c0 -122 -68 -135 -194 -135c-44 0 -103 1 -179 12l4 29c59 -5 107 -7 171 -6c117 1 159 14 159 100c0 64 -36 83 -83 91l-157 23c-70 11 -105 45 -105 127c0 119 59 131 180 129z" />
    <glyph glyph-name="scedilla" unicode="&#x15f;" horiz-adv-x="501" 
d="M239 494c60 -1 132 -5 191 -13l-4 -29c-59 3 -124 6 -183 7c-103 2 -145 -1 -145 -94c0 -66 28 -86 78 -93l157 -23c71 -12 110 -47 110 -125c0 -122 -68 -135 -194 -135c-44 0 -103 1 -179 12l4 29c59 -5 107 -7 171 -6c117 1 159 14 159 100c0 64 -36 83 -83 91
l-157 23c-70 11 -105 45 -105 127c0 119 59 131 180 129zM216 -58c57 4 87 -14 86 -65c-1 -72 -58 -121 -146 -110l6 23c67 -3 108 37 108 85c0 33 -14 45 -59 46z" />
    <glyph glyph-name="scircumflex" unicode="&#x15d;" horiz-adv-x="501" 
d="M267 702l135 -119l-15 -19l-130 101h-8l-129 -101l-17 19l135 119h29zM239 494c60 -1 132 -5 191 -13l-4 -29c-59 3 -124 6 -183 7c-103 2 -145 -1 -145 -94c0 -66 28 -86 78 -93l157 -23c71 -12 110 -47 110 -125c0 -122 -68 -135 -194 -135c-44 0 -103 1 -179 12l4 29
c59 -5 107 -7 171 -6c117 1 159 14 159 100c0 64 -36 83 -83 91l-157 23c-70 11 -105 45 -105 127c0 119 59 131 180 129z" />
    <glyph glyph-name="scommaaccent" unicode="&#x219;" horiz-adv-x="501" 
d="M239 494c60 -1 132 -5 191 -13l-4 -29c-59 3 -124 6 -183 7c-103 2 -145 -1 -145 -94c0 -66 28 -86 78 -93l157 -23c71 -12 110 -47 110 -125c0 -122 -68 -135 -194 -135c-44 0 -103 1 -179 12l4 29c59 -5 107 -7 171 -6c117 1 159 14 159 100c0 64 -36 83 -83 91
l-157 23c-70 11 -105 45 -105 127c0 119 59 131 180 129zM268 -63c11 0 15 -4 15 -15v-57c-1 -37 -8 -84 -21 -120l-17 6c4 36 4 57 4 102c-5 0 -10 5 -10 13l1 56c-1 11 5 15 16 15h12z" />
    <glyph glyph-name="uni1E61" unicode="&#x1e61;" horiz-adv-x="501" 
d="M262 680c10 0 15 -5 15 -15v-61c0 -10 -5 -15 -15 -15h-15c-10 0 -15 5 -15 15v61c0 10 5 15 15 15h15zM239 494c60 -1 132 -5 191 -13l-4 -29c-59 3 -124 6 -183 7c-103 2 -145 -1 -145 -94c0 -66 28 -86 78 -93l157 -23c71 -12 110 -47 110 -125
c0 -122 -68 -135 -194 -135c-44 0 -103 1 -179 12l4 29c59 -5 107 -7 171 -6c117 1 159 14 159 100c0 64 -36 83 -83 91l-157 23c-70 11 -105 45 -105 127c0 119 59 131 180 129z" />
    <glyph glyph-name="uni1E63" unicode="&#x1e63;" horiz-adv-x="501" 
d="M239 494c60 -1 132 -5 191 -13l-4 -29c-59 3 -124 6 -183 7c-103 2 -145 -1 -145 -94c0 -66 28 -86 78 -93l157 -23c71 -12 110 -47 110 -125c0 -122 -68 -135 -194 -135c-44 0 -103 1 -179 12l4 29c59 -5 107 -7 171 -6c117 1 159 14 159 100c0 64 -36 83 -83 91
l-157 23c-70 11 -105 45 -105 127c0 119 59 131 180 129zM256 -72c11 0 16 -5 16 -15v-61c0 -10 -5 -16 -16 -16h-14c-10 0 -16 6 -16 16v61c0 10 6 15 16 15h14z" />
    <glyph glyph-name="uni1E69" unicode="&#x1e69;" horiz-adv-x="501" 
d="M262 680c10 0 15 -5 15 -15v-61c0 -10 -5 -15 -15 -15h-15c-10 0 -15 5 -15 15v61c0 10 5 15 15 15h15zM239 494c60 -1 132 -5 191 -13l-4 -29c-59 3 -124 6 -183 7c-103 2 -145 -1 -145 -94c0 -66 28 -86 78 -93l157 -23c71 -12 110 -47 110 -125
c0 -122 -68 -135 -194 -135c-44 0 -103 1 -179 12l4 29c59 -5 107 -7 171 -6c117 1 159 14 159 100c0 64 -36 83 -83 91l-157 23c-70 11 -105 45 -105 127c0 119 59 131 180 129zM256 -72c11 0 16 -5 16 -15v-61c0 -10 -5 -16 -16 -16h-14c-10 0 -16 6 -16 16v61
c0 10 6 15 16 15h14z" />
    <glyph glyph-name="germandbls" unicode="&#xdf;" horiz-adv-x="657" 
d="M515 247c60 -20 95 -49 95 -124c0 -120 -65 -134 -164 -134c-43 0 -96 1 -164 11l3 30c57 -6 107 -7 157 -7c86 2 128 12 128 101c0 64 -31 79 -73 93l-125 42c-53 18 -87 45 -87 106c0 85 58 95 145 129c59 22 77 43 77 103c0 63 -60 83 -174 83
c-130 0 -172 -28 -172 -148v-532h-40v448h-87v30l87 4v52c0 166 88 180 211 180c136 0 212 -25 212 -116c0 -76 -28 -103 -98 -131c-82 -31 -122 -34 -122 -101c0 -47 26 -64 66 -77z" />
    <glyph glyph-name="t" unicode="t" horiz-adv-x="356" 
d="M331 448h-172v-342c0 -52 26 -76 77 -76h84l5 -29c-28 -5 -73 -8 -92 -8c-76 0 -114 39 -114 109v346h-87v29l87 5v149h40v-149h172v-34z" />
    <glyph glyph-name="tbar" unicode="&#x167;" horiz-adv-x="356" 
d="M331 448h-172v-132h150v-27h-150v-183c0 -52 26 -76 77 -76h84l5 -29c-28 -5 -73 -8 -92 -8c-76 0 -114 39 -114 109v187h-71v27h71v132h-87v29l87 5v149h40v-149h172v-34z" />
    <glyph glyph-name="tcaron" unicode="&#x165;" horiz-adv-x="356" 
d="M269 669c-7 0 -11 5 -10 12l1 54c-1 10 4 15 14 15h11c11 0 15 -5 15 -15v-55c-1 -35 -8 -79 -19 -114l-17 5c3 35 5 55 5 98zM331 448h-172v-342c0 -52 26 -76 77 -76h84l5 -29c-28 -5 -73 -8 -92 -8c-76 0 -114 39 -114 109v346h-87v29l87 5v149h40v-149h172v-34z" />
    <glyph glyph-name="uni0163" unicode="&#x163;" horiz-adv-x="356" 
d="M331 448h-172v-342c0 -52 26 -76 77 -76h84l5 -29c-28 -5 -73 -8 -92 -8c-76 0 -114 39 -114 109v346h-87v29l87 5v149h40v-149h172v-34zM202 -54c57 4 87 -14 86 -65c-1 -72 -58 -121 -146 -110l6 23c67 -3 108 37 108 85c0 33 -14 45 -59 46z" />
    <glyph glyph-name="uni021B" unicode="&#x21b;" horiz-adv-x="356" 
d="M331 448h-172v-342c0 -52 26 -76 77 -76h84l5 -29c-28 -5 -73 -8 -92 -8c-76 0 -114 39 -114 109v346h-87v29l87 5v149h40v-149h172v-34zM238 -63c11 0 15 -4 15 -15v-57c-1 -37 -8 -84 -21 -120l-17 6c4 36 4 57 4 102c-5 0 -10 5 -10 13l1 56c-1 11 5 15 16 15h12z" />
    <glyph glyph-name="uni1E97" unicode="&#x1e97;" horiz-adv-x="356" 
d="M45 679c-10 0 -14 5 -14 14v56c0 9 4 14 14 14h15c9 0 13 -5 13 -14v-56c0 -9 -4 -14 -13 -14h-15zM222 679c-10 0 -14 5 -14 14v56c0 9 4 14 14 14h15c9 0 13 -5 13 -14v-56c0 -9 -4 -14 -13 -14h-15zM331 448h-172v-342c0 -52 26 -76 77 -76h84l5 -29
c-28 -5 -73 -8 -92 -8c-76 0 -114 39 -114 109v346h-87v29l87 5v149h40v-149h172v-34z" />
    <glyph glyph-name="uni1E6D" unicode="&#x1e6d;" horiz-adv-x="356" 
d="M331 448h-172v-342c0 -52 26 -76 77 -76h84l5 -29c-28 -5 -73 -8 -92 -8c-76 0 -114 39 -114 109v346h-87v29l87 5v149h40v-149h172v-34zM242 -68c11 0 16 -5 16 -15v-61c0 -10 -5 -16 -16 -16h-14c-10 0 -16 6 -16 16v61c0 10 6 15 16 15h14z" />
    <glyph glyph-name="uni1E6F" unicode="&#x1e6f;" horiz-adv-x="356" 
d="M119 102v346h-87v29l87 5v149h40v-149h172v-34h-172v-342c0 -52 26 -76 77 -76h84l5 -29c-28 -5 -73 -8 -92 -8c-76 0 -114 39 -114 109zM102 -91h264v-33h-264v33z" />
    <glyph glyph-name="u" unicode="u" horiz-adv-x="563" 
d="M432 482h40v-482h-31l-4 83c-78 -63 -149 -95 -220 -95c-86 0 -130 45 -130 132v362h40v-354c-1 -72 32 -104 101 -104c65 0 120 31 204 90v368z" />
    <glyph glyph-name="uacute" unicode="&#xfa;" horiz-adv-x="563" 
d="M408 691l-163 -135l-18 19l155 146zM432 482h40v-482h-31l-4 83c-78 -63 -149 -95 -220 -95c-86 0 -130 45 -130 132v362h40v-354c-1 -72 32 -104 101 -104c65 0 120 31 204 90v368z" />
    <glyph glyph-name="ubreve" unicode="&#x16d;" horiz-adv-x="563" 
d="M281 572c-87 0 -142 46 -140 119l24 4c0 -56 44 -89 116 -89c70 0 114 33 114 89l25 -4c1 -73 -52 -119 -139 -119zM432 482h40v-482h-31l-4 83c-78 -63 -149 -95 -220 -95c-86 0 -130 45 -130 132v362h40v-354c-1 -72 32 -104 101 -104c65 0 120 31 204 90v368z" />
    <glyph glyph-name="ucircumflex" unicode="&#xfb;" horiz-adv-x="563" 
d="M276 666l-129 -101l-17 19l135 119h29l135 -119l-15 -19l-130 101h-8zM432 482h40v-482h-31l-4 83c-78 -63 -149 -95 -220 -95c-86 0 -130 45 -130 132v362h40v-354c-1 -72 32 -104 101 -104c65 0 120 31 204 90v368z" />
    <glyph glyph-name="uni0215" unicode="&#x215;" horiz-adv-x="563" 
d="M238 567l-21 -14l-122 154l33 22zM385 567l-22 -14l-121 154l32 22zM432 482h40v-482h-31l-4 83c-78 -63 -149 -95 -220 -95c-86 0 -130 45 -130 132v362h40v-354c-1 -72 32 -104 101 -104c65 0 120 31 204 90v368z" />
    <glyph glyph-name="udieresis" unicode="&#xfc;" horiz-adv-x="563" 
d="M184 595c-9 0 -13 5 -13 14v56c0 9 4 14 13 14h15c9 0 14 -5 14 -14v-56c0 -9 -5 -14 -14 -14h-15zM361 595c-9 0 -13 5 -13 14v56c0 9 4 14 13 14h15c9 0 14 -5 14 -14v-56c0 -9 -5 -14 -14 -14h-15zM432 482h40v-482h-31l-4 83c-78 -63 -149 -95 -220 -95
c-86 0 -130 45 -130 132v362h40v-354c-1 -72 32 -104 101 -104c65 0 120 31 204 90v368z" />
    <glyph glyph-name="uni1EE5" unicode="&#x1ee5;" horiz-adv-x="563" 
d="M432 482h40v-482h-31l-4 83c-78 -63 -149 -95 -220 -95c-86 0 -130 45 -130 132v362h40v-354c-1 -72 32 -104 101 -104c65 0 120 31 204 90v368zM284 -72c11 0 16 -5 16 -15v-61c0 -10 -5 -16 -16 -16h-14c-11 0 -16 6 -16 16v61c0 10 5 15 16 15h14z" />
    <glyph glyph-name="ugrave" unicode="&#xf9;" horiz-adv-x="563" 
d="M324 574l-18 -20l-163 136l26 29zM432 482h40v-482h-31l-4 83c-78 -63 -149 -95 -220 -95c-86 0 -130 45 -130 132v362h40v-354c-1 -72 32 -104 101 -104c65 0 120 31 204 90v368z" />
    <glyph glyph-name="uni1EE7" unicode="&#x1ee7;" horiz-adv-x="563" 
d="M334 663c0 44 -35 58 -92 47l-6 23c77 20 129 -3 129 -68c0 -46 -29 -88 -91 -103l-7 21c48 16 67 46 67 80zM432 482h40v-482h-31l-4 83c-78 -63 -149 -95 -220 -95c-86 0 -130 45 -130 132v362h40v-354c-1 -72 32 -104 101 -104c65 0 120 31 204 90v368z" />
    <glyph glyph-name="uhorn" unicode="&#x1b0;" horiz-adv-x="569" 
d="M584 538c-4 -68 -53 -116 -112 -124v-414h-31l-4 83c-78 -63 -149 -95 -220 -95c-86 0 -130 45 -130 132v362h40v-354c-1 -72 32 -104 101 -104c65 0 120 31 204 90v368h40v-43c46 10 74 49 78 104z" />
    <glyph glyph-name="uni1EE9" unicode="&#x1ee9;" horiz-adv-x="569" 
d="M410 690l-163 -136l-18 20l155 145zM584 538c-4 -68 -53 -116 -112 -124v-414h-31l-4 83c-78 -63 -149 -95 -220 -95c-86 0 -130 45 -130 132v362h40v-354c-1 -72 32 -104 101 -104c65 0 120 31 204 90v368h40v-43c46 10 74 49 78 104z" />
    <glyph glyph-name="uni1EF1" unicode="&#x1ef1;" horiz-adv-x="569" 
d="M584 538c-4 -68 -53 -116 -112 -124v-414h-31l-4 83c-78 -63 -149 -95 -220 -95c-86 0 -130 45 -130 132v362h40v-354c-1 -72 32 -104 101 -104c65 0 120 31 204 90v368h40v-43c46 10 74 49 78 104zM284 -72c11 0 16 -5 16 -15v-61c0 -10 -5 -16 -16 -16h-14
c-10 0 -16 6 -16 16v61c0 10 6 15 16 15h14z" />
    <glyph glyph-name="uni1EEB" unicode="&#x1eeb;" horiz-adv-x="569" 
d="M324 574l-18 -20l-163 136l26 29zM584 538c-4 -68 -53 -116 -112 -124v-414h-31l-4 83c-78 -63 -149 -95 -220 -95c-86 0 -130 45 -130 132v362h40v-354c-1 -72 32 -104 101 -104c65 0 120 31 204 90v368h40v-43c46 10 74 49 78 104z" />
    <glyph glyph-name="uni1EED" unicode="&#x1eed;" horiz-adv-x="569" 
d="M334 663c0 44 -35 58 -92 47l-6 23c77 20 129 -3 129 -68c0 -46 -29 -88 -91 -103l-7 21c48 16 67 46 67 80zM584 538c-4 -68 -53 -116 -112 -124v-414h-31l-4 83c-78 -63 -149 -95 -220 -95c-86 0 -130 45 -130 132v362h40v-354c-1 -72 32 -104 101 -104
c65 0 120 31 204 90v368h40v-43c46 10 74 49 78 104z" />
    <glyph glyph-name="uni1EEF" unicode="&#x1eef;" horiz-adv-x="569" 
d="M156 594h-23c-4 66 28 99 76 95c59 -5 84 -60 142 -65c40 -3 56 15 56 60h22c4 -62 -27 -96 -75 -92c-68 6 -93 60 -143 65c-40 4 -55 -17 -55 -63zM584 538c-4 -68 -53 -116 -112 -124v-414h-31l-4 83c-78 -63 -149 -95 -220 -95c-86 0 -130 45 -130 132v362h40v-354
c-1 -72 32 -104 101 -104c65 0 120 31 204 90v368h40v-43c46 10 74 49 78 104z" />
    <glyph glyph-name="uhungarumlaut" unicode="&#x171;" horiz-adv-x="563" 
d="M316 707l-121 -154l-22 14l111 162zM462 707l-121 -154l-22 14l111 162zM432 482h40v-482h-31l-4 83c-78 -63 -149 -95 -220 -95c-86 0 -130 45 -130 132v362h40v-354c-1 -72 32 -104 101 -104c65 0 120 31 204 90v368z" />
    <glyph glyph-name="uni0217" unicode="&#x217;" horiz-adv-x="563" 
d="M164 574l-24 5c-1 73 52 118 138 118c88 0 142 -45 141 -118l-25 -5c0 57 -43 89 -116 89c-69 0 -114 -32 -114 -89zM432 482h40v-482h-31l-4 83c-78 -63 -149 -95 -220 -95c-86 0 -130 45 -130 132v362h40v-354c-1 -72 32 -104 101 -104c65 0 120 31 204 90v368z" />
    <glyph glyph-name="umacron" unicode="&#x16b;" horiz-adv-x="563" 
d="M413 652v-33h-264v33h264zM432 482h40v-482h-31l-4 83c-78 -63 -149 -95 -220 -95c-86 0 -130 45 -130 132v362h40v-354c-1 -72 32 -104 101 -104c65 0 120 31 204 90v368z" />
    <glyph glyph-name="uni1E7B" unicode="&#x1e7b;" horiz-adv-x="563" 
d="M193 688c-9 0 -13 4 -13 13v50c0 9 4 13 13 13h13c9 0 13 -4 13 -13v-50c0 -9 -4 -13 -13 -13h-13zM353 688c-8 0 -12 4 -12 13v50c0 9 4 13 12 13h15c8 0 12 -4 12 -13v-50c0 -9 -4 -13 -12 -13h-15zM401 629v-30h-241v30h241zM432 482h40v-482h-31l-4 83
c-78 -63 -149 -95 -220 -95c-86 0 -130 45 -130 132v362h40v-354c-1 -72 32 -104 101 -104c65 0 120 31 204 90v368z" />
    <glyph glyph-name="uogonek" unicode="&#x173;" horiz-adv-x="563" 
d="M478 -176l5 -18c-109 -49 -150 4 -126 72c12 34 37 75 90 122h-6l-4 83c-78 -63 -149 -95 -220 -95c-86 0 -130 45 -130 132v362h40v-354c-1 -72 32 -104 101 -104c65 0 120 31 204 90v368h40v-482h1c-35 -35 -66 -74 -84 -123c-22 -59 17 -78 89 -53z" />
    <glyph glyph-name="uring" unicode="&#x16f;" horiz-adv-x="563" 
d="M281 539c-55 0 -99 43 -99 98c0 53 45 97 99 97s99 -44 99 -97c0 -52 -44 -98 -99 -98zM281 709c-41 0 -71 -31 -71 -72c0 -43 31 -73 71 -73s71 30 71 73c0 41 -31 72 -71 72zM432 482h40v-482h-31l-4 83c-78 -63 -149 -95 -220 -95c-86 0 -130 45 -130 132v362h40v-354
c-1 -72 32 -104 101 -104c65 0 120 31 204 90v368z" />
    <glyph glyph-name="utilde" unicode="&#x169;" horiz-adv-x="563" 
d="M155 594h-23c-3 66 28 99 76 95c60 -5 84 -60 142 -65c41 -3 56 15 56 60h23c4 -62 -28 -96 -76 -92c-67 6 -93 60 -143 65c-40 4 -55 -17 -55 -63zM432 482h40v-482h-31l-4 83c-78 -63 -149 -95 -220 -95c-86 0 -130 45 -130 132v362h40v-354c-1 -72 32 -104 101 -104
c65 0 120 31 204 90v368z" />
    <glyph glyph-name="uni1E79" unicode="&#x1e79;" horiz-adv-x="563" 
d="M363 796l-113 -96l-17 18l105 105zM155 581h-23c-3 66 28 100 76 96c60 -5 84 -60 142 -65c41 -3 56 15 56 60h23c4 -63 -28 -96 -76 -92c-67 6 -93 60 -143 65c-40 4 -55 -17 -55 -64zM432 482h40v-482h-31l-4 83c-78 -63 -149 -95 -220 -95c-86 0 -130 45 -130 132v362
h40v-354c-1 -72 32 -104 101 -104c65 0 120 31 204 90v368z" />
    <glyph glyph-name="v" unicode="v" horiz-adv-x="513" 
d="M486 482l-192 -471c-4 -7 -10 -11 -18 -11h-40c-8 0 -14 4 -17 11l-192 471h43l144 -361l36 -89h13c12 30 24 60 37 90l143 360h43z" />
    <glyph glyph-name="w" unicode="w" horiz-adv-x="815" 
d="M783 482l-160 -469c-3 -8 -10 -13 -18 -13h-39c-9 0 -16 6 -19 14l-113 365l-21 73h-11c-7 -25 -15 -49 -22 -73l-112 -365c-3 -8 -10 -14 -19 -14h-39c-8 0 -15 5 -18 13l-160 469h42l128 -385c8 -22 14 -45 21 -67h13l21 68l114 370c2 8 9 14 18 14h37
c9 0 16 -6 18 -14l115 -370c6 -23 13 -45 20 -68h13c8 23 13 45 21 68l128 384h42z" />
    <glyph glyph-name="wacute" unicode="&#x1e83;" horiz-adv-x="815" 
d="M509 720l26 -30l-163 -135l-18 19zM783 482l-160 -469c-3 -8 -10 -13 -18 -13h-39c-9 0 -16 6 -19 14l-113 365l-21 73h-11c-7 -25 -15 -49 -22 -73l-112 -365c-3 -8 -10 -14 -19 -14h-39c-8 0 -15 5 -18 13l-160 469h42l128 -385c8 -22 14 -45 21 -67h13l21 68l114 370
c2 8 9 14 18 14h37c9 0 16 -6 18 -14l115 -370c6 -23 13 -45 20 -68h13c8 23 13 45 21 68l128 384h42z" />
    <glyph glyph-name="wcircumflex" unicode="&#x175;" horiz-adv-x="815" 
d="M421 702l135 -119l-15 -19l-130 101h-8l-129 -101l-17 19l135 119h29zM783 482l-160 -469c-3 -8 -10 -13 -18 -13h-39c-9 0 -16 6 -19 14l-113 365l-21 73h-11c-7 -25 -15 -49 -22 -73l-112 -365c-3 -8 -10 -14 -19 -14h-39c-8 0 -15 5 -18 13l-160 469h42l128 -385
c8 -22 14 -45 21 -67h13l21 68l114 370c2 8 9 14 18 14h37c9 0 16 -6 18 -14l115 -370c6 -23 13 -45 20 -68h13c8 23 13 45 21 68l128 384h42z" />
    <glyph glyph-name="wdieresis" unicode="&#x1e85;" horiz-adv-x="815" 
d="M326 678c9 0 14 -5 14 -14v-56c0 -9 -5 -14 -14 -14h-15c-9 0 -13 5 -13 14v56c0 9 4 14 13 14h15zM503 678c9 0 14 -5 14 -14v-56c0 -9 -5 -14 -14 -14h-15c-9 0 -13 5 -13 14v56c0 9 4 14 13 14h15zM783 482l-160 -469c-3 -8 -10 -13 -18 -13h-39c-9 0 -16 6 -19 14
l-113 365l-21 73h-11c-7 -25 -15 -49 -22 -73l-112 -365c-3 -8 -10 -14 -19 -14h-39c-8 0 -15 5 -18 13l-160 469h42l128 -385c8 -22 14 -45 21 -67h13l21 68l114 370c2 8 9 14 18 14h37c9 0 16 -6 18 -14l115 -370c6 -23 13 -45 20 -68h13c8 23 13 45 21 68l128 384h42z
" />
    <glyph glyph-name="wgrave" unicode="&#x1e81;" horiz-adv-x="815" 
d="M296 718l155 -145l-18 -20l-163 136zM783 482l-160 -469c-3 -8 -10 -13 -18 -13h-39c-9 0 -16 6 -19 14l-113 365l-21 73h-11c-7 -25 -15 -49 -22 -73l-112 -365c-3 -8 -10 -14 -19 -14h-39c-8 0 -15 5 -18 13l-160 469h42l128 -385c8 -22 14 -45 21 -67h13l21 68
l114 370c2 8 9 14 18 14h37c9 0 16 -6 18 -14l115 -370c6 -23 13 -45 20 -68h13c8 23 13 45 21 68l128 384h42z" />
    <glyph glyph-name="x" unicode="x" horiz-adv-x="511" 
d="M432 0l-165 235h-23l-165 -235h-46l177 250l-165 232h46l151 -214h27l151 214h46l-165 -232l177 -250h-46z" />
    <glyph glyph-name="y" unicode="y" horiz-adv-x="512" 
d="M443 482h42l-214 -524c-33 -81 -75 -147 -170 -167l-6 25c79 29 114 83 140 150l14 34h-13c-8 0 -14 4 -17 12l-192 470h43l158 -395c7 -18 15 -36 21 -54h14c7 18 14 38 21 55z" />
    <glyph glyph-name="yacute" unicode="&#xfd;" horiz-adv-x="512" 
d="M386 690l-163 -135l-18 19l155 146zM443 482h42l-214 -524c-33 -81 -75 -147 -170 -167l-6 25c79 29 114 83 140 150l14 34h-13c-8 0 -14 4 -17 12l-192 470h43l158 -395c7 -18 15 -36 21 -54h14c7 18 14 38 21 55z" />
    <glyph glyph-name="ycircumflex" unicode="&#x177;" horiz-adv-x="512" 
d="M254 665l-129 -101l-17 19l135 119h29l135 -119l-15 -19l-130 101h-8zM443 482h42l-214 -524c-33 -81 -75 -147 -170 -167l-6 25c79 29 114 83 140 150l14 34h-13c-8 0 -14 4 -17 12l-192 470h43l158 -395c7 -18 15 -36 21 -54h14c7 18 14 38 21 55z" />
    <glyph glyph-name="ydieresis" unicode="&#xff;" horiz-adv-x="512" 
d="M162 594c-9 0 -13 5 -13 14v56c0 9 4 14 13 14h15c9 0 14 -5 14 -14v-56c0 -9 -5 -14 -14 -14h-15zM339 594c-9 0 -13 5 -13 14v56c0 9 4 14 13 14h15c9 0 14 -5 14 -14v-56c0 -9 -5 -14 -14 -14h-15zM443 482h42l-214 -524c-33 -81 -75 -147 -170 -167l-6 25
c79 29 114 83 140 150l14 34h-13c-8 0 -14 4 -17 12l-192 470h43l158 -395c7 -18 15 -36 21 -54h14c7 18 14 38 21 55z" />
    <glyph glyph-name="uni1E8F" unicode="&#x1e8f;" horiz-adv-x="512" 
d="M252 589c-10 0 -15 5 -15 15v61c0 10 5 15 15 15h15c10 0 15 -5 15 -15v-61c0 -10 -5 -15 -15 -15h-15zM443 482h42l-214 -524c-33 -81 -75 -147 -170 -167l-6 25c79 29 114 83 140 150l14 34h-13c-8 0 -14 4 -17 12l-192 470h43l158 -395c7 -18 15 -36 21 -54h14
c7 18 14 38 21 55z" />
    <glyph glyph-name="uni1EF5" unicode="&#x1ef5;" horiz-adv-x="512" 
d="M443 482h42l-214 -524c-33 -81 -75 -147 -170 -167l-6 25c79 29 114 83 140 150l14 34h-13c-8 0 -14 4 -17 12l-192 470h43l158 -395c7 -18 15 -36 21 -54h14c7 18 14 38 21 55zM412 -72c11 0 16 -5 16 -15v-61c0 -10 -5 -16 -16 -16h-14c-10 0 -16 6 -16 16v61
c0 10 6 15 16 15h14z" />
    <glyph glyph-name="ygrave" unicode="&#x1ef3;" horiz-adv-x="512" 
d="M302 573l-18 -20l-163 136l26 29zM443 482h42l-214 -524c-33 -81 -75 -147 -170 -167l-6 25c79 29 114 83 140 150l14 34h-13c-8 0 -14 4 -17 12l-192 470h43l158 -395c7 -18 15 -36 21 -54h14c7 18 14 38 21 55z" />
    <glyph glyph-name="uni1EF7" unicode="&#x1ef7;" horiz-adv-x="512" 
d="M312 662c0 44 -35 58 -92 47l-6 23c77 20 129 -3 129 -68c0 -46 -29 -88 -91 -103l-7 21c48 16 67 46 67 80zM443 482h42l-214 -524c-33 -81 -75 -147 -170 -167l-6 25c79 29 114 83 140 150l14 34h-13c-8 0 -14 4 -17 12l-192 470h43l158 -395c7 -18 15 -36 21 -54h14
c7 18 14 38 21 55z" />
    <glyph glyph-name="uni0233" unicode="&#x233;" horiz-adv-x="512" 
d="M391 651v-33h-264v33h264zM443 482h42l-214 -524c-33 -81 -75 -147 -170 -167l-6 25c79 29 114 83 140 150l14 34h-13c-8 0 -14 4 -17 12l-192 470h43l158 -395c7 -18 15 -36 21 -54h14c7 18 14 38 21 55z" />
    <glyph glyph-name="uni1EF9" unicode="&#x1ef9;" horiz-adv-x="512" 
d="M133 593h-23c-3 66 28 99 76 95c60 -5 84 -60 142 -65c41 -3 56 15 56 60h23c4 -62 -28 -96 -76 -92c-67 6 -93 60 -143 65c-40 4 -55 -17 -55 -63zM443 482h42l-214 -524c-33 -81 -75 -147 -170 -167l-6 25c79 29 114 83 140 150l14 34h-13c-8 0 -14 4 -17 12l-192 470
h43l158 -395c7 -18 15 -36 21 -54h14c7 18 14 38 21 55z" />
    <glyph glyph-name="z" unicode="z" horiz-adv-x="502" 
d="M100 34h350v-34h-398v34l347 413h-344v35h392v-35z" />
    <glyph glyph-name="zacute" unicode="&#x17a;" horiz-adv-x="502" 
d="M374 690l-163 -135l-18 19l155 146zM100 34h350v-34h-398v34l347 413h-344v35h392v-35z" />
    <glyph glyph-name="zcaron" unicode="&#x17e;" horiz-adv-x="502" 
d="M260 568h-24l-139 120l18 18l129 -98h8l130 98l16 -18zM100 34h350v-34h-398v34l347 413h-344v35h392v-35z" />
    <glyph glyph-name="zdotaccent" unicode="&#x17c;" horiz-adv-x="502" 
d="M240 589c-11 0 -16 5 -16 15v61c0 10 5 15 16 15h14c10 0 16 -5 16 -15v-61c0 -10 -6 -15 -16 -15h-14zM100 34h350v-34h-398v34l347 413h-344v35h392v-35z" />
    <glyph glyph-name="uni1E93" unicode="&#x1e93;" horiz-adv-x="502" 
d="M100 34h350v-34h-398v34l347 413h-344v35h392v-35zM264 -72c11 0 16 -5 16 -15v-61c0 -10 -5 -16 -16 -16h-14c-10 0 -16 6 -16 16v61c0 10 6 15 16 15h14z" />
    <glyph glyph-name="c_t" horiz-adv-x="795" 
d="M770 448h-172v-342c0 -52 26 -76 77 -76h84l5 -29c-28 -5 -73 -8 -92 -8c-76 0 -113 39 -113 109v346h-265c-137 0 -187 -49 -187 -207c0 -168 47 -217 179 -217c25 0 81 2 121 11l5 -28c-39 -12 -87 -19 -132 -19c-157 0 -215 67 -215 253c0 174 62 241 222 241h272v149
h39v-149h172v-34z" />
    <glyph glyph-name="f_f_y" horiz-adv-x="1147" 
d="M1078 482h43l-215 -524c-33 -81 -74 -147 -170 -167l-6 25c80 29 112 84 140 150l14 34h-13c-8 0 -14 4 -17 12l-157 383c-15 36 -40 53 -80 53h-146v-448h-40v448h-271v-448h-40v448h-87v29l87 5v79c0 89 37 136 130 136c28 0 85 -2 119 -5l-2 -30h-104
c-75 0 -103 -26 -103 -103v-77h271v97c0 89 35 136 130 136c29 0 88 -1 123 -5l-2 -30h-108c-75 0 -103 -27 -103 -103v-95h152c56 0 91 -24 112 -76l129 -319l21 -54h13c7 18 15 36 21 55z" />
    <glyph glyph-name="f_t" horiz-adv-x="678" 
d="M653 448h-172v-342c0 -52 26 -76 76 -76h85l5 -29c-29 -5 -73 -8 -92 -8c-76 0 -114 39 -114 109v346h-281v-448h-40v448h-87v29l87 5v97c0 89 35 136 130 136c28 0 86 -1 121 -5l-2 -30h-106c-75 0 -103 -27 -103 -103v-95h281v149h40v-149h172v-34z" />
    <glyph glyph-name="f_y" horiz-adv-x="836" 
d="M767 482h43l-215 -524c-33 -81 -74 -147 -169 -167l-7 25c80 29 114 83 140 150l14 34h-13c-8 0 -14 4 -17 12l-157 383c-14 36 -40 53 -80 53h-146v-448h-40v448h-87v29l87 5v97c0 89 35 136 130 136c29 0 88 -1 123 -5l-2 -30h-108c-75 0 -103 -27 -103 -103v-95h152
c56 0 91 -24 112 -76l129 -319l21 -54h12c4 12 9 23 13 34z" />
    <glyph glyph-name="s_t" horiz-adv-x="841" 
d="M817 448h-173v-342c0 -52 27 -76 77 -76h84l5 -29c-28 -5 -72 -8 -91 -8c-76 0 -114 39 -114 109v346h-362c-103 0 -145 -1 -145 -83c0 -66 28 -86 78 -93l157 -23c73 -12 110 -47 110 -125c0 -122 -68 -135 -194 -135c-44 0 -103 1 -179 12l4 29c59 -5 107 -7 171 -6
c117 1 159 14 159 100c0 64 -36 83 -83 91l-157 23c-70 11 -105 45 -105 127c0 107 59 117 180 117h366v149h39v-149h173v-34z" />
    <glyph glyph-name="t_t" horiz-adv-x="680" 
d="M656 448h-172v-342c0 -52 26 -76 76 -76h84l5 -29c-28 -5 -72 -8 -91 -8c-76 0 -114 39 -114 109v346h-285v-342c0 -52 26 -76 77 -76h84l5 -29c-28 -5 -73 -8 -92 -8c-76 0 -114 39 -114 109v346h-87v29l87 5v149h40v-149h285v149h40v-149h172v-34z" />
    <glyph glyph-name="t_y" horiz-adv-x="862" 
d="M793 482h43l-214 -524c-34 -81 -75 -147 -170 -167l-7 25c80 29 113 83 141 150l14 34h-13c-8 0 -14 4 -18 12l-156 383c-15 36 -40 53 -80 53h-174v-342c0 -52 26 -76 77 -76h84l5 -29c-28 -5 -73 -8 -92 -8c-76 0 -114 39 -114 109v346h-87v29l87 5v149h40v-149h181
c55 0 90 -24 110 -75l129 -320c7 -18 15 -36 21 -54h13l17 43z" />
    <glyph glyph-name="ordfeminine" unicode="&#xaa;" horiz-adv-x="443" 
d="M257 602c63 0 101 -26 101 -96v-235h-25l-6 62c-30 -29 -94 -67 -160 -67c-57 0 -92 29 -92 83v41c0 48 31 77 86 77h164v39c0 38 -17 67 -73 67c-50 0 -108 -4 -159 -9l-4 24c47 6 99 14 168 14zM175 295c49 -1 112 27 150 60v91l-157 -5c-41 -1 -60 -20 -60 -53v-34
c0 -40 23 -58 67 -59z" />
    <glyph glyph-name="ordmasculine" unicode="&#xba;" horiz-adv-x="448" 
d="M223 602c114 0 154 -45 154 -170c0 -124 -40 -169 -154 -169c-112 0 -152 45 -152 169c0 125 40 170 152 170zM223 574c-87 0 -118 -34 -118 -142c0 -107 31 -141 118 -141c88 0 119 34 119 141c0 108 -31 142 -119 142z" />
    <glyph glyph-name="uni0410" unicode="&#x410;" horiz-adv-x="608" 
d="M548 0l-85 243h-318l-85 -243h-43l241 677c3 8 10 13 18 13h56c8 0 15 -5 18 -13l241 -677h-43zM158 279h292l-112 321l-20 56h-28l-20 -56z" />
    <glyph glyph-name="uni0411" unicode="&#x411;" horiz-adv-x="594" 
d="M322 376c162 0 212 -52 212 -193c0 -157 -64 -191 -216 -191c-96 0 -146 1 -219 8v690c67 3 135 5 203 5c66 0 132 -2 198 -5l-4 -34h-356v-280h182zM322 28c125 0 170 29 170 156c0 117 -37 157 -170 157h-182v-311c38 -1 102 -2 182 -2z" />
    <glyph glyph-name="uni0412" unicode="&#x412;" horiz-adv-x="614" 
d="M408 356c103 -9 137 -74 137 -184c0 -142 -58 -180 -214 -180c-108 0 -159 1 -232 8v690c64 7 109 8 202 8c164 0 224 -38 224 -180c0 -99 -35 -150 -117 -158v-4zM483 515c0 120 -48 147 -183 147c-69 0 -125 -1 -160 -2v-286h178c122 1 165 28 165 141zM327 28
c130 0 176 28 176 148c0 129 -49 163 -185 165h-178v-311c39 -1 107 -2 187 -2z" />
    <glyph glyph-name="uni0413" unicode="&#x413;" horiz-adv-x="515" 
d="M204 690c96 0 191 0 286 -5l-3 -30h-272c-47 0 -78 -31 -78 -80v-575h-41v581c0 64 46 109 108 109z" />
    <glyph glyph-name="uni0403" unicode="&#x403;" horiz-adv-x="515" 
d="M397 901l26 -30l-163 -135l-18 19zM204 690c96 0 191 0 286 -5l-3 -30h-272c-47 0 -78 -31 -78 -80v-575h-41v581c0 64 46 109 108 109z" />
    <glyph glyph-name="uni0490" unicode="&#x490;" horiz-adv-x="516" 
d="M463 841h27v-157l-2 -29h-273c-47 0 -78 -31 -78 -80v-575h-41v581c0 64 46 109 108 109c85 0 168 0 252 -4z" />
    <glyph glyph-name="uni0414" unicode="&#x414;" horiz-adv-x="665" 
d="M546 35h82v-186h-29l-6 151h-533l-7 -151h-29v186h59c85 159 107 355 114 545c1 71 41 110 112 110h237v-655zM126 35h378v620h-189c-52 0 -77 -26 -79 -78c-6 -196 -28 -385 -110 -542z" />
    <glyph glyph-name="uni0415" unicode="&#x415;" horiz-adv-x="553" 
d="M210 35h285l2 -31c-96 -4 -196 -4 -294 -4c-65 0 -110 44 -110 106v478c0 62 45 106 110 106c98 0 198 0 294 -4l-2 -31h-285c-46 0 -76 -31 -76 -78v-191l320 -1v-33l-320 -1v-238c0 -47 30 -78 76 -78z" />
    <glyph glyph-name="uni0400" unicode="&#x400;" horiz-adv-x="553" 
d="M349 754l-18 -20l-163 136l26 29zM210 35h285l2 -31c-96 -4 -196 -4 -294 -4c-65 0 -110 44 -110 106v478c0 62 45 106 110 106c98 0 198 0 294 -4l-2 -31h-285c-46 0 -76 -31 -76 -78v-191l320 -1v-33l-320 -1v-238c0 -47 30 -78 76 -78z" />
    <glyph glyph-name="uni0401" unicode="&#x401;" horiz-adv-x="553" 
d="M210 775c-10 0 -14 5 -14 14v56c0 9 4 14 14 14h15c9 0 13 -5 13 -14v-56c0 -9 -4 -14 -13 -14h-15zM387 775c-10 0 -14 5 -14 14v56c0 9 4 14 14 14h15c9 0 13 -5 13 -14v-56c0 -9 -4 -14 -13 -14h-15zM210 35h285l2 -31c-96 -4 -196 -4 -294 -4c-65 0 -110 44 -110 106
v478c0 62 45 106 110 106c98 0 198 0 294 -4l-2 -31h-285c-46 0 -76 -31 -76 -78v-191l320 -1v-33l-320 -1v-238c0 -47 30 -78 76 -78z" />
    <glyph glyph-name="uni0416" unicode="&#x416;" horiz-adv-x="886" 
d="M594 359c127 -9 178 -173 252 -359h-44c-78 192 -123 343 -265 343h-75c3 -29 4 -55 4 -83v-260h-39v260c0 28 1 54 4 83h-82c-143 0 -187 -151 -265 -343h-44c74 186 125 350 252 359v2c-117 11 -175 177 -235 329h43c62 -154 117 -313 246 -313h85c-3 28 -4 52 -4 82
v231h39v-231c0 -30 -1 -54 -4 -82h77c129 0 184 159 247 313h43c-61 -152 -119 -318 -235 -329v-2z" />
    <glyph glyph-name="uni0417" unicode="&#x417;" horiz-adv-x="546" 
d="M232 698c164 0 223 -38 223 -180c0 -99 -35 -150 -117 -158v-4c103 -9 137 -74 137 -184c0 -142 -57 -180 -213 -180c-83 0 -156 5 -220 16l5 30c34 -2 113 -10 211 -10c129 0 175 27 175 148c0 129 -49 165 -184 165h-105v33h105c121 0 164 29 164 141
c0 120 -48 147 -182 147c-82 0 -142 -7 -170 -8l-5 30c59 10 111 14 176 14z" />
    <glyph glyph-name="uni0418" unicode="&#x418;" horiz-adv-x="681" 
d="M583 690v-690h-41v562c0 24 0 47 1 71h-2c-11 -20 -23 -45 -35 -64l-366 -569h-41v690h40v-559c0 -25 0 -49 -1 -74h2c12 20 27 48 40 69l361 564h42z" />
    <glyph glyph-name="uni0419" unicode="&#x419;" horiz-adv-x="681" 
d="M448 876h35c1 -73 -52 -126 -139 -126s-142 53 -140 126h34c0 -64 42 -100 106 -100c62 0 104 36 104 100zM583 690v-690h-41v562c0 24 0 47 1 71h-2c-11 -20 -23 -45 -35 -64l-366 -569h-41v690h40v-559c0 -25 0 -49 -1 -74h2c12 20 27 48 40 69l361 564h42z" />
    <glyph glyph-name="uni040D" unicode="&#x40d;" horiz-adv-x="681" 
d="M231 899l155 -145l-18 -20l-163 136zM583 690v-690h-41v562c0 24 0 47 1 71h-2c-11 -20 -23 -45 -35 -64l-366 -569h-41v690h40v-559c0 -25 0 -49 -1 -74h2c12 20 27 48 40 69l361 564h42z" />
    <glyph glyph-name="uni048A" unicode="&#x48a;" horiz-adv-x="689" 
d="M344 751c-87 0 -142 53 -140 126h34c0 -64 42 -100 106 -100c62 0 104 36 104 100h35c1 -73 -52 -126 -139 -126zM623 18v1l3 -47h-71l5 28h-18v562c0 24 0 47 1 71h-2c-11 -20 -23 -45 -35 -64l-366 -569h-41v690h40v-559c0 -25 0 -49 -1 -74h2c12 20 27 48 40 69
l361 564h42v-672h40zM626 -28h4l-3 -20zM615 -123l12 75l3 -58z" />
    <glyph glyph-name="uni041A" unicode="&#x41a;" horiz-adv-x="580" 
d="M288 359c127 -9 177 -173 252 -359h-44c-77 192 -122 343 -266 343h-94c2 -29 3 -55 3 -83v-260h-40v690h40v-231c0 -30 -1 -54 -4 -82h97c131 3 187 158 248 313h43c-68 -175 -126 -317 -235 -329v-2z" />
    <glyph glyph-name="uni040C" unicode="&#x40c;" horiz-adv-x="580" 
d="M419 871l-163 -135l-18 19l155 146zM288 359c127 -9 177 -173 252 -359h-44c-77 192 -122 343 -266 343h-94c2 -29 3 -55 3 -83v-260h-40v690h40v-231c0 -30 -1 -54 -4 -82h97c131 3 187 158 248 313h43c-68 -175 -126 -317 -235 -329v-2z" />
    <glyph glyph-name="uni041B" unicode="&#x41b;" horiz-adv-x="637" 
d="M538 690v-690h-41v655h-180c-50 0 -79 -26 -83 -80c-24 -277 -29 -364 -84 -458c-31 -57 -77 -105 -132 -117l-5 32c32 15 65 39 99 98c52 93 57 159 82 451c7 72 45 109 114 109h230z" />
    <glyph glyph-name="uni041C" unicode="&#x41c;" horiz-adv-x="860" 
d="M726 690c12 0 20 -8 20 -21l30 -669h-41l-29 655h-23l-208 -576c-3 -9 -10 -14 -19 -14h-52c-10 0 -17 5 -20 14l-207 576h-23l-29 -655h-41l29 669c1 13 8 21 21 21h57c10 0 16 -5 19 -14l175 -484c12 -31 22 -62 33 -93h24l33 95l174 482c3 9 10 14 20 14h57z" />
    <glyph glyph-name="uni041D" unicode="&#x41d;" horiz-adv-x="660" 
d="M520 690h41v-690h-41v352h-380v-352h-41v690h41v-302h380v302z" />
    <glyph glyph-name="uni041E" unicode="&#x41e;" 
d="M332 702c192 0 259 -92 259 -357s-67 -357 -259 -357s-260 92 -260 357s68 357 260 357zM332 665c-161 0 -217 -82 -217 -320s56 -320 217 -320s216 82 216 320s-55 320 -216 320z" />
    <glyph glyph-name="uni041F" unicode="&#x41f;" horiz-adv-x="663" 
d="M564 690v-690h-41v655h-383v-655h-41v690h465z" />
    <glyph glyph-name="uni0420" unicode="&#x420;" horiz-adv-x="583" 
d="M324 698c151 0 205 -45 205 -206c0 -163 -54 -206 -202 -206c-79 0 -147 3 -187 6v-292h-41v690c71 7 120 8 225 8zM324 322c120 2 163 35 163 170s-43 170 -163 170c-79 0 -145 -1 -184 -2v-338h184z" />
    <glyph glyph-name="uni0421" unicode="&#x421;" horiz-adv-x="563" 
d="M331 702c81 0 125 -5 178 -18l-7 -30c-57 8 -94 11 -171 11c-161 0 -216 -82 -216 -320s55 -320 216 -320c82 0 132 4 185 13l7 -31c-54 -13 -106 -19 -192 -19c-191 0 -259 94 -259 357s68 357 259 357z" />
    <glyph glyph-name="uni0422" unicode="&#x422;" horiz-adv-x="568" 
d="M542 690v-36h-238v-654h-41v654h-237v36h516z" />
    <glyph glyph-name="uni0423" unicode="&#x423;" horiz-adv-x="544" 
d="M481 690h43l-198 -527c-31 -81 -60 -164 -134 -169c-29 -2 -74 3 -103 12l5 29c130 -19 139 -4 192 131l14 38h-43c-26 0 -46 13 -55 38l-170 448h43l161 -430c5 -13 16 -21 29 -21h48z" />
    <glyph glyph-name="uni040E" unicode="&#x40e;" horiz-adv-x="544" 
d="M275 750c-87 0 -142 53 -140 126h34c0 -64 42 -100 106 -100c62 0 104 36 104 100h35c1 -73 -52 -126 -139 -126zM481 690h43l-198 -527c-31 -81 -60 -164 -134 -169c-29 -2 -74 3 -103 12l5 29c130 -19 139 -4 192 131l14 38h-43c-26 0 -46 13 -55 38l-170 448h43
l161 -430c5 -13 16 -21 29 -21h48z" />
    <glyph glyph-name="uni0424" unicode="&#x424;" horiz-adv-x="821" 
d="M752 354c0 -214 -86 -292 -321 -296v-103h-41v103c-235 4 -321 82 -321 296c0 216 86 293 321 297v104h41v-104c235 -4 321 -81 321 -297zM111 354c0 -195 74 -256 280 -260v522c-206 -4 -280 -65 -280 -262zM430 94c207 4 280 65 280 260c0 197 -73 258 -280 262v-522z
" />
    <glyph glyph-name="uni0425" unicode="&#x425;" horiz-adv-x="603" 
d="M518 0l-202 343h-30l-202 -343h-47l213 359l-200 331h47l187 -313h34l188 313h47l-200 -331l213 -359h-48z" />
    <glyph glyph-name="uni0427" unicode="&#x427;" horiz-adv-x="610" 
d="M470 690h41v-690h-41v342c-92 -58 -178 -78 -260 -78c-96 0 -142 48 -142 147v279h41v-272c0 -81 35 -117 113 -117c89 0 152 19 248 75v314z" />
    <glyph glyph-name="uni0426" unicode="&#x426;" horiz-adv-x="677" 
d="M557 35h83v-186h-29l-7 151h-505v690h41v-655h376v655h41v-655z" />
    <glyph glyph-name="uni0428" unicode="&#x428;" horiz-adv-x="908" 
d="M769 690h40v-690h-710v690h41v-655h294v655h40v-655h295v655z" />
    <glyph glyph-name="uni0429" unicode="&#x429;" horiz-adv-x="919" 
d="M800 35h83v-186h-29l-7 151h-748v690h41v-655h289v655h41v-655h290v655h40v-655z" />
    <glyph glyph-name="uni040F" unicode="&#x40f;" horiz-adv-x="668" 
d="M528 690h41v-690h-216l-3 -151h-29l-4 151h-218v690h41v-655h388v655z" />
    <glyph glyph-name="uni042C" unicode="&#x42c;" horiz-adv-x="589" 
d="M322 391c162 0 212 -55 212 -200c0 -157 -59 -199 -209 -199c-107 0 -153 1 -226 8v690h41v-299h182zM322 29c124 0 170 30 170 162c0 120 -37 164 -170 164h-182v-324c38 -1 102 -2 182 -2z" />
    <glyph glyph-name="uni042A" unicode="&#x42a;" horiz-adv-x="745" 
d="M478 391c162 0 212 -55 212 -200c0 -157 -59 -199 -209 -199c-106 0 -153 1 -226 8v654h-229v36h271v-299h181zM478 29c125 0 170 30 170 162c0 120 -37 164 -170 164h-181v-324c39 -1 102 -2 181 -2z" />
    <glyph glyph-name="uni042B" unicode="&#x42b;" horiz-adv-x="819" 
d="M322 391c162 0 212 -55 212 -200c0 -157 -59 -199 -209 -199c-107 0 -153 1 -226 8v690h41v-299h182zM679 690h41v-690h-41v690zM322 29c124 0 170 30 170 162c0 120 -37 164 -170 164h-182v-324c38 -1 102 -2 182 -2z" />
    <glyph glyph-name="uni0409" unicode="&#x409;" horiz-adv-x="966" 
d="M699 391c162 0 212 -55 212 -200c0 -157 -58 -199 -208 -199c-103 0 -148 1 -218 8v655h-159c-50 0 -77 -27 -81 -80c-24 -279 -30 -363 -83 -458c-32 -58 -73 -107 -132 -117l-5 29c30 15 62 38 98 101c55 95 58 167 83 450c5 73 44 110 115 110h205v-299h173zM699 29
c125 0 170 30 170 163c0 120 -37 163 -170 163h-173v-324c37 -1 97 -2 173 -2z" />
    <glyph glyph-name="uni040A" unicode="&#x40a;" horiz-adv-x="982" 
d="M715 389c162 0 212 -54 212 -198c0 -157 -59 -199 -209 -199c-102 0 -147 1 -217 8v354h-361v-354h-41v690h41v-301h361v301h41v-301h173zM715 29c125 0 170 30 170 162c0 119 -37 163 -170 163h-173v-323c37 -1 98 -2 173 -2z" />
    <glyph glyph-name="uni0405" unicode="&#x405;" horiz-adv-x="556" 
d="M275 701c64 -1 130 -5 192 -14l-4 -30c-59 3 -124 7 -187 7c-120 0 -171 -3 -171 -142c0 -94 29 -130 103 -142l150 -25c102 -15 139 -67 139 -184c0 -163 -74 -182 -216 -182c-52 0 -119 1 -206 13l3 31c86 -6 134 -8 205 -7c126 2 172 19 172 145
c0 102 -30 134 -107 146l-150 25c-98 15 -135 71 -135 181c0 165 69 180 212 178z" />
    <glyph glyph-name="uni0404" unicode="&#x404;" horiz-adv-x="572" 
d="M521 38l7 -31c-54 -13 -102 -19 -188 -19c-198 0 -268 94 -268 357s70 357 268 357c82 0 127 -5 180 -18l-7 -31c-57 9 -96 12 -173 12c-157 0 -218 -73 -224 -279l311 -1v-32l-312 -1v-7c0 -238 58 -320 225 -320c81 0 128 4 181 13z" />
    <glyph glyph-name="uni042D" unicode="&#x42d;" horiz-adv-x="572" 
d="M231 702c199 0 268 -94 268 -357s-69 -357 -268 -357c-85 0 -133 6 -187 19l7 31c53 -9 99 -13 180 -13c168 0 226 82 226 320v7l-313 1v32l312 1c-6 206 -67 279 -225 279c-76 0 -116 -3 -173 -12l-7 31c54 13 99 18 180 18z" />
    <glyph glyph-name="uni0406" unicode="&#x406;" horiz-adv-x="239" 
d="M140 690v-690h-41v690h41z" />
    <glyph glyph-name="uni0407" unicode="&#x407;" horiz-adv-x="239" 
d="M38 859c9 0 13 -5 13 -14v-56c0 -9 -4 -14 -13 -14h-15c-10 0 -14 5 -14 14v56c0 9 4 14 14 14h15zM215 859c9 0 13 -5 13 -14v-56c0 -9 -4 -14 -13 -14h-15c-10 0 -14 5 -14 14v56c0 9 4 14 14 14h15zM140 690v-690h-41v690h41z" />
    <glyph glyph-name="uni0408" unicode="&#x408;" horiz-adv-x="328" 
d="M232 690v-567c0 -86 -42 -131 -125 -130c-20 0 -52 4 -71 8l5 28h56c63 0 94 31 94 94v567h41z" />
    <glyph glyph-name="uni040B" unicode="&#x40b;" horiz-adv-x="786" 
d="M572 435c100 0 148 -49 148 -148v-287h-41v280c0 82 -36 118 -118 118c-92 0 -158 -19 -257 -76v-322h-41v654h-237v36h516v-36h-238v-296c95 56 182 77 268 77z" />
    <glyph glyph-name="uni042E" unicode="&#x42e;" horiz-adv-x="902" 
d="M570 702c192 0 259 -92 259 -357s-67 -357 -259 -357c-184 0 -249 91 -249 354h-180v-342h-41v690h41v-313h180c6 240 72 325 249 325zM570 25c161 0 216 82 216 320s-55 320 -216 320c-155 0 -207 -82 -207 -320s52 -320 207 -320z" />
    <glyph glyph-name="uni042F" unicode="&#x42f;" horiz-adv-x="605" 
d="M289 698c101 0 148 -1 217 -8v-690h-41v298c-39 -1 -105 -3 -191 -3c-51 0 -86 -25 -107 -87l-71 -208h-45l73 211c19 54 47 85 82 96l-1 5c-84 13 -121 95 -120 183c0 152 63 203 204 203zM275 331h190v329c-37 1 -100 2 -176 2c-111 0 -162 -39 -162 -169
c0 -92 38 -162 148 -162z" />
    <glyph glyph-name="uni0402" unicode="&#x402;" horiz-adv-x="749" 
d="M522 435c97 0 173 -37 173 -202c0 -175 -89 -238 -253 -233l-4 29c140 9 216 44 216 201c0 142 -58 168 -141 168c-81 0 -139 -29 -209 -74v-324h-41v654h-237v36h516v-36h-238v-295c75 53 144 76 218 76z" />
    <glyph glyph-name="uni0462" unicode="&#x462;" horiz-adv-x="621" 
d="M362 391c162 0 212 -55 212 -200c0 -157 -58 -199 -208 -199c-107 0 -154 1 -226 8h-1v562h-119v33h119v135h42v-135h249v-33h-249v-171h181zM362 29c125 0 170 30 170 162c0 120 -37 164 -170 164h-181v-324c38 -1 102 -2 181 -2z" />
    <glyph glyph-name="uni046A" unicode="&#x46a;" horiz-adv-x="842" 
d="M23 0c116 282 146 368 366 368v3l-307 296c-11 11 -6 23 9 23h655c14 0 20 -13 9 -23l-301 -296v-3c220 0 250 -86 367 -368h-44c-120 304 -153 338 -338 338c1 -28 2 -57 2 -81v-257h-39v257c0 24 1 53 2 81c-185 0 -217 -34 -338 -338h-43zM422 387l273 269h-555z" />
    <glyph glyph-name="uni0472" unicode="&#x472;" 
d="M332 702c192 0 259 -92 259 -357s-67 -357 -259 -357s-260 92 -260 357s68 357 260 357zM332 665c-156 0 -214 -77 -217 -299h433c-3 222 -60 299 -216 299zM332 25c158 0 214 79 216 307h-433c2 -228 59 -307 217 -307z" />
    <glyph glyph-name="uni0474" unicode="&#x474;" horiz-adv-x="636" 
d="M271 0c-9 0 -16 6 -18 13l-229 677h43l194 -582c8 -25 16 -49 23 -74h28c8 26 7 18 24 75l140 495c16 59 45 100 120 100c9 0 20 -1 31 -3l-1 -31h-18c-51 0 -74 -15 -93 -79l-171 -578c-3 -7 -10 -13 -19 -13h-54z" />
    <glyph glyph-name="uni0492" unicode="&#x492;" horiz-adv-x="537" 
d="M250 655c-47 0 -78 -31 -78 -80v-215h229v-34h-229v-326h-41v326h-112v34h112v221c0 64 46 109 108 109c96 0 191 0 286 -5l-3 -30h-272z" />
    <glyph glyph-name="uni0494" unicode="&#x494;" horiz-adv-x="582" 
d="M354 435c97 0 174 -49 174 -268c0 -236 -87 -307 -251 -316l-6 30c139 15 216 62 216 285c0 197 -59 232 -143 232c-80 0 -137 -29 -207 -74v-324h-41v581c0 64 46 109 108 109c90 0 180 0 269 -5l-3 -30h-255c-47 0 -78 -31 -78 -80v-216c75 53 142 76 217 76z" />
    <glyph glyph-name="uni0496" unicode="&#x496;" horiz-adv-x="927" 
d="M869 23h45v-146h-41l-3 95h-53l-1 28h-16c-78 192 -123 343 -265 343h-75c3 -29 4 -55 4 -83v-260h-39v260c0 28 1 54 4 83h-82c-143 0 -187 -151 -265 -343h-44c74 186 125 350 252 359v2c-117 11 -175 177 -235 329h43c62 -154 117 -313 246 -313h85c-3 28 -4 52 -4 82
v231h39v-231c0 -30 -1 -54 -4 -82h77c129 0 184 159 247 313h43c-61 -152 -119 -318 -235 -329v-2c123 -9 174 -162 244 -340h33v4z" />
    <glyph glyph-name="uni0498" unicode="&#x498;" horiz-adv-x="546" 
d="M232 698c164 0 223 -38 223 -180c0 -99 -35 -150 -117 -158v-4c103 -9 137 -74 137 -184c0 -142 -57 -180 -213 -180c-83 0 -156 5 -220 16l5 30c34 -2 113 -10 211 -10c129 0 175 27 175 148c0 129 -49 165 -184 165h-105v33h105c121 0 164 29 164 141
c0 120 -48 147 -182 147c-82 0 -142 -7 -170 -8l-5 30c59 10 111 14 176 14zM229 -47c57 4 87 -14 86 -65c-1 -72 -58 -121 -146 -110l6 23c67 -3 108 37 108 85c0 33 -14 45 -59 46z" />
    <glyph glyph-name="uni049A" unicode="&#x49a;" horiz-adv-x="627" 
d="M564 23h50v-146h-45l-3 95h-51l-1 28h-18c-77 192 -122 343 -266 343h-94c2 -29 3 -55 3 -83v-260h-40v690h40v-231c0 -30 -1 -54 -4 -82h97c131 3 187 158 248 313h43c-68 -175 -126 -317 -235 -329v-2c123 -9 173 -162 244 -340h32v4z" />
    <glyph glyph-name="uni049C" unicode="&#x49c;" horiz-adv-x="574" 
d="M288 359c127 -9 177 -173 252 -359h-44c-70 175 -114 315 -229 339v-173h-29v177h-8h-94c2 -29 3 -55 3 -83v-260h-40v690h40v-231c0 -30 -1 -54 -4 -82h97h6v176h29v-171c107 27 158 168 213 308h43c-68 -175 -126 -317 -235 -329v-2z" />
    <glyph glyph-name="uni049E" unicode="&#x49e;" horiz-adv-x="616" 
d="M330 359c127 -9 177 -173 252 -359h-44c-77 192 -122 343 -266 343h-94c2 -29 3 -55 3 -83v-260h-40v529h-122v34h122v127h40v-127h122v-34h-122v-70c0 -30 -1 -54 -4 -82h97c131 3 187 158 248 313h43c-68 -175 -126 -317 -235 -329v-2z" />
    <glyph glyph-name="uni04A0" unicode="&#x4a0;" horiz-adv-x="725" 
d="M439 359c127 -9 177 -173 252 -359h-44c-77 192 -122 343 -266 343h-94c2 -29 3 -55 3 -83v-260h-40v690h40v-231c0 -30 -1 -54 -4 -82h97c131 3 187 158 248 313h43c-68 -175 -126 -317 -235 -329v-2zM72 671v1h151v-1h-151z" />
    <glyph glyph-name="uni04A2" unicode="&#x4a2;" horiz-adv-x="680" 
d="M589 23h57v-146h-52l-3 95h-42l-1 28h-22v352h-380v-352h-41v690h41v-302h380v302h41v-671h22v4z" />
    <glyph glyph-name="uni04A4" unicode="&#x4a4;" horiz-adv-x="871" 
d="M600 690c83 0 164 0 246 -5l-3 -30h-231c-48 0 -79 -31 -79 -80v-575h-41v352h-352v-352h-41v690h41v-302h352v193c0 64 46 109 108 109z" />
    <glyph glyph-name="uni04A6" unicode="&#x4a6;" horiz-adv-x="1009" 
d="M781 435c97 0 174 -49 174 -268c0 -235 -87 -305 -251 -314l-6 30c139 15 216 62 216 283c0 197 -58 232 -143 232c-80 0 -137 -29 -207 -74v-324h-41v655h-383v-655h-41v690h465v-331c75 53 143 76 217 76z" />
    <glyph glyph-name="uni0524" unicode="&#x524;" horiz-adv-x="677" 
d="M586 23h57v-146h-52l-3 95h-42l-1 28h-22v655h-383v-655h-41v690h465v-671h22v4z" />
    <glyph glyph-name="uni04A8" unicode="&#x4a8;" horiz-adv-x="855" 
d="M826 15c-21 -12 -58 -27 -140 -27c-52 0 -102 9 -147 30c-51 -21 -106 -30 -162 -30c-204 0 -305 109 -305 351c0 273 79 367 256 367v-37c-150 0 -213 -81 -213 -331c0 -225 94 -314 266 -314c40 0 80 5 117 16c-90 59 -151 172 -151 352c0 222 64 308 201 308
c139 0 202 -84 202 -301c0 -189 -70 -301 -167 -359c35 -12 71 -17 107 -17c64 0 96 7 130 17zM390 388c0 -184 66 -283 153 -330c94 46 164 146 164 337c0 194 -49 268 -159 268c-109 0 -158 -76 -158 -275z" />
    <glyph glyph-name="uni04AA" unicode="&#x4aa;" horiz-adv-x="563" 
d="M523 7c-50 -12 -99 -18 -174 -19l-4 -139h-29l-3 139c-177 6 -241 102 -241 357c0 263 68 357 259 357c81 0 125 -5 178 -18l-7 -30c-57 8 -94 11 -171 11c-161 0 -216 -82 -216 -320s55 -320 216 -320c82 0 132 4 185 13z" />
    <glyph glyph-name="uni04AC" unicode="&#x4ac;" horiz-adv-x="568" 
d="M304 654v-635h22v4h57v-146h-52l-3 95h-42l-1 28h-22v654h-237v36h516v-36h-238z" />
    <glyph glyph-name="uni04AE" unicode="&#x4ae;" horiz-adv-x="548" 
d="M528 690l-233 -437v-253h-42v255l-234 435h45l171 -322c12 -23 24 -48 36 -71h6c11 23 24 48 35 70l171 323h45z" />
    <glyph glyph-name="uni04B0" unicode="&#x4b0;" horiz-adv-x="543" 
d="M530 690l-226 -424h158v-28h-165v-238h-42v238h-153v28h147l-228 424h45l171 -322c12 -23 24 -48 36 -71h6c11 23 24 48 35 70l171 323h45z" />
    <glyph glyph-name="uni04B2" unicode="&#x4b2;" horiz-adv-x="631" 
d="M560 23h56v-146h-51l-3 95h-22l-1 28h-23l-202 343h-30l-202 -343h-47l212 359l-199 331h46l188 -313h34l187 313h47l-200 -331l202 -340h8v4z" />
    <glyph glyph-name="uni04B4" unicode="&#x4b4;" horiz-adv-x="813" 
d="M700 35h82v-186h-29l-6 151h-508v654h-213v36h500v-36h-245v-619h377v655h42v-655z" />
    <glyph glyph-name="uni04B6" unicode="&#x4b6;" horiz-adv-x="621" 
d="M587 32v-32h-17l15 -23l-15 -128l-14 30l9 121h-99v340c-90 -56 -174 -76 -255 -76c-100 0 -148 48 -148 147v279h42v-272c-1 -81 36 -117 117 -117c87 0 150 19 244 75v314h41v-658h80z" />
    <glyph glyph-name="uni04B8" unicode="&#x4b8;" horiz-adv-x="605" 
d="M465 690h42v-690h-42v341c-57 -35 -111 -56 -164 -67v-154h-29v149c-23 -4 -45 -5 -67 -5c-96 0 -142 48 -142 147v279h41v-272c0 -81 35 -117 113 -117c19 0 37 1 55 3v199h29v-195c52 10 101 31 164 68v314z" />
    <glyph glyph-name="uni04BA" unicode="&#x4ba;" horiz-adv-x="603" 
d="M395 426c99 0 147 -48 147 -147v-279h-41v272c0 81 -36 117 -118 117c-85 0 -150 -19 -243 -75v-314h-41v690h41v-340c89 56 174 76 255 76z" />
    <glyph glyph-name="uni0526" unicode="&#x526;" horiz-adv-x="640" 
d="M556 23h57v-146h-52l-3 95h-34l-1 28h-22v272c0 81 -36 117 -118 117c-85 0 -150 -19 -243 -75v-314h-41v690h41v-340c89 56 174 76 255 76c99 0 147 -48 147 -147v-260h14v4z" />
    <glyph glyph-name="uni04BC" unicode="&#x4bc;" horiz-adv-x="715" 
d="M455 25c61 0 133 6 187 18l6 -29c-43 -16 -139 -26 -207 -26c-210 0 -277 97 -278 348h-11c-90 0 -137 36 -124 149h35c-13 -79 17 -114 88 -114h12c5 246 77 331 264 331c159 0 237 -67 237 -203c0 -95 -33 -163 -168 -163h-290c1 -239 62 -311 249 -311zM427 665
c-159 0 -217 -75 -221 -294h285c104 0 130 54 130 129c0 116 -66 165 -194 165z" />
    <glyph glyph-name="uni04BE" unicode="&#x4be;" horiz-adv-x="715" 
d="M642 43l6 -29c-41 -15 -132 -25 -199 -26l-2 -139h-29l-4 140c-189 8 -250 107 -251 347h-11c-90 0 -137 36 -124 149h35c-13 -79 17 -114 88 -114h12c5 246 77 331 264 331c159 0 237 -67 237 -203c0 -95 -33 -163 -168 -163h-290c1 -239 62 -311 249 -311
c61 0 133 6 187 18zM427 665c-159 0 -217 -75 -221 -294h285c104 0 130 54 130 129c0 116 -66 165 -194 165z" />
    <glyph glyph-name="uni04C0" unicode="&#x4c0;" horiz-adv-x="251" 
d="M146 690v-690h-41v690h41z" />
    <glyph glyph-name="uni04C1" unicode="&#x4c1;" horiz-adv-x="886" 
d="M446 750c-87 0 -142 53 -140 126h34c0 -64 42 -100 106 -100c62 0 104 36 104 100h35c1 -73 -52 -126 -139 -126zM594 359c127 -9 178 -173 252 -359h-44c-78 192 -123 343 -265 343h-75c3 -29 4 -55 4 -83v-260h-39v260c0 28 1 54 4 83h-82c-143 0 -187 -151 -265 -343
h-44c74 186 125 350 252 359v2c-117 11 -175 177 -235 329h43c62 -154 117 -313 246 -313h85c-3 28 -4 52 -4 82v231h39v-231c0 -30 -1 -54 -4 -82h77c129 0 184 159 247 313h43c-61 -152 -119 -318 -235 -329v-2z" />
    <glyph glyph-name="uni04C3" unicode="&#x4c3;" horiz-adv-x="583" 
d="M285 360c161 -10 240 -151 240 -263c0 -155 -72 -257 -236 -253v30c129 6 194 77 194 221c0 130 -96 247 -253 247h-94c2 -33 3 -54 3 -82v-260h-40v690h40v-231c0 -30 -1 -54 -4 -82h95c133 0 189 158 250 313h43c-68 -175 -129 -316 -238 -327v-3z" />
    <glyph glyph-name="uni04C5" unicode="&#x4c5;" horiz-adv-x="639" 
d="M537 690v-688l-5 -2h-36v655h-180c-50 0 -79 -26 -83 -80c-24 -277 -29 -364 -84 -458c-31 -57 -77 -105 -132 -117l-5 32c32 15 65 39 99 98c52 93 57 159 82 451c7 72 45 109 114 109h230zM537 2l47 15l-14 -28h-47l9 11h5v2zM581 -11l8 13l-51 -125l-15 17l47 95h11z
" />
    <glyph glyph-name="uni04C7" unicode="&#x4c7;" horiz-adv-x="666" 
d="M520 690h41v-644c0 -144 -56 -214 -212 -202v29c139 0 171 52 171 174v305h-380v-352h-41v690h41v-302h380v302z" />
    <glyph glyph-name="uni04C9" unicode="&#x4c9;" horiz-adv-x="673" 
d="M561 690v-689l-4 -1h-37v352h-380v-352h-41v690h41v-302h380v302h41zM561 1l48 16l-14 -28h-48l10 11h4v1zM605 -11l8 13l-50 -125l-16 17l48 95h10z" />
    <glyph glyph-name="uni04CB" unicode="&#x4cb;" horiz-adv-x="609" 
d="M504 0h-31l-60 -21l28 -85l-15 -17l-38 99l-11 13l6 2l-6 15l21 17l8 -24l54 20l3 -3v326c-92 -58 -178 -78 -260 -78c-96 0 -142 48 -142 147v279h41v-272c0 -81 35 -117 113 -117c89 0 152 19 248 75v314h41v-690z" />
    <glyph glyph-name="uni04CD" unicode="&#x4cd;" horiz-adv-x="874" 
d="M807 18v1l3 -47h-62l5 28h-18l-29 655h-23l-208 -576c-3 -9 -10 -14 -19 -14h-52c-10 0 -17 5 -20 14l-207 576h-23l-29 -655h-41l29 669c1 13 8 21 21 21h57c10 0 16 -5 19 -14l175 -484c12 -31 22 -62 33 -93h24l33 95l174 482c3 9 10 14 20 14h57c12 0 20 -8 20 -21
l29 -651h32zM814 -28l-3 -19l-1 19h4zM815 -106l-15 -17l11 76z" />
    <glyph glyph-name="uni04D0" unicode="&#x4d0;" horiz-adv-x="608" 
d="M306 751c-87 0 -142 53 -140 126h34c0 -64 42 -100 106 -100c62 0 104 36 104 100h35c1 -73 -52 -126 -139 -126zM548 0l-85 243h-318l-85 -243h-43l241 677c3 8 10 13 18 13h56c8 0 15 -5 18 -13l241 -677h-43zM158 279h292l-112 321l-20 56h-28l-20 -56z" />
    <glyph glyph-name="uni04D2" unicode="&#x4d2;" horiz-adv-x="608" 
d="M209 776c-10 0 -14 5 -14 14v56c0 9 4 14 14 14h15c9 0 13 -5 13 -14v-56c0 -9 -4 -14 -13 -14h-15zM386 776c-10 0 -14 5 -14 14v56c0 9 4 14 14 14h15c9 0 13 -5 13 -14v-56c0 -9 -4 -14 -13 -14h-15zM548 0l-85 243h-318l-85 -243h-43l241 677c3 8 10 13 18 13h56
c8 0 15 -5 18 -13l241 -677h-43zM158 279h292l-112 321l-20 56h-28l-20 -56z" />
    <glyph glyph-name="uni04D4" unicode="&#x4d4;" horiz-adv-x="907" 
d="M585 35h265l1 -31c-93 -4 -185 -4 -279 -4c-62 0 -106 45 -106 106v154h-247l-165 -260h-46l384 599c49 77 101 91 181 91c124 0 201 -1 278 -4l-1 -32h-265c-48 0 -79 -30 -79 -78v-190l302 -1v-33l-302 -1v-237c0 -48 31 -79 79 -79zM242 295h224v284c0 31 18 66 39 76
h-7c-20 -9 -47 -32 -71 -69z" />
    <glyph glyph-name="uni04D6" unicode="&#x4d6;" horiz-adv-x="553" 
d="M307 750c-87 0 -142 53 -140 126h34c0 -64 42 -100 106 -100c62 0 104 36 104 100h35c1 -73 -52 -126 -139 -126zM210 35h285l2 -31c-96 -4 -196 -4 -294 -4c-65 0 -110 44 -110 106v478c0 62 45 106 110 106c98 0 198 0 294 -4l-2 -31h-285c-46 0 -76 -31 -76 -78v-191
l320 -1v-33l-320 -1v-238c0 -47 30 -78 76 -78z" />
    <glyph glyph-name="uni04D8" unicode="&#x4d8;" horiz-adv-x="629" 
d="M276 702c213 0 278 -99 278 -356c0 -267 -70 -358 -264 -358c-159 0 -237 77 -237 233c0 83 32 169 168 169h289c-7 210 -71 275 -248 275c-61 0 -133 -6 -187 -18l-6 29c43 16 139 26 207 26zM290 25c165 0 221 81 221 320v10h-285c-106 0 -130 -71 -130 -136
c0 -136 66 -194 194 -194z" />
    <glyph glyph-name="uni04DA" unicode="&#x4da;" horiz-adv-x="629" 
d="M209 776c-10 0 -14 5 -14 14v56c0 9 4 14 14 14h15c9 0 13 -5 13 -14v-56c0 -9 -4 -14 -13 -14h-15zM386 776c-10 0 -14 5 -14 14v56c0 9 4 14 14 14h15c9 0 13 -5 13 -14v-56c0 -9 -4 -14 -13 -14h-15zM276 702c213 0 278 -99 278 -356c0 -267 -70 -358 -264 -358
c-159 0 -237 77 -237 233c0 83 32 169 168 169h289c-7 210 -71 275 -248 275c-61 0 -133 -6 -187 -18l-6 29c43 16 139 26 207 26zM290 25c165 0 221 81 221 320v10h-285c-106 0 -130 -71 -130 -136c0 -136 66 -194 194 -194z" />
    <glyph glyph-name="uni04DC" unicode="&#x4dc;" horiz-adv-x="886" 
d="M348 775c-9 0 -13 5 -13 14v56c0 9 4 14 13 14h15c9 0 14 -5 14 -14v-56c0 -9 -5 -14 -14 -14h-15zM525 775c-9 0 -13 5 -13 14v56c0 9 4 14 13 14h15c9 0 14 -5 14 -14v-56c0 -9 -5 -14 -14 -14h-15zM594 359c127 -9 178 -173 252 -359h-44c-78 192 -123 343 -265 343
h-75c3 -29 4 -55 4 -83v-260h-39v260c0 28 1 54 4 83h-82c-143 0 -187 -151 -265 -343h-44c74 186 125 350 252 359v2c-117 11 -175 177 -235 329h43c62 -154 117 -313 246 -313h85c-3 28 -4 52 -4 82v231h39v-231c0 -30 -1 -54 -4 -82h77c129 0 184 159 247 313h43
c-61 -152 -119 -318 -235 -329v-2z" />
    <glyph glyph-name="uni04DE" unicode="&#x4de;" horiz-adv-x="546" 
d="M175 859c9 0 14 -5 14 -14v-56c0 -9 -5 -14 -14 -14h-15c-9 0 -13 5 -13 14v56c0 9 4 14 13 14h15zM352 859c9 0 14 -5 14 -14v-56c0 -9 -5 -14 -14 -14h-15c-9 0 -13 5 -13 14v56c0 9 4 14 13 14h15zM232 698c164 0 223 -38 223 -180c0 -99 -35 -150 -117 -158v-4
c103 -9 137 -74 137 -184c0 -142 -57 -180 -213 -180c-83 0 -156 5 -220 16l5 30c34 -2 113 -10 211 -10c129 0 175 27 175 148c0 129 -49 165 -184 165h-105v33h105c121 0 164 29 164 141c0 120 -48 147 -182 147c-82 0 -142 -7 -170 -8l-5 30c59 10 111 14 176 14z" />
    <glyph glyph-name="uni04E0" unicode="&#x4e0;" horiz-adv-x="510" 
d="M214 397c168 0 243 -57 243 -199c0 -131 -51 -206 -231 -206c-48 0 -136 4 -202 16l5 30c22 -2 125 -10 195 -10c145 0 191 61 191 168c0 119 -57 170 -201 170h-97v30l270 260h-354v34h394c6 0 8 -2 8 -8v-24l-272 -261h51z" />
    <glyph glyph-name="uni04E2" unicode="&#x4e2;" horiz-adv-x="681" 
d="M475 832v-33h-264v33h264zM583 690v-690h-41v562c0 24 0 47 1 71h-2c-11 -20 -23 -45 -35 -64l-366 -569h-41v690h40v-559c0 -25 0 -49 -1 -74h2c12 20 27 48 40 69l361 564h42z" />
    <glyph glyph-name="uni04E4" unicode="&#x4e4;" horiz-adv-x="681" 
d="M261 859c9 0 14 -5 14 -14v-56c0 -9 -5 -14 -14 -14h-15c-9 0 -13 5 -13 14v56c0 9 4 14 13 14h15zM438 859c9 0 14 -5 14 -14v-56c0 -9 -5 -14 -14 -14h-15c-9 0 -13 5 -13 14v56c0 9 4 14 13 14h15zM583 690v-690h-41v562c0 24 0 47 1 71h-2c-11 -20 -23 -45 -35 -64
l-366 -569h-41v690h40v-559c0 -25 0 -49 -1 -74h2c12 20 27 48 40 69l361 564h42z" />
    <glyph glyph-name="uni04E6" unicode="&#x4e6;" 
d="M251 859c9 0 13 -5 13 -14v-56c0 -9 -4 -14 -13 -14h-15c-10 0 -14 5 -14 14v56c0 9 4 14 14 14h15zM428 859c9 0 13 -5 13 -14v-56c0 -9 -4 -14 -13 -14h-15c-10 0 -14 5 -14 14v56c0 9 4 14 14 14h15zM332 702c192 0 259 -92 259 -357s-67 -357 -259 -357
s-260 92 -260 357s68 357 260 357zM332 665c-161 0 -217 -82 -217 -320s56 -320 217 -320s216 82 216 320s-55 320 -216 320z" />
    <glyph glyph-name="uni04E8" unicode="&#x4e8;" horiz-adv-x="657" 
d="M326 702c192 0 259 -92 259 -357s-67 -357 -259 -357s-260 92 -260 357s68 357 260 357zM326 665c-158 0 -215 -79 -217 -306h433c-2 227 -58 306 -216 306zM326 25c157 0 213 78 216 303h-433c3 -225 60 -303 217 -303z" />
    <glyph glyph-name="uni04EA" unicode="&#x4ea;" horiz-adv-x="657" 
d="M229 775c-10 0 -14 5 -14 14v56c0 9 4 14 14 14h15c9 0 13 -5 13 -14v-56c0 -9 -4 -14 -13 -14h-15zM406 775c-10 0 -14 5 -14 14v56c0 9 4 14 14 14h15c9 0 13 -5 13 -14v-56c0 -9 -4 -14 -13 -14h-15zM326 702c192 0 259 -92 259 -357s-67 -357 -259 -357
s-260 92 -260 357s68 357 260 357zM326 665c-158 0 -215 -79 -217 -306h433c-2 227 -58 306 -216 306zM326 25c157 0 213 78 216 303h-433c3 -225 60 -303 217 -303z" />
    <glyph glyph-name="uni04EC" unicode="&#x4ec;" horiz-adv-x="572" 
d="M161 775c-10 0 -14 5 -14 14v56c0 9 4 14 14 14h15c9 0 13 -5 13 -14v-56c0 -9 -4 -14 -13 -14h-15zM338 775c-10 0 -14 5 -14 14v56c0 9 4 14 14 14h15c9 0 13 -5 13 -14v-56c0 -9 -4 -14 -13 -14h-15zM231 702c199 0 268 -94 268 -357s-69 -357 -268 -357
c-85 0 -133 6 -187 19l7 31c53 -9 99 -13 180 -13c168 0 226 82 226 320v7l-313 1v32l312 1c-6 206 -67 279 -225 279c-76 0 -116 -3 -173 -12l-7 31c54 13 99 18 180 18z" />
    <glyph glyph-name="uni04EE" unicode="&#x4ee;" horiz-adv-x="544" 
d="M406 832v-33h-264v33h264zM481 690h43l-198 -527c-31 -81 -60 -164 -134 -169c-29 -2 -74 3 -103 12l5 29c130 -19 139 -4 192 131l14 38h-43c-26 0 -46 13 -55 38l-170 448h43l161 -430c5 -13 16 -21 29 -21h48z" />
    <glyph glyph-name="uni04F0" unicode="&#x4f0;" horiz-adv-x="544" 
d="M178 775c-10 0 -14 5 -14 14v56c0 9 4 14 14 14h15c9 0 13 -5 13 -14v-56c0 -9 -4 -14 -13 -14h-15zM355 775c-10 0 -14 5 -14 14v56c0 9 4 14 14 14h15c9 0 13 -5 13 -14v-56c0 -9 -4 -14 -13 -14h-15zM481 690h43l-198 -527c-31 -81 -60 -164 -134 -169
c-29 -2 -74 3 -103 12l5 29c130 -19 139 -4 192 131l14 38h-43c-26 0 -46 13 -55 38l-170 448h43l161 -430c5 -13 16 -21 29 -21h48z" />
    <glyph glyph-name="uni04F2" unicode="&#x4f2;" horiz-adv-x="544" 
d="M309 887l-121 -154l-22 14l111 162zM455 887l-121 -154l-22 14l111 162zM481 690h43l-198 -527c-31 -81 -60 -164 -134 -169c-29 -2 -74 3 -103 12l5 29c130 -19 139 -4 192 131l14 38h-43c-26 0 -46 13 -55 38l-170 448h43l161 -430c5 -13 16 -21 29 -21h48z" />
    <glyph glyph-name="uni04F4" unicode="&#x4f4;" horiz-adv-x="610" 
d="M192 775c-10 0 -14 5 -14 14v56c0 9 4 14 14 14h15c9 0 13 -5 13 -14v-56c0 -9 -4 -14 -13 -14h-15zM369 775c-10 0 -14 5 -14 14v56c0 9 4 14 14 14h15c9 0 13 -5 13 -14v-56c0 -9 -4 -14 -13 -14h-15zM470 690h41v-690h-41v342c-92 -58 -178 -78 -260 -78
c-96 0 -142 48 -142 147v279h41v-272c0 -81 35 -117 113 -117c89 0 152 19 248 75v314z" />
    <glyph glyph-name="uni04F6" unicode="&#x4f6;" horiz-adv-x="502" 
d="M215 655c-47 0 -78 -31 -78 -80v-556h22v4h57v-146h-52l-3 95h-42l-1 28h-22v581c0 64 46 109 108 109c96 0 191 0 286 -5l-3 -30h-272z" />
    <glyph glyph-name="uni04F8" unicode="&#x4f8;" horiz-adv-x="819" 
d="M307 775c-10 0 -14 5 -14 14v56c0 9 4 14 14 14h15c9 0 13 -5 13 -14v-56c0 -9 -4 -14 -13 -14h-15zM484 775c-10 0 -14 5 -14 14v56c0 9 4 14 14 14h15c9 0 13 -5 13 -14v-56c0 -9 -4 -14 -13 -14h-15zM322 391c162 0 212 -55 212 -200c0 -157 -59 -199 -209 -199
c-107 0 -153 1 -226 8v690h41v-299h182zM679 690h41v-690h-41v690zM322 29c124 0 170 30 170 162c0 120 -37 164 -170 164h-182v-324c38 -1 102 -2 182 -2z" />
    <glyph glyph-name="uni04FA" unicode="&#x4fa;" horiz-adv-x="537" 
d="M250 655c-47 0 -78 -31 -78 -80v-215h229v-34h-229v-290h79v-73c0 -77 -45 -120 -136 -120v34c65 0 99 28 99 86v37h-83v326h-112v34h112v221c0 64 46 109 108 109c96 0 191 0 286 -5l-3 -30h-272z" />
    <glyph glyph-name="uni04FC" unicode="&#x4fc;" horiz-adv-x="587" 
d="M351 361c141 -186 200 -266 200 -341c0 -113 -65 -180 -236 -176v29c127 3 194 39 194 144c0 84 -81 179 -192 326h-33l-202 -343h-47l212 359l-199 331h46l188 -313h34l187 313h47z" />
    <glyph glyph-name="uni04FE" unicode="&#x4fe;" horiz-adv-x="580" 
d="M507 0l-201 342h-32l-201 -342h-47l202 342h-123v34h123l-189 314h47l187 -313h34l187 313h47l-190 -314h123v-34h-123l203 -342h-47z" />
    <glyph glyph-name="uni0510" unicode="&#x510;" horiz-adv-x="546" 
d="M314 698c65 0 117 -4 176 -14l-5 -30c-28 1 -88 8 -170 8c-134 0 -182 -27 -182 -147c0 -112 43 -141 164 -141h105v-33h-105c-135 0 -184 -36 -184 -165c0 -121 46 -148 175 -148c98 0 177 8 211 10l5 -30c-64 -11 -137 -16 -220 -16c-156 0 -213 38 -213 180
c0 110 34 175 137 184v4c-82 8 -117 59 -117 158c0 142 59 180 223 180z" />
    <glyph glyph-name="uni0512" unicode="&#x512;" horiz-adv-x="641" 
d="M537 690v-644c0 -144 -57 -214 -212 -202v29c138 0 170 52 170 174v608h-179c-51 0 -79 -26 -83 -80c-24 -277 -30 -364 -84 -458c-31 -57 -77 -105 -132 -117l-5 32c32 15 64 39 99 98c52 93 57 159 82 451c6 72 45 109 114 109h230z" />
    <glyph glyph-name="uni051A" unicode="&#x51a;" 
d="M332 702c192 0 259 -92 259 -357s-67 -357 -259 -357s-260 92 -260 357s68 357 260 357zM332 665c-161 0 -216 -82 -216 -320s55 -320 216 -320s216 82 216 320s-55 320 -216 320zM297 -49c66 -41 140 -66 235 -81l-13 -41c-92 14 -175 51 -237 98z" />
    <glyph glyph-name="uni051C" unicode="&#x51c;" horiz-adv-x="935" 
d="M902 690l-172 -676c-2 -8 -9 -14 -19 -14h-57c-10 0 -17 6 -19 15l-137 564c-7 26 -13 52 -19 78h-23c-7 -26 -13 -52 -19 -78l-137 -564c-2 -9 -10 -15 -19 -15h-57c-10 0 -17 6 -20 14l-172 676h44l146 -583c6 -24 12 -48 17 -73h27c6 25 11 48 17 72l139 568
c2 10 9 16 19 16h53c9 0 16 -6 19 -16l139 -567c6 -25 11 -49 16 -73h27c6 24 11 48 17 72l147 584h43z" />
    <glyph glyph-name="uni048C" unicode="&#x48c;" horiz-adv-x="621" 
d="M363 391c162 0 212 -55 212 -200c0 -157 -59 -199 -209 -199c-107 0 -153 1 -226 8v527h-119v34h119v129h41v-129h249v-34h-249v-136h182zM363 29c124 0 170 30 170 162c0 120 -37 164 -170 164h-182v-324c38 -1 102 -2 182 -2z" />
    <glyph glyph-name="uni048E" unicode="&#x48e;" horiz-adv-x="619" 
d="M576 255l-20 -21l-81 81c-32 -21 -78 -29 -141 -29c-79 0 -147 3 -187 6v-292h-41v690c71 7 120 8 225 8c151 0 205 -45 205 -206c0 -76 -12 -126 -39 -158zM331 322c50 1 87 7 113 24l-86 86l20 21l87 -87c20 26 29 66 29 126c0 135 -43 170 -163 170
c-79 0 -145 -1 -184 -2v-338h184z" />
    <glyph glyph-name="uni0528" unicode="&#x528;" horiz-adv-x="752" 
d="M612 690h41v-690h-41v352h-380v-350c0 -86 -42 -130 -125 -130c-20 0 -52 4 -71 8l5 28h56c63 0 94 31 94 93v689h41v-302h380v302z" />
    <glyph glyph-name="uni052E" unicode="&#x52e;" horiz-adv-x="653" 
d="M562 23h55v-146h-50l-3 95h-45l-1 28h-21v655h-180c-50 0 -79 -26 -83 -80c-24 -277 -29 -364 -84 -458c-31 -57 -77 -105 -132 -117l-5 32c32 15 65 39 99 98c52 93 57 159 82 451c7 72 45 109 114 109h230v-671h24v4z" />
    </font>
</defs>
</svg>
